G04 #@! TF.GenerationSoftware,KiCad,Pcbnew,7.0.1*
G04 #@! TF.CreationDate,2023-05-15T21:33:36-05:00*
G04 #@! TF.ProjectId,MiniSSO-Tester,4d696e69-5353-44f2-9d54-65737465722e,1*
G04 #@! TF.SameCoordinates,Original*
G04 #@! TF.FileFunction,Soldermask,Top*
G04 #@! TF.FilePolarity,Negative*
%FSLAX46Y46*%
G04 Gerber Fmt 4.6, Leading zero omitted, Abs format (unit mm)*
G04 Created by KiCad (PCBNEW 7.0.1) date 2023-05-15 21:33:36*
%MOMM*%
%LPD*%
G01*
G04 APERTURE LIST*
G04 Aperture macros list*
%AMRoundRect*
0 Rectangle with rounded corners*
0 $1 Rounding radius*
0 $2 $3 $4 $5 $6 $7 $8 $9 X,Y pos of 4 corners*
0 Add a 4 corners polygon primitive as box body*
4,1,4,$2,$3,$4,$5,$6,$7,$8,$9,$2,$3,0*
0 Add four circle primitives for the rounded corners*
1,1,$1+$1,$2,$3*
1,1,$1+$1,$4,$5*
1,1,$1+$1,$6,$7*
1,1,$1+$1,$8,$9*
0 Add four rect primitives between the rounded corners*
20,1,$1+$1,$2,$3,$4,$5,0*
20,1,$1+$1,$4,$5,$6,$7,0*
20,1,$1+$1,$6,$7,$8,$9,0*
20,1,$1+$1,$8,$9,$2,$3,0*%
G04 Aperture macros list end*
%ADD10C,3.200000*%
%ADD11R,1.700000X1.700000*%
%ADD12O,1.700000X1.700000*%
%ADD13RoundRect,0.237500X0.300000X0.237500X-0.300000X0.237500X-0.300000X-0.237500X0.300000X-0.237500X0*%
%ADD14C,2.700000*%
%ADD15RoundRect,0.237500X-0.300000X-0.237500X0.300000X-0.237500X0.300000X0.237500X-0.300000X0.237500X0*%
%ADD16RoundRect,0.237500X-0.237500X0.250000X-0.237500X-0.250000X0.237500X-0.250000X0.237500X0.250000X0*%
%ADD17RoundRect,0.225000X0.375000X-0.225000X0.375000X0.225000X-0.375000X0.225000X-0.375000X-0.225000X0*%
%ADD18C,1.950000*%
%ADD19R,1.524000X1.524000*%
%ADD20C,1.524000*%
%ADD21O,2.200000X3.500000*%
%ADD22R,1.500000X2.500000*%
%ADD23O,1.500000X2.500000*%
%ADD24R,2.000000X1.500000*%
%ADD25R,2.000000X3.800000*%
%ADD26R,2.000000X2.000000*%
%ADD27C,2.000000*%
%ADD28C,2.286000*%
%ADD29C,4.500000*%
%ADD30RoundRect,0.150000X0.587500X0.150000X-0.587500X0.150000X-0.587500X-0.150000X0.587500X-0.150000X0*%
%ADD31C,3.810000*%
%ADD32R,2.000000X4.500000*%
%ADD33O,2.000000X4.000000*%
%ADD34O,4.000000X2.000000*%
%ADD35RoundRect,0.237500X0.237500X-0.250000X0.237500X0.250000X-0.237500X0.250000X-0.237500X-0.250000X0*%
G04 APERTURE END LIST*
D10*
X59850000Y-126050000D03*
X59850000Y-151050000D03*
X139850000Y-126050000D03*
X139850000Y-151050000D03*
D11*
X84800000Y-111430000D03*
D12*
X84800000Y-113970000D03*
X84800000Y-116510000D03*
X84800000Y-119050000D03*
D13*
X73692500Y-81040000D03*
X71967500Y-81040000D03*
D14*
X55750000Y-62800000D03*
D15*
X79337500Y-102900000D03*
X81062500Y-102900000D03*
D16*
X86790000Y-105100000D03*
X86790000Y-106925000D03*
D14*
X55700000Y-109800000D03*
D17*
X74915000Y-107695000D03*
X74915000Y-104395000D03*
D14*
X55750000Y-156750000D03*
X144700000Y-62800000D03*
D18*
X56800000Y-80150000D03*
X56800000Y-76650000D03*
D19*
X71105000Y-108585000D03*
D20*
X71105000Y-103505000D03*
X68565000Y-108585000D03*
X68565000Y-103505000D03*
X60945000Y-108585000D03*
X60945000Y-103505000D03*
D21*
X61850000Y-115850000D03*
X70050000Y-115850000D03*
D22*
X63950000Y-115850000D03*
D23*
X65950000Y-115850000D03*
X67950000Y-115850000D03*
D24*
X77300000Y-76200000D03*
X77300000Y-78500000D03*
D25*
X83600000Y-78500000D03*
D24*
X77300000Y-80800000D03*
D26*
X80200000Y-90450000D03*
D27*
X75200000Y-90450000D03*
D28*
X110993000Y-110922200D03*
X91943000Y-110922200D03*
D12*
X91290800Y-69000000D03*
X91290800Y-71540000D03*
X91290800Y-74080000D03*
X91290800Y-76620000D03*
X91290800Y-79160000D03*
X91290800Y-81700000D03*
X91290800Y-84240000D03*
X91290800Y-86780000D03*
X91290800Y-89320000D03*
X91290800Y-91860000D03*
X91290800Y-94400000D03*
X91290800Y-96940000D03*
X91290800Y-99480000D03*
X91290800Y-102020000D03*
X91290800Y-104560000D03*
X91265400Y-107100000D03*
X111610800Y-107100000D03*
X111610800Y-104560000D03*
X111610800Y-102020000D03*
X111610800Y-99480000D03*
X111610800Y-96940000D03*
X111610800Y-94400000D03*
X111610800Y-91860000D03*
X111610800Y-89320000D03*
X111610800Y-86780000D03*
X111610800Y-84240000D03*
X111610800Y-81700000D03*
X111610800Y-79160000D03*
D29*
X92543000Y-65172200D03*
X110343000Y-65172200D03*
D30*
X81100000Y-106950000D03*
X81100000Y-105050000D03*
X79225000Y-106000000D03*
D12*
X118490800Y-69000000D03*
X118490800Y-71540000D03*
X118490800Y-74080000D03*
X118490800Y-76620000D03*
X118490800Y-79160000D03*
X118490800Y-81700000D03*
X118490800Y-84240000D03*
X118490800Y-86780000D03*
X118490800Y-89320000D03*
X118490800Y-91860000D03*
X118490800Y-94400000D03*
X118490800Y-96940000D03*
X118490800Y-99480000D03*
X118490800Y-102020000D03*
X118490800Y-104560000D03*
X118465400Y-107100000D03*
X138810800Y-107100000D03*
X138810800Y-104560000D03*
X138810800Y-102020000D03*
X138810800Y-99480000D03*
X138810800Y-96940000D03*
X138810800Y-94400000D03*
X138810800Y-91860000D03*
X138810800Y-89320000D03*
X138810800Y-86780000D03*
X138810800Y-84240000D03*
X138810800Y-81700000D03*
X138810800Y-79160000D03*
X136795200Y-74847600D03*
X136795200Y-72307600D03*
X130105200Y-66767600D03*
X126605200Y-66767600D03*
X125145200Y-109497600D03*
X128645200Y-109497600D03*
X132145200Y-109497600D03*
D29*
X119760800Y-65190000D03*
X137540800Y-65190000D03*
D31*
X119125800Y-110910000D03*
X138175800Y-110910000D03*
D14*
X144700000Y-109800000D03*
D32*
X66600000Y-90100000D03*
D33*
X60400000Y-90100000D03*
D34*
X63400000Y-94800000D03*
D13*
X73692500Y-78500000D03*
X71967500Y-78500000D03*
D35*
X84250000Y-106925000D03*
X84250000Y-105100000D03*
D14*
X144700000Y-156700000D03*
M02*
