G04 #@! TF.GenerationSoftware,KiCad,Pcbnew,7.0.1*
G04 #@! TF.CreationDate,2023-05-15T21:33:36-05:00*
G04 #@! TF.ProjectId,MiniSSO-Tester,4d696e69-5353-44f2-9d54-65737465722e,1*
G04 #@! TF.SameCoordinates,Original*
G04 #@! TF.FileFunction,Legend,Bot*
G04 #@! TF.FilePolarity,Positive*
%FSLAX46Y46*%
G04 Gerber Fmt 4.6, Leading zero omitted, Abs format (unit mm)*
G04 Created by KiCad (PCBNEW 7.0.1) date 2023-05-15 21:33:36*
%MOMM*%
%LPD*%
G01*
G04 APERTURE LIST*
%ADD10C,3.200000*%
%ADD11R,1.700000X1.700000*%
%ADD12O,1.700000X1.700000*%
%ADD13C,2.700000*%
%ADD14C,1.950000*%
%ADD15R,1.524000X1.524000*%
%ADD16C,1.524000*%
%ADD17O,2.200000X3.500000*%
%ADD18R,1.500000X2.500000*%
%ADD19O,1.500000X2.500000*%
%ADD20R,2.000000X2.000000*%
%ADD21C,2.000000*%
%ADD22C,2.286000*%
%ADD23C,4.500000*%
%ADD24C,3.810000*%
%ADD25R,2.000000X4.500000*%
%ADD26O,2.000000X4.000000*%
%ADD27O,4.000000X2.000000*%
G04 APERTURE END LIST*
%LPC*%
D10*
X59850000Y-126050000D03*
X59850000Y-151050000D03*
X139850000Y-126050000D03*
X139850000Y-151050000D03*
D11*
X84800000Y-111430000D03*
D12*
X84800000Y-113970000D03*
X84800000Y-116510000D03*
X84800000Y-119050000D03*
D13*
X55750000Y-62800000D03*
X55700000Y-109800000D03*
X55750000Y-156750000D03*
X144700000Y-62800000D03*
D14*
X56800000Y-80150000D03*
X56800000Y-76650000D03*
D15*
X71105000Y-108585000D03*
D16*
X71105000Y-103505000D03*
X68565000Y-108585000D03*
X68565000Y-103505000D03*
X60945000Y-108585000D03*
X60945000Y-103505000D03*
D17*
X61850000Y-115850000D03*
X70050000Y-115850000D03*
D18*
X63950000Y-115850000D03*
D19*
X65950000Y-115850000D03*
X67950000Y-115850000D03*
D20*
X80200000Y-90450000D03*
D21*
X75200000Y-90450000D03*
D22*
X110993000Y-110922200D03*
X91943000Y-110922200D03*
D12*
X91290800Y-69000000D03*
X91290800Y-71540000D03*
X91290800Y-74080000D03*
X91290800Y-76620000D03*
X91290800Y-79160000D03*
X91290800Y-81700000D03*
X91290800Y-84240000D03*
X91290800Y-86780000D03*
X91290800Y-89320000D03*
X91290800Y-91860000D03*
X91290800Y-94400000D03*
X91290800Y-96940000D03*
X91290800Y-99480000D03*
X91290800Y-102020000D03*
X91290800Y-104560000D03*
X91265400Y-107100000D03*
X111610800Y-107100000D03*
X111610800Y-104560000D03*
X111610800Y-102020000D03*
X111610800Y-99480000D03*
X111610800Y-96940000D03*
X111610800Y-94400000D03*
X111610800Y-91860000D03*
X111610800Y-89320000D03*
X111610800Y-86780000D03*
X111610800Y-84240000D03*
X111610800Y-81700000D03*
X111610800Y-79160000D03*
D23*
X92543000Y-65172200D03*
X110343000Y-65172200D03*
D12*
X118490800Y-69000000D03*
X118490800Y-71540000D03*
X118490800Y-74080000D03*
X118490800Y-76620000D03*
X118490800Y-79160000D03*
X118490800Y-81700000D03*
X118490800Y-84240000D03*
X118490800Y-86780000D03*
X118490800Y-89320000D03*
X118490800Y-91860000D03*
X118490800Y-94400000D03*
X118490800Y-96940000D03*
X118490800Y-99480000D03*
X118490800Y-102020000D03*
X118490800Y-104560000D03*
X118465400Y-107100000D03*
X138810800Y-107100000D03*
X138810800Y-104560000D03*
X138810800Y-102020000D03*
X138810800Y-99480000D03*
X138810800Y-96940000D03*
X138810800Y-94400000D03*
X138810800Y-91860000D03*
X138810800Y-89320000D03*
X138810800Y-86780000D03*
X138810800Y-84240000D03*
X138810800Y-81700000D03*
X138810800Y-79160000D03*
X136795200Y-74847600D03*
X136795200Y-72307600D03*
X130105200Y-66767600D03*
X126605200Y-66767600D03*
X125145200Y-109497600D03*
X128645200Y-109497600D03*
X132145200Y-109497600D03*
D23*
X119760800Y-65190000D03*
X137540800Y-65190000D03*
D24*
X119125800Y-110910000D03*
X138175800Y-110910000D03*
D13*
X144700000Y-109800000D03*
D25*
X66600000Y-90100000D03*
D26*
X60400000Y-90100000D03*
D27*
X63400000Y-94800000D03*
D13*
X144700000Y-156700000D03*
M02*
