G04 #@! TF.GenerationSoftware,KiCad,Pcbnew,7.0.1*
G04 #@! TF.CreationDate,2023-05-15T21:33:36-05:00*
G04 #@! TF.ProjectId,MiniSSO-Tester,4d696e69-5353-44f2-9d54-65737465722e,1*
G04 #@! TF.SameCoordinates,Original*
G04 #@! TF.FileFunction,Legend,Top*
G04 #@! TF.FilePolarity,Positive*
%FSLAX46Y46*%
G04 Gerber Fmt 4.6, Leading zero omitted, Abs format (unit mm)*
G04 Created by KiCad (PCBNEW 7.0.1) date 2023-05-15 21:33:36*
%MOMM*%
%LPD*%
G01*
G04 APERTURE LIST*
G04 Aperture macros list*
%AMRoundRect*
0 Rectangle with rounded corners*
0 $1 Rounding radius*
0 $2 $3 $4 $5 $6 $7 $8 $9 X,Y pos of 4 corners*
0 Add a 4 corners polygon primitive as box body*
4,1,4,$2,$3,$4,$5,$6,$7,$8,$9,$2,$3,0*
0 Add four circle primitives for the rounded corners*
1,1,$1+$1,$2,$3*
1,1,$1+$1,$4,$5*
1,1,$1+$1,$6,$7*
1,1,$1+$1,$8,$9*
0 Add four rect primitives between the rounded corners*
20,1,$1+$1,$2,$3,$4,$5,0*
20,1,$1+$1,$4,$5,$6,$7,0*
20,1,$1+$1,$6,$7,$8,$9,0*
20,1,$1+$1,$8,$9,$2,$3,0*%
G04 Aperture macros list end*
%ADD10C,0.200000*%
%ADD11C,0.300000*%
%ADD12C,0.150000*%
%ADD13C,0.254000*%
%ADD14C,0.100000*%
%ADD15C,0.120000*%
%ADD16C,3.200000*%
%ADD17R,1.700000X1.700000*%
%ADD18O,1.700000X1.700000*%
%ADD19RoundRect,0.237500X0.300000X0.237500X-0.300000X0.237500X-0.300000X-0.237500X0.300000X-0.237500X0*%
%ADD20C,2.700000*%
%ADD21RoundRect,0.237500X-0.300000X-0.237500X0.300000X-0.237500X0.300000X0.237500X-0.300000X0.237500X0*%
%ADD22RoundRect,0.237500X-0.237500X0.250000X-0.237500X-0.250000X0.237500X-0.250000X0.237500X0.250000X0*%
%ADD23RoundRect,0.225000X0.375000X-0.225000X0.375000X0.225000X-0.375000X0.225000X-0.375000X-0.225000X0*%
%ADD24C,1.950000*%
%ADD25R,1.524000X1.524000*%
%ADD26C,1.524000*%
%ADD27O,2.200000X3.500000*%
%ADD28R,1.500000X2.500000*%
%ADD29O,1.500000X2.500000*%
%ADD30R,2.000000X1.500000*%
%ADD31R,2.000000X3.800000*%
%ADD32R,2.000000X2.000000*%
%ADD33C,2.000000*%
%ADD34C,2.286000*%
%ADD35C,4.500000*%
%ADD36RoundRect,0.150000X0.587500X0.150000X-0.587500X0.150000X-0.587500X-0.150000X0.587500X-0.150000X0*%
%ADD37C,3.810000*%
%ADD38R,2.000000X4.500000*%
%ADD39O,2.000000X4.000000*%
%ADD40O,4.000000X2.000000*%
%ADD41RoundRect,0.237500X0.237500X-0.250000X0.237500X0.250000X-0.237500X0.250000X-0.237500X-0.250000X0*%
G04 APERTURE END LIST*
D10*
X79478571Y-119596000D02*
X79650000Y-119653142D01*
X79650000Y-119653142D02*
X79935714Y-119653142D01*
X79935714Y-119653142D02*
X80050000Y-119596000D01*
X80050000Y-119596000D02*
X80107142Y-119538857D01*
X80107142Y-119538857D02*
X80164285Y-119424571D01*
X80164285Y-119424571D02*
X80164285Y-119310285D01*
X80164285Y-119310285D02*
X80107142Y-119196000D01*
X80107142Y-119196000D02*
X80050000Y-119138857D01*
X80050000Y-119138857D02*
X79935714Y-119081714D01*
X79935714Y-119081714D02*
X79707142Y-119024571D01*
X79707142Y-119024571D02*
X79592857Y-118967428D01*
X79592857Y-118967428D02*
X79535714Y-118910285D01*
X79535714Y-118910285D02*
X79478571Y-118796000D01*
X79478571Y-118796000D02*
X79478571Y-118681714D01*
X79478571Y-118681714D02*
X79535714Y-118567428D01*
X79535714Y-118567428D02*
X79592857Y-118510285D01*
X79592857Y-118510285D02*
X79707142Y-118453142D01*
X79707142Y-118453142D02*
X79992857Y-118453142D01*
X79992857Y-118453142D02*
X80164285Y-118510285D01*
X80678571Y-119653142D02*
X80678571Y-118453142D01*
X80678571Y-118453142D02*
X80964285Y-118453142D01*
X80964285Y-118453142D02*
X81135714Y-118510285D01*
X81135714Y-118510285D02*
X81249999Y-118624571D01*
X81249999Y-118624571D02*
X81307142Y-118738857D01*
X81307142Y-118738857D02*
X81364285Y-118967428D01*
X81364285Y-118967428D02*
X81364285Y-119138857D01*
X81364285Y-119138857D02*
X81307142Y-119367428D01*
X81307142Y-119367428D02*
X81249999Y-119481714D01*
X81249999Y-119481714D02*
X81135714Y-119596000D01*
X81135714Y-119596000D02*
X80964285Y-119653142D01*
X80964285Y-119653142D02*
X80678571Y-119653142D01*
X81821428Y-119310285D02*
X82392857Y-119310285D01*
X81707142Y-119653142D02*
X82107142Y-118453142D01*
X82107142Y-118453142D02*
X82507142Y-119653142D01*
X79478571Y-117096000D02*
X79650000Y-117153142D01*
X79650000Y-117153142D02*
X79935714Y-117153142D01*
X79935714Y-117153142D02*
X80050000Y-117096000D01*
X80050000Y-117096000D02*
X80107142Y-117038857D01*
X80107142Y-117038857D02*
X80164285Y-116924571D01*
X80164285Y-116924571D02*
X80164285Y-116810285D01*
X80164285Y-116810285D02*
X80107142Y-116696000D01*
X80107142Y-116696000D02*
X80050000Y-116638857D01*
X80050000Y-116638857D02*
X79935714Y-116581714D01*
X79935714Y-116581714D02*
X79707142Y-116524571D01*
X79707142Y-116524571D02*
X79592857Y-116467428D01*
X79592857Y-116467428D02*
X79535714Y-116410285D01*
X79535714Y-116410285D02*
X79478571Y-116296000D01*
X79478571Y-116296000D02*
X79478571Y-116181714D01*
X79478571Y-116181714D02*
X79535714Y-116067428D01*
X79535714Y-116067428D02*
X79592857Y-116010285D01*
X79592857Y-116010285D02*
X79707142Y-115953142D01*
X79707142Y-115953142D02*
X79992857Y-115953142D01*
X79992857Y-115953142D02*
X80164285Y-116010285D01*
X81364285Y-117038857D02*
X81307142Y-117096000D01*
X81307142Y-117096000D02*
X81135714Y-117153142D01*
X81135714Y-117153142D02*
X81021428Y-117153142D01*
X81021428Y-117153142D02*
X80849999Y-117096000D01*
X80849999Y-117096000D02*
X80735714Y-116981714D01*
X80735714Y-116981714D02*
X80678571Y-116867428D01*
X80678571Y-116867428D02*
X80621428Y-116638857D01*
X80621428Y-116638857D02*
X80621428Y-116467428D01*
X80621428Y-116467428D02*
X80678571Y-116238857D01*
X80678571Y-116238857D02*
X80735714Y-116124571D01*
X80735714Y-116124571D02*
X80849999Y-116010285D01*
X80849999Y-116010285D02*
X81021428Y-115953142D01*
X81021428Y-115953142D02*
X81135714Y-115953142D01*
X81135714Y-115953142D02*
X81307142Y-116010285D01*
X81307142Y-116010285D02*
X81364285Y-116067428D01*
X82449999Y-117153142D02*
X81878571Y-117153142D01*
X81878571Y-117153142D02*
X81878571Y-115953142D01*
X80164285Y-113460285D02*
X80050000Y-113403142D01*
X80050000Y-113403142D02*
X79878571Y-113403142D01*
X79878571Y-113403142D02*
X79707142Y-113460285D01*
X79707142Y-113460285D02*
X79592857Y-113574571D01*
X79592857Y-113574571D02*
X79535714Y-113688857D01*
X79535714Y-113688857D02*
X79478571Y-113917428D01*
X79478571Y-113917428D02*
X79478571Y-114088857D01*
X79478571Y-114088857D02*
X79535714Y-114317428D01*
X79535714Y-114317428D02*
X79592857Y-114431714D01*
X79592857Y-114431714D02*
X79707142Y-114546000D01*
X79707142Y-114546000D02*
X79878571Y-114603142D01*
X79878571Y-114603142D02*
X79992857Y-114603142D01*
X79992857Y-114603142D02*
X80164285Y-114546000D01*
X80164285Y-114546000D02*
X80221428Y-114488857D01*
X80221428Y-114488857D02*
X80221428Y-114088857D01*
X80221428Y-114088857D02*
X79992857Y-114088857D01*
X80735714Y-114603142D02*
X80735714Y-113403142D01*
X80735714Y-113403142D02*
X81421428Y-114603142D01*
X81421428Y-114603142D02*
X81421428Y-113403142D01*
X81992857Y-114603142D02*
X81992857Y-113403142D01*
X81992857Y-113403142D02*
X82278571Y-113403142D01*
X82278571Y-113403142D02*
X82450000Y-113460285D01*
X82450000Y-113460285D02*
X82564285Y-113574571D01*
X82564285Y-113574571D02*
X82621428Y-113688857D01*
X82621428Y-113688857D02*
X82678571Y-113917428D01*
X82678571Y-113917428D02*
X82678571Y-114088857D01*
X82678571Y-114088857D02*
X82621428Y-114317428D01*
X82621428Y-114317428D02*
X82564285Y-114431714D01*
X82564285Y-114431714D02*
X82450000Y-114546000D01*
X82450000Y-114546000D02*
X82278571Y-114603142D01*
X82278571Y-114603142D02*
X81992857Y-114603142D01*
X79364285Y-110703142D02*
X79764285Y-111903142D01*
X79764285Y-111903142D02*
X80164285Y-110703142D01*
X81249999Y-111788857D02*
X81192856Y-111846000D01*
X81192856Y-111846000D02*
X81021428Y-111903142D01*
X81021428Y-111903142D02*
X80907142Y-111903142D01*
X80907142Y-111903142D02*
X80735713Y-111846000D01*
X80735713Y-111846000D02*
X80621428Y-111731714D01*
X80621428Y-111731714D02*
X80564285Y-111617428D01*
X80564285Y-111617428D02*
X80507142Y-111388857D01*
X80507142Y-111388857D02*
X80507142Y-111217428D01*
X80507142Y-111217428D02*
X80564285Y-110988857D01*
X80564285Y-110988857D02*
X80621428Y-110874571D01*
X80621428Y-110874571D02*
X80735713Y-110760285D01*
X80735713Y-110760285D02*
X80907142Y-110703142D01*
X80907142Y-110703142D02*
X81021428Y-110703142D01*
X81021428Y-110703142D02*
X81192856Y-110760285D01*
X81192856Y-110760285D02*
X81249999Y-110817428D01*
X82449999Y-111788857D02*
X82392856Y-111846000D01*
X82392856Y-111846000D02*
X82221428Y-111903142D01*
X82221428Y-111903142D02*
X82107142Y-111903142D01*
X82107142Y-111903142D02*
X81935713Y-111846000D01*
X81935713Y-111846000D02*
X81821428Y-111731714D01*
X81821428Y-111731714D02*
X81764285Y-111617428D01*
X81764285Y-111617428D02*
X81707142Y-111388857D01*
X81707142Y-111388857D02*
X81707142Y-111217428D01*
X81707142Y-111217428D02*
X81764285Y-110988857D01*
X81764285Y-110988857D02*
X81821428Y-110874571D01*
X81821428Y-110874571D02*
X81935713Y-110760285D01*
X81935713Y-110760285D02*
X82107142Y-110703142D01*
X82107142Y-110703142D02*
X82221428Y-110703142D01*
X82221428Y-110703142D02*
X82392856Y-110760285D01*
X82392856Y-110760285D02*
X82449999Y-110817428D01*
D11*
X57421428Y-99329714D02*
X56392857Y-99329714D01*
X56907142Y-99329714D02*
X56907142Y-97529714D01*
X56907142Y-97529714D02*
X56735714Y-97786857D01*
X56735714Y-97786857D02*
X56564285Y-97958285D01*
X56564285Y-97958285D02*
X56392857Y-98044000D01*
X58107143Y-97701142D02*
X58192857Y-97615428D01*
X58192857Y-97615428D02*
X58364286Y-97529714D01*
X58364286Y-97529714D02*
X58792857Y-97529714D01*
X58792857Y-97529714D02*
X58964286Y-97615428D01*
X58964286Y-97615428D02*
X59050000Y-97701142D01*
X59050000Y-97701142D02*
X59135714Y-97872571D01*
X59135714Y-97872571D02*
X59135714Y-98044000D01*
X59135714Y-98044000D02*
X59050000Y-98301142D01*
X59050000Y-98301142D02*
X58021428Y-99329714D01*
X58021428Y-99329714D02*
X59135714Y-99329714D01*
X61021429Y-97529714D02*
X61621429Y-99329714D01*
X61621429Y-99329714D02*
X62221429Y-97529714D01*
X63078572Y-99329714D02*
X62907143Y-99244000D01*
X62907143Y-99244000D02*
X62821429Y-99158285D01*
X62821429Y-99158285D02*
X62735715Y-98986857D01*
X62735715Y-98986857D02*
X62735715Y-98472571D01*
X62735715Y-98472571D02*
X62821429Y-98301142D01*
X62821429Y-98301142D02*
X62907143Y-98215428D01*
X62907143Y-98215428D02*
X63078572Y-98129714D01*
X63078572Y-98129714D02*
X63335715Y-98129714D01*
X63335715Y-98129714D02*
X63507143Y-98215428D01*
X63507143Y-98215428D02*
X63592858Y-98301142D01*
X63592858Y-98301142D02*
X63678572Y-98472571D01*
X63678572Y-98472571D02*
X63678572Y-98986857D01*
X63678572Y-98986857D02*
X63592858Y-99158285D01*
X63592858Y-99158285D02*
X63507143Y-99244000D01*
X63507143Y-99244000D02*
X63335715Y-99329714D01*
X63335715Y-99329714D02*
X63078572Y-99329714D01*
X64707143Y-99329714D02*
X64535714Y-99244000D01*
X64535714Y-99244000D02*
X64450000Y-99072571D01*
X64450000Y-99072571D02*
X64450000Y-97529714D01*
X65135714Y-98129714D02*
X65821428Y-98129714D01*
X65392857Y-97529714D02*
X65392857Y-99072571D01*
X65392857Y-99072571D02*
X65478571Y-99244000D01*
X65478571Y-99244000D02*
X65650000Y-99329714D01*
X65650000Y-99329714D02*
X65821428Y-99329714D01*
X66335714Y-99244000D02*
X66507142Y-99329714D01*
X66507142Y-99329714D02*
X66849999Y-99329714D01*
X66849999Y-99329714D02*
X67021428Y-99244000D01*
X67021428Y-99244000D02*
X67107142Y-99072571D01*
X67107142Y-99072571D02*
X67107142Y-98986857D01*
X67107142Y-98986857D02*
X67021428Y-98815428D01*
X67021428Y-98815428D02*
X66849999Y-98729714D01*
X66849999Y-98729714D02*
X66592857Y-98729714D01*
X66592857Y-98729714D02*
X66421428Y-98644000D01*
X66421428Y-98644000D02*
X66335714Y-98472571D01*
X66335714Y-98472571D02*
X66335714Y-98386857D01*
X66335714Y-98386857D02*
X66421428Y-98215428D01*
X66421428Y-98215428D02*
X66592857Y-98129714D01*
X66592857Y-98129714D02*
X66849999Y-98129714D01*
X66849999Y-98129714D02*
X67021428Y-98215428D01*
X61821428Y-119379714D02*
X62164285Y-119379714D01*
X62164285Y-119379714D02*
X62335714Y-119465428D01*
X62335714Y-119465428D02*
X62507142Y-119636857D01*
X62507142Y-119636857D02*
X62592857Y-119979714D01*
X62592857Y-119979714D02*
X62592857Y-120579714D01*
X62592857Y-120579714D02*
X62507142Y-120922571D01*
X62507142Y-120922571D02*
X62335714Y-121094000D01*
X62335714Y-121094000D02*
X62164285Y-121179714D01*
X62164285Y-121179714D02*
X61821428Y-121179714D01*
X61821428Y-121179714D02*
X61650000Y-121094000D01*
X61650000Y-121094000D02*
X61478571Y-120922571D01*
X61478571Y-120922571D02*
X61392857Y-120579714D01*
X61392857Y-120579714D02*
X61392857Y-119979714D01*
X61392857Y-119979714D02*
X61478571Y-119636857D01*
X61478571Y-119636857D02*
X61650000Y-119465428D01*
X61650000Y-119465428D02*
X61821428Y-119379714D01*
X64135714Y-119979714D02*
X64135714Y-121179714D01*
X63364285Y-119979714D02*
X63364285Y-120922571D01*
X63364285Y-120922571D02*
X63449999Y-121094000D01*
X63449999Y-121094000D02*
X63621428Y-121179714D01*
X63621428Y-121179714D02*
X63878571Y-121179714D01*
X63878571Y-121179714D02*
X64049999Y-121094000D01*
X64049999Y-121094000D02*
X64135714Y-121008285D01*
X64735713Y-119979714D02*
X65421427Y-119979714D01*
X64992856Y-119379714D02*
X64992856Y-120922571D01*
X64992856Y-120922571D02*
X65078570Y-121094000D01*
X65078570Y-121094000D02*
X65249999Y-121179714D01*
X65249999Y-121179714D02*
X65421427Y-121179714D01*
X66021427Y-119979714D02*
X66021427Y-121779714D01*
X66021427Y-120065428D02*
X66192856Y-119979714D01*
X66192856Y-119979714D02*
X66535713Y-119979714D01*
X66535713Y-119979714D02*
X66707141Y-120065428D01*
X66707141Y-120065428D02*
X66792856Y-120151142D01*
X66792856Y-120151142D02*
X66878570Y-120322571D01*
X66878570Y-120322571D02*
X66878570Y-120836857D01*
X66878570Y-120836857D02*
X66792856Y-121008285D01*
X66792856Y-121008285D02*
X66707141Y-121094000D01*
X66707141Y-121094000D02*
X66535713Y-121179714D01*
X66535713Y-121179714D02*
X66192856Y-121179714D01*
X66192856Y-121179714D02*
X66021427Y-121094000D01*
X68421427Y-119979714D02*
X68421427Y-121179714D01*
X67649998Y-119979714D02*
X67649998Y-120922571D01*
X67649998Y-120922571D02*
X67735712Y-121094000D01*
X67735712Y-121094000D02*
X67907141Y-121179714D01*
X67907141Y-121179714D02*
X68164284Y-121179714D01*
X68164284Y-121179714D02*
X68335712Y-121094000D01*
X68335712Y-121094000D02*
X68421427Y-121008285D01*
X69021426Y-119979714D02*
X69707140Y-119979714D01*
X69278569Y-119379714D02*
X69278569Y-120922571D01*
X69278569Y-120922571D02*
X69364283Y-121094000D01*
X69364283Y-121094000D02*
X69535712Y-121179714D01*
X69535712Y-121179714D02*
X69707140Y-121179714D01*
X70221426Y-121094000D02*
X70392854Y-121179714D01*
X70392854Y-121179714D02*
X70735711Y-121179714D01*
X70735711Y-121179714D02*
X70907140Y-121094000D01*
X70907140Y-121094000D02*
X70992854Y-120922571D01*
X70992854Y-120922571D02*
X70992854Y-120836857D01*
X70992854Y-120836857D02*
X70907140Y-120665428D01*
X70907140Y-120665428D02*
X70735711Y-120579714D01*
X70735711Y-120579714D02*
X70478569Y-120579714D01*
X70478569Y-120579714D02*
X70307140Y-120494000D01*
X70307140Y-120494000D02*
X70221426Y-120322571D01*
X70221426Y-120322571D02*
X70221426Y-120236857D01*
X70221426Y-120236857D02*
X70307140Y-120065428D01*
X70307140Y-120065428D02*
X70478569Y-119979714D01*
X70478569Y-119979714D02*
X70735711Y-119979714D01*
X70735711Y-119979714D02*
X70907140Y-120065428D01*
X72792857Y-114951142D02*
X72878571Y-114865428D01*
X72878571Y-114865428D02*
X73050000Y-114779714D01*
X73050000Y-114779714D02*
X73478571Y-114779714D01*
X73478571Y-114779714D02*
X73650000Y-114865428D01*
X73650000Y-114865428D02*
X73735714Y-114951142D01*
X73735714Y-114951142D02*
X73821428Y-115122571D01*
X73821428Y-115122571D02*
X73821428Y-115294000D01*
X73821428Y-115294000D02*
X73735714Y-115551142D01*
X73735714Y-115551142D02*
X72707142Y-116579714D01*
X72707142Y-116579714D02*
X73821428Y-116579714D01*
X59121428Y-116729714D02*
X58092857Y-116729714D01*
X58607142Y-116729714D02*
X58607142Y-114929714D01*
X58607142Y-114929714D02*
X58435714Y-115186857D01*
X58435714Y-115186857D02*
X58264285Y-115358285D01*
X58264285Y-115358285D02*
X58092857Y-115444000D01*
X133021428Y-115279714D02*
X134050000Y-115279714D01*
X133535714Y-117079714D02*
X133535714Y-115279714D01*
X135335714Y-116994000D02*
X135164286Y-117079714D01*
X135164286Y-117079714D02*
X134821429Y-117079714D01*
X134821429Y-117079714D02*
X134650000Y-116994000D01*
X134650000Y-116994000D02*
X134564286Y-116822571D01*
X134564286Y-116822571D02*
X134564286Y-116136857D01*
X134564286Y-116136857D02*
X134650000Y-115965428D01*
X134650000Y-115965428D02*
X134821429Y-115879714D01*
X134821429Y-115879714D02*
X135164286Y-115879714D01*
X135164286Y-115879714D02*
X135335714Y-115965428D01*
X135335714Y-115965428D02*
X135421429Y-116136857D01*
X135421429Y-116136857D02*
X135421429Y-116308285D01*
X135421429Y-116308285D02*
X134564286Y-116479714D01*
X136107143Y-116994000D02*
X136278571Y-117079714D01*
X136278571Y-117079714D02*
X136621428Y-117079714D01*
X136621428Y-117079714D02*
X136792857Y-116994000D01*
X136792857Y-116994000D02*
X136878571Y-116822571D01*
X136878571Y-116822571D02*
X136878571Y-116736857D01*
X136878571Y-116736857D02*
X136792857Y-116565428D01*
X136792857Y-116565428D02*
X136621428Y-116479714D01*
X136621428Y-116479714D02*
X136364286Y-116479714D01*
X136364286Y-116479714D02*
X136192857Y-116394000D01*
X136192857Y-116394000D02*
X136107143Y-116222571D01*
X136107143Y-116222571D02*
X136107143Y-116136857D01*
X136107143Y-116136857D02*
X136192857Y-115965428D01*
X136192857Y-115965428D02*
X136364286Y-115879714D01*
X136364286Y-115879714D02*
X136621428Y-115879714D01*
X136621428Y-115879714D02*
X136792857Y-115965428D01*
X137392857Y-115879714D02*
X138078571Y-115879714D01*
X137650000Y-115279714D02*
X137650000Y-116822571D01*
X137650000Y-116822571D02*
X137735714Y-116994000D01*
X137735714Y-116994000D02*
X137907143Y-117079714D01*
X137907143Y-117079714D02*
X138078571Y-117079714D01*
X87358285Y-99992857D02*
X87444000Y-100078571D01*
X87444000Y-100078571D02*
X87529714Y-100335714D01*
X87529714Y-100335714D02*
X87529714Y-100507142D01*
X87529714Y-100507142D02*
X87444000Y-100764285D01*
X87444000Y-100764285D02*
X87272571Y-100935714D01*
X87272571Y-100935714D02*
X87101142Y-101021428D01*
X87101142Y-101021428D02*
X86758285Y-101107142D01*
X86758285Y-101107142D02*
X86501142Y-101107142D01*
X86501142Y-101107142D02*
X86158285Y-101021428D01*
X86158285Y-101021428D02*
X85986857Y-100935714D01*
X85986857Y-100935714D02*
X85815428Y-100764285D01*
X85815428Y-100764285D02*
X85729714Y-100507142D01*
X85729714Y-100507142D02*
X85729714Y-100335714D01*
X85729714Y-100335714D02*
X85815428Y-100078571D01*
X85815428Y-100078571D02*
X85901142Y-99992857D01*
X87529714Y-98964285D02*
X87444000Y-99135714D01*
X87444000Y-99135714D02*
X87358285Y-99221428D01*
X87358285Y-99221428D02*
X87186857Y-99307142D01*
X87186857Y-99307142D02*
X86672571Y-99307142D01*
X86672571Y-99307142D02*
X86501142Y-99221428D01*
X86501142Y-99221428D02*
X86415428Y-99135714D01*
X86415428Y-99135714D02*
X86329714Y-98964285D01*
X86329714Y-98964285D02*
X86329714Y-98707142D01*
X86329714Y-98707142D02*
X86415428Y-98535714D01*
X86415428Y-98535714D02*
X86501142Y-98450000D01*
X86501142Y-98450000D02*
X86672571Y-98364285D01*
X86672571Y-98364285D02*
X87186857Y-98364285D01*
X87186857Y-98364285D02*
X87358285Y-98450000D01*
X87358285Y-98450000D02*
X87444000Y-98535714D01*
X87444000Y-98535714D02*
X87529714Y-98707142D01*
X87529714Y-98707142D02*
X87529714Y-98964285D01*
X86329714Y-97592857D02*
X87529714Y-97592857D01*
X86501142Y-97592857D02*
X86415428Y-97507143D01*
X86415428Y-97507143D02*
X86329714Y-97335714D01*
X86329714Y-97335714D02*
X86329714Y-97078571D01*
X86329714Y-97078571D02*
X86415428Y-96907143D01*
X86415428Y-96907143D02*
X86586857Y-96821429D01*
X86586857Y-96821429D02*
X87529714Y-96821429D01*
X86329714Y-96221429D02*
X86329714Y-95535715D01*
X85729714Y-95964286D02*
X87272571Y-95964286D01*
X87272571Y-95964286D02*
X87444000Y-95878572D01*
X87444000Y-95878572D02*
X87529714Y-95707143D01*
X87529714Y-95707143D02*
X87529714Y-95535715D01*
X87529714Y-94935715D02*
X86329714Y-94935715D01*
X86672571Y-94935715D02*
X86501142Y-94850001D01*
X86501142Y-94850001D02*
X86415428Y-94764287D01*
X86415428Y-94764287D02*
X86329714Y-94592858D01*
X86329714Y-94592858D02*
X86329714Y-94421429D01*
X87529714Y-93564286D02*
X87444000Y-93735715D01*
X87444000Y-93735715D02*
X87358285Y-93821429D01*
X87358285Y-93821429D02*
X87186857Y-93907143D01*
X87186857Y-93907143D02*
X86672571Y-93907143D01*
X86672571Y-93907143D02*
X86501142Y-93821429D01*
X86501142Y-93821429D02*
X86415428Y-93735715D01*
X86415428Y-93735715D02*
X86329714Y-93564286D01*
X86329714Y-93564286D02*
X86329714Y-93307143D01*
X86329714Y-93307143D02*
X86415428Y-93135715D01*
X86415428Y-93135715D02*
X86501142Y-93050001D01*
X86501142Y-93050001D02*
X86672571Y-92964286D01*
X86672571Y-92964286D02*
X87186857Y-92964286D01*
X87186857Y-92964286D02*
X87358285Y-93050001D01*
X87358285Y-93050001D02*
X87444000Y-93135715D01*
X87444000Y-93135715D02*
X87529714Y-93307143D01*
X87529714Y-93307143D02*
X87529714Y-93564286D01*
X87529714Y-91935715D02*
X87444000Y-92107144D01*
X87444000Y-92107144D02*
X87272571Y-92192858D01*
X87272571Y-92192858D02*
X85729714Y-92192858D01*
X87529714Y-90992858D02*
X87444000Y-91164287D01*
X87444000Y-91164287D02*
X87272571Y-91250001D01*
X87272571Y-91250001D02*
X85729714Y-91250001D01*
X87444000Y-89621430D02*
X87529714Y-89792858D01*
X87529714Y-89792858D02*
X87529714Y-90135716D01*
X87529714Y-90135716D02*
X87444000Y-90307144D01*
X87444000Y-90307144D02*
X87272571Y-90392858D01*
X87272571Y-90392858D02*
X86586857Y-90392858D01*
X86586857Y-90392858D02*
X86415428Y-90307144D01*
X86415428Y-90307144D02*
X86329714Y-90135716D01*
X86329714Y-90135716D02*
X86329714Y-89792858D01*
X86329714Y-89792858D02*
X86415428Y-89621430D01*
X86415428Y-89621430D02*
X86586857Y-89535716D01*
X86586857Y-89535716D02*
X86758285Y-89535716D01*
X86758285Y-89535716D02*
X86929714Y-90392858D01*
X87529714Y-88764287D02*
X86329714Y-88764287D01*
X86672571Y-88764287D02*
X86501142Y-88678573D01*
X86501142Y-88678573D02*
X86415428Y-88592859D01*
X86415428Y-88592859D02*
X86329714Y-88421430D01*
X86329714Y-88421430D02*
X86329714Y-88250001D01*
D10*
X61960285Y-77288095D02*
X61903142Y-77383333D01*
X61903142Y-77383333D02*
X61903142Y-77526190D01*
X61903142Y-77526190D02*
X61960285Y-77669047D01*
X61960285Y-77669047D02*
X62074571Y-77764285D01*
X62074571Y-77764285D02*
X62188857Y-77811904D01*
X62188857Y-77811904D02*
X62417428Y-77859523D01*
X62417428Y-77859523D02*
X62588857Y-77859523D01*
X62588857Y-77859523D02*
X62817428Y-77811904D01*
X62817428Y-77811904D02*
X62931714Y-77764285D01*
X62931714Y-77764285D02*
X63046000Y-77669047D01*
X63046000Y-77669047D02*
X63103142Y-77526190D01*
X63103142Y-77526190D02*
X63103142Y-77430952D01*
X63103142Y-77430952D02*
X63046000Y-77288095D01*
X63046000Y-77288095D02*
X62988857Y-77240476D01*
X62988857Y-77240476D02*
X62588857Y-77240476D01*
X62588857Y-77240476D02*
X62588857Y-77430952D01*
X63103142Y-76811904D02*
X61903142Y-76811904D01*
X61903142Y-76811904D02*
X63103142Y-76240476D01*
X63103142Y-76240476D02*
X61903142Y-76240476D01*
X63103142Y-75764285D02*
X61903142Y-75764285D01*
X61903142Y-75764285D02*
X61903142Y-75526190D01*
X61903142Y-75526190D02*
X61960285Y-75383333D01*
X61960285Y-75383333D02*
X62074571Y-75288095D01*
X62074571Y-75288095D02*
X62188857Y-75240476D01*
X62188857Y-75240476D02*
X62417428Y-75192857D01*
X62417428Y-75192857D02*
X62588857Y-75192857D01*
X62588857Y-75192857D02*
X62817428Y-75240476D01*
X62817428Y-75240476D02*
X62931714Y-75288095D01*
X62931714Y-75288095D02*
X63046000Y-75383333D01*
X63046000Y-75383333D02*
X63103142Y-75526190D01*
X63103142Y-75526190D02*
X63103142Y-75764285D01*
X62596000Y-82061904D02*
X62596000Y-81300000D01*
X63053142Y-81680952D02*
X62138857Y-81680952D01*
X63053142Y-80300000D02*
X63053142Y-80871428D01*
X63053142Y-80585714D02*
X61853142Y-80585714D01*
X61853142Y-80585714D02*
X62024571Y-80680952D01*
X62024571Y-80680952D02*
X62138857Y-80776190D01*
X62138857Y-80776190D02*
X62196000Y-80871428D01*
X61967428Y-79919047D02*
X61910285Y-79871428D01*
X61910285Y-79871428D02*
X61853142Y-79776190D01*
X61853142Y-79776190D02*
X61853142Y-79538095D01*
X61853142Y-79538095D02*
X61910285Y-79442857D01*
X61910285Y-79442857D02*
X61967428Y-79395238D01*
X61967428Y-79395238D02*
X62081714Y-79347619D01*
X62081714Y-79347619D02*
X62196000Y-79347619D01*
X62196000Y-79347619D02*
X62367428Y-79395238D01*
X62367428Y-79395238D02*
X63053142Y-79966666D01*
X63053142Y-79966666D02*
X63053142Y-79347619D01*
X62064285Y-71403142D02*
X62464285Y-72603142D01*
X62464285Y-72603142D02*
X62864285Y-71403142D01*
X63721428Y-72546000D02*
X63607142Y-72603142D01*
X63607142Y-72603142D02*
X63378571Y-72603142D01*
X63378571Y-72603142D02*
X63264285Y-72546000D01*
X63264285Y-72546000D02*
X63207142Y-72431714D01*
X63207142Y-72431714D02*
X63207142Y-71974571D01*
X63207142Y-71974571D02*
X63264285Y-71860285D01*
X63264285Y-71860285D02*
X63378571Y-71803142D01*
X63378571Y-71803142D02*
X63607142Y-71803142D01*
X63607142Y-71803142D02*
X63721428Y-71860285D01*
X63721428Y-71860285D02*
X63778571Y-71974571D01*
X63778571Y-71974571D02*
X63778571Y-72088857D01*
X63778571Y-72088857D02*
X63207142Y-72203142D01*
X64292856Y-72603142D02*
X64292856Y-71803142D01*
X64292856Y-72031714D02*
X64349999Y-71917428D01*
X64349999Y-71917428D02*
X64407142Y-71860285D01*
X64407142Y-71860285D02*
X64521427Y-71803142D01*
X64521427Y-71803142D02*
X64635713Y-71803142D01*
X66578570Y-72603142D02*
X65892856Y-72603142D01*
X66235713Y-72603142D02*
X66235713Y-71403142D01*
X66235713Y-71403142D02*
X66121427Y-71574571D01*
X66121427Y-71574571D02*
X66007142Y-71688857D01*
X66007142Y-71688857D02*
X65892856Y-71746000D01*
D11*
X62178571Y-70729714D02*
X62178571Y-68929714D01*
X62178571Y-68929714D02*
X62778571Y-70215428D01*
X62778571Y-70215428D02*
X63378571Y-68929714D01*
X63378571Y-68929714D02*
X63378571Y-70729714D01*
X64235714Y-70729714D02*
X64235714Y-69529714D01*
X64235714Y-68929714D02*
X64150000Y-69015428D01*
X64150000Y-69015428D02*
X64235714Y-69101142D01*
X64235714Y-69101142D02*
X64321428Y-69015428D01*
X64321428Y-69015428D02*
X64235714Y-68929714D01*
X64235714Y-68929714D02*
X64235714Y-69101142D01*
X65092857Y-69529714D02*
X65092857Y-70729714D01*
X65092857Y-69701142D02*
X65178571Y-69615428D01*
X65178571Y-69615428D02*
X65350000Y-69529714D01*
X65350000Y-69529714D02*
X65607143Y-69529714D01*
X65607143Y-69529714D02*
X65778571Y-69615428D01*
X65778571Y-69615428D02*
X65864286Y-69786857D01*
X65864286Y-69786857D02*
X65864286Y-70729714D01*
X66721428Y-70729714D02*
X66721428Y-69529714D01*
X66721428Y-68929714D02*
X66635714Y-69015428D01*
X66635714Y-69015428D02*
X66721428Y-69101142D01*
X66721428Y-69101142D02*
X66807142Y-69015428D01*
X66807142Y-69015428D02*
X66721428Y-68929714D01*
X66721428Y-68929714D02*
X66721428Y-69101142D01*
X67492857Y-70644000D02*
X67750000Y-70729714D01*
X67750000Y-70729714D02*
X68178571Y-70729714D01*
X68178571Y-70729714D02*
X68350000Y-70644000D01*
X68350000Y-70644000D02*
X68435714Y-70558285D01*
X68435714Y-70558285D02*
X68521428Y-70386857D01*
X68521428Y-70386857D02*
X68521428Y-70215428D01*
X68521428Y-70215428D02*
X68435714Y-70044000D01*
X68435714Y-70044000D02*
X68350000Y-69958285D01*
X68350000Y-69958285D02*
X68178571Y-69872571D01*
X68178571Y-69872571D02*
X67835714Y-69786857D01*
X67835714Y-69786857D02*
X67664285Y-69701142D01*
X67664285Y-69701142D02*
X67578571Y-69615428D01*
X67578571Y-69615428D02*
X67492857Y-69444000D01*
X67492857Y-69444000D02*
X67492857Y-69272571D01*
X67492857Y-69272571D02*
X67578571Y-69101142D01*
X67578571Y-69101142D02*
X67664285Y-69015428D01*
X67664285Y-69015428D02*
X67835714Y-68929714D01*
X67835714Y-68929714D02*
X68264285Y-68929714D01*
X68264285Y-68929714D02*
X68521428Y-69015428D01*
X69207143Y-70644000D02*
X69464286Y-70729714D01*
X69464286Y-70729714D02*
X69892857Y-70729714D01*
X69892857Y-70729714D02*
X70064286Y-70644000D01*
X70064286Y-70644000D02*
X70150000Y-70558285D01*
X70150000Y-70558285D02*
X70235714Y-70386857D01*
X70235714Y-70386857D02*
X70235714Y-70215428D01*
X70235714Y-70215428D02*
X70150000Y-70044000D01*
X70150000Y-70044000D02*
X70064286Y-69958285D01*
X70064286Y-69958285D02*
X69892857Y-69872571D01*
X69892857Y-69872571D02*
X69550000Y-69786857D01*
X69550000Y-69786857D02*
X69378571Y-69701142D01*
X69378571Y-69701142D02*
X69292857Y-69615428D01*
X69292857Y-69615428D02*
X69207143Y-69444000D01*
X69207143Y-69444000D02*
X69207143Y-69272571D01*
X69207143Y-69272571D02*
X69292857Y-69101142D01*
X69292857Y-69101142D02*
X69378571Y-69015428D01*
X69378571Y-69015428D02*
X69550000Y-68929714D01*
X69550000Y-68929714D02*
X69978571Y-68929714D01*
X69978571Y-68929714D02*
X70235714Y-69015428D01*
X71350000Y-68929714D02*
X71692857Y-68929714D01*
X71692857Y-68929714D02*
X71864286Y-69015428D01*
X71864286Y-69015428D02*
X72035714Y-69186857D01*
X72035714Y-69186857D02*
X72121429Y-69529714D01*
X72121429Y-69529714D02*
X72121429Y-70129714D01*
X72121429Y-70129714D02*
X72035714Y-70472571D01*
X72035714Y-70472571D02*
X71864286Y-70644000D01*
X71864286Y-70644000D02*
X71692857Y-70729714D01*
X71692857Y-70729714D02*
X71350000Y-70729714D01*
X71350000Y-70729714D02*
X71178572Y-70644000D01*
X71178572Y-70644000D02*
X71007143Y-70472571D01*
X71007143Y-70472571D02*
X70921429Y-70129714D01*
X70921429Y-70129714D02*
X70921429Y-69529714D01*
X70921429Y-69529714D02*
X71007143Y-69186857D01*
X71007143Y-69186857D02*
X71178572Y-69015428D01*
X71178572Y-69015428D02*
X71350000Y-68929714D01*
X74007143Y-68929714D02*
X75035715Y-68929714D01*
X74521429Y-70729714D02*
X74521429Y-68929714D01*
X76321429Y-70644000D02*
X76150001Y-70729714D01*
X76150001Y-70729714D02*
X75807144Y-70729714D01*
X75807144Y-70729714D02*
X75635715Y-70644000D01*
X75635715Y-70644000D02*
X75550001Y-70472571D01*
X75550001Y-70472571D02*
X75550001Y-69786857D01*
X75550001Y-69786857D02*
X75635715Y-69615428D01*
X75635715Y-69615428D02*
X75807144Y-69529714D01*
X75807144Y-69529714D02*
X76150001Y-69529714D01*
X76150001Y-69529714D02*
X76321429Y-69615428D01*
X76321429Y-69615428D02*
X76407144Y-69786857D01*
X76407144Y-69786857D02*
X76407144Y-69958285D01*
X76407144Y-69958285D02*
X75550001Y-70129714D01*
X77092858Y-70644000D02*
X77264286Y-70729714D01*
X77264286Y-70729714D02*
X77607143Y-70729714D01*
X77607143Y-70729714D02*
X77778572Y-70644000D01*
X77778572Y-70644000D02*
X77864286Y-70472571D01*
X77864286Y-70472571D02*
X77864286Y-70386857D01*
X77864286Y-70386857D02*
X77778572Y-70215428D01*
X77778572Y-70215428D02*
X77607143Y-70129714D01*
X77607143Y-70129714D02*
X77350001Y-70129714D01*
X77350001Y-70129714D02*
X77178572Y-70044000D01*
X77178572Y-70044000D02*
X77092858Y-69872571D01*
X77092858Y-69872571D02*
X77092858Y-69786857D01*
X77092858Y-69786857D02*
X77178572Y-69615428D01*
X77178572Y-69615428D02*
X77350001Y-69529714D01*
X77350001Y-69529714D02*
X77607143Y-69529714D01*
X77607143Y-69529714D02*
X77778572Y-69615428D01*
X78378572Y-69529714D02*
X79064286Y-69529714D01*
X78635715Y-68929714D02*
X78635715Y-70472571D01*
X78635715Y-70472571D02*
X78721429Y-70644000D01*
X78721429Y-70644000D02*
X78892858Y-70729714D01*
X78892858Y-70729714D02*
X79064286Y-70729714D01*
X80350000Y-70644000D02*
X80178572Y-70729714D01*
X80178572Y-70729714D02*
X79835715Y-70729714D01*
X79835715Y-70729714D02*
X79664286Y-70644000D01*
X79664286Y-70644000D02*
X79578572Y-70472571D01*
X79578572Y-70472571D02*
X79578572Y-69786857D01*
X79578572Y-69786857D02*
X79664286Y-69615428D01*
X79664286Y-69615428D02*
X79835715Y-69529714D01*
X79835715Y-69529714D02*
X80178572Y-69529714D01*
X80178572Y-69529714D02*
X80350000Y-69615428D01*
X80350000Y-69615428D02*
X80435715Y-69786857D01*
X80435715Y-69786857D02*
X80435715Y-69958285D01*
X80435715Y-69958285D02*
X79578572Y-70129714D01*
X81207143Y-70729714D02*
X81207143Y-69529714D01*
X81207143Y-69872571D02*
X81292857Y-69701142D01*
X81292857Y-69701142D02*
X81378572Y-69615428D01*
X81378572Y-69615428D02*
X81550000Y-69529714D01*
X81550000Y-69529714D02*
X81721429Y-69529714D01*
X56978571Y-67779714D02*
X56978571Y-65979714D01*
X56978571Y-65979714D02*
X57407142Y-65979714D01*
X57407142Y-65979714D02*
X57664285Y-66065428D01*
X57664285Y-66065428D02*
X57835714Y-66236857D01*
X57835714Y-66236857D02*
X57921428Y-66408285D01*
X57921428Y-66408285D02*
X58007142Y-66751142D01*
X58007142Y-66751142D02*
X58007142Y-67008285D01*
X58007142Y-67008285D02*
X57921428Y-67351142D01*
X57921428Y-67351142D02*
X57835714Y-67522571D01*
X57835714Y-67522571D02*
X57664285Y-67694000D01*
X57664285Y-67694000D02*
X57407142Y-67779714D01*
X57407142Y-67779714D02*
X56978571Y-67779714D01*
X59464285Y-67694000D02*
X59292857Y-67779714D01*
X59292857Y-67779714D02*
X58950000Y-67779714D01*
X58950000Y-67779714D02*
X58778571Y-67694000D01*
X58778571Y-67694000D02*
X58692857Y-67522571D01*
X58692857Y-67522571D02*
X58692857Y-66836857D01*
X58692857Y-66836857D02*
X58778571Y-66665428D01*
X58778571Y-66665428D02*
X58950000Y-66579714D01*
X58950000Y-66579714D02*
X59292857Y-66579714D01*
X59292857Y-66579714D02*
X59464285Y-66665428D01*
X59464285Y-66665428D02*
X59550000Y-66836857D01*
X59550000Y-66836857D02*
X59550000Y-67008285D01*
X59550000Y-67008285D02*
X58692857Y-67179714D01*
X60321428Y-66579714D02*
X60321428Y-68379714D01*
X60321428Y-66665428D02*
X60492857Y-66579714D01*
X60492857Y-66579714D02*
X60835714Y-66579714D01*
X60835714Y-66579714D02*
X61007142Y-66665428D01*
X61007142Y-66665428D02*
X61092857Y-66751142D01*
X61092857Y-66751142D02*
X61178571Y-66922571D01*
X61178571Y-66922571D02*
X61178571Y-67436857D01*
X61178571Y-67436857D02*
X61092857Y-67608285D01*
X61092857Y-67608285D02*
X61007142Y-67694000D01*
X61007142Y-67694000D02*
X60835714Y-67779714D01*
X60835714Y-67779714D02*
X60492857Y-67779714D01*
X60492857Y-67779714D02*
X60321428Y-67694000D01*
X62721428Y-67779714D02*
X62721428Y-66836857D01*
X62721428Y-66836857D02*
X62635713Y-66665428D01*
X62635713Y-66665428D02*
X62464285Y-66579714D01*
X62464285Y-66579714D02*
X62121428Y-66579714D01*
X62121428Y-66579714D02*
X61949999Y-66665428D01*
X62721428Y-67694000D02*
X62549999Y-67779714D01*
X62549999Y-67779714D02*
X62121428Y-67779714D01*
X62121428Y-67779714D02*
X61949999Y-67694000D01*
X61949999Y-67694000D02*
X61864285Y-67522571D01*
X61864285Y-67522571D02*
X61864285Y-67351142D01*
X61864285Y-67351142D02*
X61949999Y-67179714D01*
X61949999Y-67179714D02*
X62121428Y-67094000D01*
X62121428Y-67094000D02*
X62549999Y-67094000D01*
X62549999Y-67094000D02*
X62721428Y-67008285D01*
X63578570Y-67779714D02*
X63578570Y-66579714D01*
X63578570Y-66922571D02*
X63664284Y-66751142D01*
X63664284Y-66751142D02*
X63749999Y-66665428D01*
X63749999Y-66665428D02*
X63921427Y-66579714D01*
X63921427Y-66579714D02*
X64092856Y-66579714D01*
X64435713Y-66579714D02*
X65121427Y-66579714D01*
X64692856Y-65979714D02*
X64692856Y-67522571D01*
X64692856Y-67522571D02*
X64778570Y-67694000D01*
X64778570Y-67694000D02*
X64949999Y-67779714D01*
X64949999Y-67779714D02*
X65121427Y-67779714D01*
X65721427Y-67779714D02*
X65721427Y-66579714D01*
X65721427Y-66751142D02*
X65807141Y-66665428D01*
X65807141Y-66665428D02*
X65978570Y-66579714D01*
X65978570Y-66579714D02*
X66235713Y-66579714D01*
X66235713Y-66579714D02*
X66407141Y-66665428D01*
X66407141Y-66665428D02*
X66492856Y-66836857D01*
X66492856Y-66836857D02*
X66492856Y-67779714D01*
X66492856Y-66836857D02*
X66578570Y-66665428D01*
X66578570Y-66665428D02*
X66749998Y-66579714D01*
X66749998Y-66579714D02*
X67007141Y-66579714D01*
X67007141Y-66579714D02*
X67178570Y-66665428D01*
X67178570Y-66665428D02*
X67264284Y-66836857D01*
X67264284Y-66836857D02*
X67264284Y-67779714D01*
X68807141Y-67694000D02*
X68635713Y-67779714D01*
X68635713Y-67779714D02*
X68292856Y-67779714D01*
X68292856Y-67779714D02*
X68121427Y-67694000D01*
X68121427Y-67694000D02*
X68035713Y-67522571D01*
X68035713Y-67522571D02*
X68035713Y-66836857D01*
X68035713Y-66836857D02*
X68121427Y-66665428D01*
X68121427Y-66665428D02*
X68292856Y-66579714D01*
X68292856Y-66579714D02*
X68635713Y-66579714D01*
X68635713Y-66579714D02*
X68807141Y-66665428D01*
X68807141Y-66665428D02*
X68892856Y-66836857D01*
X68892856Y-66836857D02*
X68892856Y-67008285D01*
X68892856Y-67008285D02*
X68035713Y-67179714D01*
X69664284Y-66579714D02*
X69664284Y-67779714D01*
X69664284Y-66751142D02*
X69749998Y-66665428D01*
X69749998Y-66665428D02*
X69921427Y-66579714D01*
X69921427Y-66579714D02*
X70178570Y-66579714D01*
X70178570Y-66579714D02*
X70349998Y-66665428D01*
X70349998Y-66665428D02*
X70435713Y-66836857D01*
X70435713Y-66836857D02*
X70435713Y-67779714D01*
X71035712Y-66579714D02*
X71721426Y-66579714D01*
X71292855Y-65979714D02*
X71292855Y-67522571D01*
X71292855Y-67522571D02*
X71378569Y-67694000D01*
X71378569Y-67694000D02*
X71549998Y-67779714D01*
X71549998Y-67779714D02*
X71721426Y-67779714D01*
X73949998Y-67779714D02*
X73778569Y-67694000D01*
X73778569Y-67694000D02*
X73692855Y-67608285D01*
X73692855Y-67608285D02*
X73607141Y-67436857D01*
X73607141Y-67436857D02*
X73607141Y-66922571D01*
X73607141Y-66922571D02*
X73692855Y-66751142D01*
X73692855Y-66751142D02*
X73778569Y-66665428D01*
X73778569Y-66665428D02*
X73949998Y-66579714D01*
X73949998Y-66579714D02*
X74207141Y-66579714D01*
X74207141Y-66579714D02*
X74378569Y-66665428D01*
X74378569Y-66665428D02*
X74464284Y-66751142D01*
X74464284Y-66751142D02*
X74549998Y-66922571D01*
X74549998Y-66922571D02*
X74549998Y-67436857D01*
X74549998Y-67436857D02*
X74464284Y-67608285D01*
X74464284Y-67608285D02*
X74378569Y-67694000D01*
X74378569Y-67694000D02*
X74207141Y-67779714D01*
X74207141Y-67779714D02*
X73949998Y-67779714D01*
X75064283Y-66579714D02*
X75749997Y-66579714D01*
X75321426Y-67779714D02*
X75321426Y-66236857D01*
X75321426Y-66236857D02*
X75407140Y-66065428D01*
X75407140Y-66065428D02*
X75578569Y-65979714D01*
X75578569Y-65979714D02*
X75749997Y-65979714D01*
X77635712Y-67265428D02*
X78492855Y-67265428D01*
X77464283Y-67779714D02*
X78064283Y-65979714D01*
X78064283Y-65979714D02*
X78664283Y-67779714D01*
X79521426Y-67779714D02*
X79349997Y-67694000D01*
X79349997Y-67694000D02*
X79264283Y-67522571D01*
X79264283Y-67522571D02*
X79264283Y-65979714D01*
X80978569Y-67694000D02*
X80807140Y-67779714D01*
X80807140Y-67779714D02*
X80464283Y-67779714D01*
X80464283Y-67779714D02*
X80292854Y-67694000D01*
X80292854Y-67694000D02*
X80207140Y-67608285D01*
X80207140Y-67608285D02*
X80121426Y-67436857D01*
X80121426Y-67436857D02*
X80121426Y-66922571D01*
X80121426Y-66922571D02*
X80207140Y-66751142D01*
X80207140Y-66751142D02*
X80292854Y-66665428D01*
X80292854Y-66665428D02*
X80464283Y-66579714D01*
X80464283Y-66579714D02*
X80807140Y-66579714D01*
X80807140Y-66579714D02*
X80978569Y-66665428D01*
X81749997Y-67779714D02*
X81749997Y-65979714D01*
X82521426Y-67779714D02*
X82521426Y-66836857D01*
X82521426Y-66836857D02*
X82435711Y-66665428D01*
X82435711Y-66665428D02*
X82264283Y-66579714D01*
X82264283Y-66579714D02*
X82007140Y-66579714D01*
X82007140Y-66579714D02*
X81835711Y-66665428D01*
X81835711Y-66665428D02*
X81749997Y-66751142D01*
X84064282Y-67694000D02*
X83892854Y-67779714D01*
X83892854Y-67779714D02*
X83549997Y-67779714D01*
X83549997Y-67779714D02*
X83378568Y-67694000D01*
X83378568Y-67694000D02*
X83292854Y-67522571D01*
X83292854Y-67522571D02*
X83292854Y-66836857D01*
X83292854Y-66836857D02*
X83378568Y-66665428D01*
X83378568Y-66665428D02*
X83549997Y-66579714D01*
X83549997Y-66579714D02*
X83892854Y-66579714D01*
X83892854Y-66579714D02*
X84064282Y-66665428D01*
X84064282Y-66665428D02*
X84149997Y-66836857D01*
X84149997Y-66836857D02*
X84149997Y-67008285D01*
X84149997Y-67008285D02*
X83292854Y-67179714D01*
X84921425Y-67779714D02*
X84921425Y-66579714D01*
X84921425Y-66751142D02*
X85007139Y-66665428D01*
X85007139Y-66665428D02*
X85178568Y-66579714D01*
X85178568Y-66579714D02*
X85435711Y-66579714D01*
X85435711Y-66579714D02*
X85607139Y-66665428D01*
X85607139Y-66665428D02*
X85692854Y-66836857D01*
X85692854Y-66836857D02*
X85692854Y-67779714D01*
X85692854Y-66836857D02*
X85778568Y-66665428D01*
X85778568Y-66665428D02*
X85949996Y-66579714D01*
X85949996Y-66579714D02*
X86207139Y-66579714D01*
X86207139Y-66579714D02*
X86378568Y-66665428D01*
X86378568Y-66665428D02*
X86464282Y-66836857D01*
X86464282Y-66836857D02*
X86464282Y-67779714D01*
X87149996Y-66579714D02*
X87578568Y-67779714D01*
X88007139Y-66579714D02*
X87578568Y-67779714D01*
X87578568Y-67779714D02*
X87407139Y-68208285D01*
X87407139Y-68208285D02*
X87321425Y-68294000D01*
X87321425Y-68294000D02*
X87149996Y-68379714D01*
D12*
X69783333Y-81417380D02*
X69735714Y-81465000D01*
X69735714Y-81465000D02*
X69592857Y-81512619D01*
X69592857Y-81512619D02*
X69497619Y-81512619D01*
X69497619Y-81512619D02*
X69354762Y-81465000D01*
X69354762Y-81465000D02*
X69259524Y-81369761D01*
X69259524Y-81369761D02*
X69211905Y-81274523D01*
X69211905Y-81274523D02*
X69164286Y-81084047D01*
X69164286Y-81084047D02*
X69164286Y-80941190D01*
X69164286Y-80941190D02*
X69211905Y-80750714D01*
X69211905Y-80750714D02*
X69259524Y-80655476D01*
X69259524Y-80655476D02*
X69354762Y-80560238D01*
X69354762Y-80560238D02*
X69497619Y-80512619D01*
X69497619Y-80512619D02*
X69592857Y-80512619D01*
X69592857Y-80512619D02*
X69735714Y-80560238D01*
X69735714Y-80560238D02*
X69783333Y-80607857D01*
X70164286Y-80607857D02*
X70211905Y-80560238D01*
X70211905Y-80560238D02*
X70307143Y-80512619D01*
X70307143Y-80512619D02*
X70545238Y-80512619D01*
X70545238Y-80512619D02*
X70640476Y-80560238D01*
X70640476Y-80560238D02*
X70688095Y-80607857D01*
X70688095Y-80607857D02*
X70735714Y-80703095D01*
X70735714Y-80703095D02*
X70735714Y-80798333D01*
X70735714Y-80798333D02*
X70688095Y-80941190D01*
X70688095Y-80941190D02*
X70116667Y-81512619D01*
X70116667Y-81512619D02*
X70735714Y-81512619D01*
X58888095Y-63212619D02*
X58888095Y-62212619D01*
X58888095Y-62688809D02*
X59459523Y-62688809D01*
X59459523Y-63212619D02*
X59459523Y-62212619D01*
X60459523Y-63212619D02*
X59888095Y-63212619D01*
X60173809Y-63212619D02*
X60173809Y-62212619D01*
X60173809Y-62212619D02*
X60078571Y-62355476D01*
X60078571Y-62355476D02*
X59983333Y-62450714D01*
X59983333Y-62450714D02*
X59888095Y-62498333D01*
X80033333Y-101837380D02*
X79985714Y-101885000D01*
X79985714Y-101885000D02*
X79842857Y-101932619D01*
X79842857Y-101932619D02*
X79747619Y-101932619D01*
X79747619Y-101932619D02*
X79604762Y-101885000D01*
X79604762Y-101885000D02*
X79509524Y-101789761D01*
X79509524Y-101789761D02*
X79461905Y-101694523D01*
X79461905Y-101694523D02*
X79414286Y-101504047D01*
X79414286Y-101504047D02*
X79414286Y-101361190D01*
X79414286Y-101361190D02*
X79461905Y-101170714D01*
X79461905Y-101170714D02*
X79509524Y-101075476D01*
X79509524Y-101075476D02*
X79604762Y-100980238D01*
X79604762Y-100980238D02*
X79747619Y-100932619D01*
X79747619Y-100932619D02*
X79842857Y-100932619D01*
X79842857Y-100932619D02*
X79985714Y-100980238D01*
X79985714Y-100980238D02*
X80033333Y-101027857D01*
X80366667Y-100932619D02*
X81033333Y-100932619D01*
X81033333Y-100932619D02*
X80604762Y-101932619D01*
X87312619Y-103316666D02*
X86836428Y-103649999D01*
X87312619Y-103888094D02*
X86312619Y-103888094D01*
X86312619Y-103888094D02*
X86312619Y-103507142D01*
X86312619Y-103507142D02*
X86360238Y-103411904D01*
X86360238Y-103411904D02*
X86407857Y-103364285D01*
X86407857Y-103364285D02*
X86503095Y-103316666D01*
X86503095Y-103316666D02*
X86645952Y-103316666D01*
X86645952Y-103316666D02*
X86741190Y-103364285D01*
X86741190Y-103364285D02*
X86788809Y-103411904D01*
X86788809Y-103411904D02*
X86836428Y-103507142D01*
X86836428Y-103507142D02*
X86836428Y-103888094D01*
X86312619Y-102459523D02*
X86312619Y-102649999D01*
X86312619Y-102649999D02*
X86360238Y-102745237D01*
X86360238Y-102745237D02*
X86407857Y-102792856D01*
X86407857Y-102792856D02*
X86550714Y-102888094D01*
X86550714Y-102888094D02*
X86741190Y-102935713D01*
X86741190Y-102935713D02*
X87122142Y-102935713D01*
X87122142Y-102935713D02*
X87217380Y-102888094D01*
X87217380Y-102888094D02*
X87265000Y-102840475D01*
X87265000Y-102840475D02*
X87312619Y-102745237D01*
X87312619Y-102745237D02*
X87312619Y-102554761D01*
X87312619Y-102554761D02*
X87265000Y-102459523D01*
X87265000Y-102459523D02*
X87217380Y-102411904D01*
X87217380Y-102411904D02*
X87122142Y-102364285D01*
X87122142Y-102364285D02*
X86884047Y-102364285D01*
X86884047Y-102364285D02*
X86788809Y-102411904D01*
X86788809Y-102411904D02*
X86741190Y-102459523D01*
X86741190Y-102459523D02*
X86693571Y-102554761D01*
X86693571Y-102554761D02*
X86693571Y-102745237D01*
X86693571Y-102745237D02*
X86741190Y-102840475D01*
X86741190Y-102840475D02*
X86788809Y-102888094D01*
X86788809Y-102888094D02*
X86884047Y-102935713D01*
X54938095Y-107012619D02*
X54938095Y-106012619D01*
X54938095Y-106488809D02*
X55509523Y-106488809D01*
X55509523Y-107012619D02*
X55509523Y-106012619D01*
X55938095Y-106107857D02*
X55985714Y-106060238D01*
X55985714Y-106060238D02*
X56080952Y-106012619D01*
X56080952Y-106012619D02*
X56319047Y-106012619D01*
X56319047Y-106012619D02*
X56414285Y-106060238D01*
X56414285Y-106060238D02*
X56461904Y-106107857D01*
X56461904Y-106107857D02*
X56509523Y-106203095D01*
X56509523Y-106203095D02*
X56509523Y-106298333D01*
X56509523Y-106298333D02*
X56461904Y-106441190D01*
X56461904Y-106441190D02*
X55890476Y-107012619D01*
X55890476Y-107012619D02*
X56509523Y-107012619D01*
X75262619Y-110338094D02*
X74262619Y-110338094D01*
X74262619Y-110338094D02*
X74262619Y-110099999D01*
X74262619Y-110099999D02*
X74310238Y-109957142D01*
X74310238Y-109957142D02*
X74405476Y-109861904D01*
X74405476Y-109861904D02*
X74500714Y-109814285D01*
X74500714Y-109814285D02*
X74691190Y-109766666D01*
X74691190Y-109766666D02*
X74834047Y-109766666D01*
X74834047Y-109766666D02*
X75024523Y-109814285D01*
X75024523Y-109814285D02*
X75119761Y-109861904D01*
X75119761Y-109861904D02*
X75215000Y-109957142D01*
X75215000Y-109957142D02*
X75262619Y-110099999D01*
X75262619Y-110099999D02*
X75262619Y-110338094D01*
X75262619Y-108814285D02*
X75262619Y-109385713D01*
X75262619Y-109099999D02*
X74262619Y-109099999D01*
X74262619Y-109099999D02*
X74405476Y-109195237D01*
X74405476Y-109195237D02*
X74500714Y-109290475D01*
X74500714Y-109290475D02*
X74548333Y-109385713D01*
X54988095Y-153962619D02*
X54988095Y-152962619D01*
X54988095Y-153438809D02*
X55559523Y-153438809D01*
X55559523Y-153962619D02*
X55559523Y-152962619D01*
X55940476Y-152962619D02*
X56559523Y-152962619D01*
X56559523Y-152962619D02*
X56226190Y-153343571D01*
X56226190Y-153343571D02*
X56369047Y-153343571D01*
X56369047Y-153343571D02*
X56464285Y-153391190D01*
X56464285Y-153391190D02*
X56511904Y-153438809D01*
X56511904Y-153438809D02*
X56559523Y-153534047D01*
X56559523Y-153534047D02*
X56559523Y-153772142D01*
X56559523Y-153772142D02*
X56511904Y-153867380D01*
X56511904Y-153867380D02*
X56464285Y-153915000D01*
X56464285Y-153915000D02*
X56369047Y-153962619D01*
X56369047Y-153962619D02*
X56083333Y-153962619D01*
X56083333Y-153962619D02*
X55988095Y-153915000D01*
X55988095Y-153915000D02*
X55940476Y-153867380D01*
X144138095Y-66812619D02*
X144138095Y-65812619D01*
X144138095Y-66288809D02*
X144709523Y-66288809D01*
X144709523Y-66812619D02*
X144709523Y-65812619D01*
X145614285Y-66145952D02*
X145614285Y-66812619D01*
X145376190Y-65765000D02*
X145138095Y-66479285D01*
X145138095Y-66479285D02*
X145757142Y-66479285D01*
D13*
X56017526Y-72873332D02*
X56924669Y-72873332D01*
X56924669Y-72873332D02*
X57106097Y-72933809D01*
X57106097Y-72933809D02*
X57227050Y-73054761D01*
X57227050Y-73054761D02*
X57287526Y-73236190D01*
X57287526Y-73236190D02*
X57287526Y-73357142D01*
X56138478Y-72329047D02*
X56078002Y-72268571D01*
X56078002Y-72268571D02*
X56017526Y-72147618D01*
X56017526Y-72147618D02*
X56017526Y-71845237D01*
X56017526Y-71845237D02*
X56078002Y-71724285D01*
X56078002Y-71724285D02*
X56138478Y-71663809D01*
X56138478Y-71663809D02*
X56259430Y-71603332D01*
X56259430Y-71603332D02*
X56380383Y-71603332D01*
X56380383Y-71603332D02*
X56561811Y-71663809D01*
X56561811Y-71663809D02*
X57287526Y-72389523D01*
X57287526Y-72389523D02*
X57287526Y-71603332D01*
D12*
X65263095Y-110257419D02*
X65263095Y-111066942D01*
X65263095Y-111066942D02*
X65310714Y-111162180D01*
X65310714Y-111162180D02*
X65358333Y-111209800D01*
X65358333Y-111209800D02*
X65453571Y-111257419D01*
X65453571Y-111257419D02*
X65644047Y-111257419D01*
X65644047Y-111257419D02*
X65739285Y-111209800D01*
X65739285Y-111209800D02*
X65786904Y-111162180D01*
X65786904Y-111162180D02*
X65834523Y-111066942D01*
X65834523Y-111066942D02*
X65834523Y-110257419D01*
X66739285Y-110257419D02*
X66548809Y-110257419D01*
X66548809Y-110257419D02*
X66453571Y-110305038D01*
X66453571Y-110305038D02*
X66405952Y-110352657D01*
X66405952Y-110352657D02*
X66310714Y-110495514D01*
X66310714Y-110495514D02*
X66263095Y-110685990D01*
X66263095Y-110685990D02*
X66263095Y-111066942D01*
X66263095Y-111066942D02*
X66310714Y-111162180D01*
X66310714Y-111162180D02*
X66358333Y-111209800D01*
X66358333Y-111209800D02*
X66453571Y-111257419D01*
X66453571Y-111257419D02*
X66644047Y-111257419D01*
X66644047Y-111257419D02*
X66739285Y-111209800D01*
X66739285Y-111209800D02*
X66786904Y-111162180D01*
X66786904Y-111162180D02*
X66834523Y-111066942D01*
X66834523Y-111066942D02*
X66834523Y-110828847D01*
X66834523Y-110828847D02*
X66786904Y-110733609D01*
X66786904Y-110733609D02*
X66739285Y-110685990D01*
X66739285Y-110685990D02*
X66644047Y-110638371D01*
X66644047Y-110638371D02*
X66453571Y-110638371D01*
X66453571Y-110638371D02*
X66358333Y-110685990D01*
X66358333Y-110685990D02*
X66310714Y-110733609D01*
X66310714Y-110733609D02*
X66263095Y-110828847D01*
X66606667Y-113275000D02*
X66749524Y-113322619D01*
X66749524Y-113322619D02*
X66987619Y-113322619D01*
X66987619Y-113322619D02*
X67082857Y-113275000D01*
X67082857Y-113275000D02*
X67130476Y-113227380D01*
X67130476Y-113227380D02*
X67178095Y-113132142D01*
X67178095Y-113132142D02*
X67178095Y-113036904D01*
X67178095Y-113036904D02*
X67130476Y-112941666D01*
X67130476Y-112941666D02*
X67082857Y-112894047D01*
X67082857Y-112894047D02*
X66987619Y-112846428D01*
X66987619Y-112846428D02*
X66797143Y-112798809D01*
X66797143Y-112798809D02*
X66701905Y-112751190D01*
X66701905Y-112751190D02*
X66654286Y-112703571D01*
X66654286Y-112703571D02*
X66606667Y-112608333D01*
X66606667Y-112608333D02*
X66606667Y-112513095D01*
X66606667Y-112513095D02*
X66654286Y-112417857D01*
X66654286Y-112417857D02*
X66701905Y-112370238D01*
X66701905Y-112370238D02*
X66797143Y-112322619D01*
X66797143Y-112322619D02*
X67035238Y-112322619D01*
X67035238Y-112322619D02*
X67178095Y-112370238D01*
X67511429Y-112322619D02*
X67749524Y-113322619D01*
X67749524Y-113322619D02*
X67940000Y-112608333D01*
X67940000Y-112608333D02*
X68130476Y-113322619D01*
X68130476Y-113322619D02*
X68368572Y-112322619D01*
X69273333Y-113322619D02*
X68701905Y-113322619D01*
X68987619Y-113322619D02*
X68987619Y-112322619D01*
X68987619Y-112322619D02*
X68892381Y-112465476D01*
X68892381Y-112465476D02*
X68797143Y-112560714D01*
X68797143Y-112560714D02*
X68701905Y-112608333D01*
X79688095Y-73462619D02*
X79688095Y-74272142D01*
X79688095Y-74272142D02*
X79735714Y-74367380D01*
X79735714Y-74367380D02*
X79783333Y-74415000D01*
X79783333Y-74415000D02*
X79878571Y-74462619D01*
X79878571Y-74462619D02*
X80069047Y-74462619D01*
X80069047Y-74462619D02*
X80164285Y-74415000D01*
X80164285Y-74415000D02*
X80211904Y-74367380D01*
X80211904Y-74367380D02*
X80259523Y-74272142D01*
X80259523Y-74272142D02*
X80259523Y-73462619D01*
X80640476Y-73462619D02*
X81259523Y-73462619D01*
X81259523Y-73462619D02*
X80926190Y-73843571D01*
X80926190Y-73843571D02*
X81069047Y-73843571D01*
X81069047Y-73843571D02*
X81164285Y-73891190D01*
X81164285Y-73891190D02*
X81211904Y-73938809D01*
X81211904Y-73938809D02*
X81259523Y-74034047D01*
X81259523Y-74034047D02*
X81259523Y-74272142D01*
X81259523Y-74272142D02*
X81211904Y-74367380D01*
X81211904Y-74367380D02*
X81164285Y-74415000D01*
X81164285Y-74415000D02*
X81069047Y-74462619D01*
X81069047Y-74462619D02*
X80783333Y-74462619D01*
X80783333Y-74462619D02*
X80688095Y-74415000D01*
X80688095Y-74415000D02*
X80640476Y-74367380D01*
X75985714Y-98082619D02*
X75985714Y-97082619D01*
X75985714Y-97082619D02*
X76366666Y-97082619D01*
X76366666Y-97082619D02*
X76461904Y-97130238D01*
X76461904Y-97130238D02*
X76509523Y-97177857D01*
X76509523Y-97177857D02*
X76557142Y-97273095D01*
X76557142Y-97273095D02*
X76557142Y-97415952D01*
X76557142Y-97415952D02*
X76509523Y-97511190D01*
X76509523Y-97511190D02*
X76461904Y-97558809D01*
X76461904Y-97558809D02*
X76366666Y-97606428D01*
X76366666Y-97606428D02*
X75985714Y-97606428D01*
X76890476Y-97082619D02*
X77557142Y-97082619D01*
X77557142Y-97082619D02*
X76890476Y-98082619D01*
X76890476Y-98082619D02*
X77557142Y-98082619D01*
X78271428Y-97558809D02*
X78414285Y-97606428D01*
X78414285Y-97606428D02*
X78461904Y-97654047D01*
X78461904Y-97654047D02*
X78509523Y-97749285D01*
X78509523Y-97749285D02*
X78509523Y-97892142D01*
X78509523Y-97892142D02*
X78461904Y-97987380D01*
X78461904Y-97987380D02*
X78414285Y-98035000D01*
X78414285Y-98035000D02*
X78319047Y-98082619D01*
X78319047Y-98082619D02*
X77938095Y-98082619D01*
X77938095Y-98082619D02*
X77938095Y-97082619D01*
X77938095Y-97082619D02*
X78271428Y-97082619D01*
X78271428Y-97082619D02*
X78366666Y-97130238D01*
X78366666Y-97130238D02*
X78414285Y-97177857D01*
X78414285Y-97177857D02*
X78461904Y-97273095D01*
X78461904Y-97273095D02*
X78461904Y-97368333D01*
X78461904Y-97368333D02*
X78414285Y-97463571D01*
X78414285Y-97463571D02*
X78366666Y-97511190D01*
X78366666Y-97511190D02*
X78271428Y-97558809D01*
X78271428Y-97558809D02*
X77938095Y-97558809D01*
X79461904Y-98082619D02*
X78890476Y-98082619D01*
X79176190Y-98082619D02*
X79176190Y-97082619D01*
X79176190Y-97082619D02*
X79080952Y-97225476D01*
X79080952Y-97225476D02*
X78985714Y-97320714D01*
X78985714Y-97320714D02*
X78890476Y-97368333D01*
D14*
X104274180Y-76112095D02*
X103464657Y-76112095D01*
X103464657Y-76112095D02*
X103369419Y-76159714D01*
X103369419Y-76159714D02*
X103321800Y-76207333D01*
X103321800Y-76207333D02*
X103274180Y-76302571D01*
X103274180Y-76302571D02*
X103274180Y-76493047D01*
X103274180Y-76493047D02*
X103321800Y-76588285D01*
X103321800Y-76588285D02*
X103369419Y-76635904D01*
X103369419Y-76635904D02*
X103464657Y-76683523D01*
X103464657Y-76683523D02*
X104274180Y-76683523D01*
X103274180Y-77683523D02*
X103274180Y-77112095D01*
X103274180Y-77397809D02*
X104274180Y-77397809D01*
X104274180Y-77397809D02*
X104131323Y-77302571D01*
X104131323Y-77302571D02*
X104036085Y-77207333D01*
X104036085Y-77207333D02*
X103988466Y-77112095D01*
D12*
X80067261Y-108957857D02*
X79972023Y-108910238D01*
X79972023Y-108910238D02*
X79876785Y-108815000D01*
X79876785Y-108815000D02*
X79733928Y-108672142D01*
X79733928Y-108672142D02*
X79638690Y-108624523D01*
X79638690Y-108624523D02*
X79543452Y-108624523D01*
X79591071Y-108862619D02*
X79495833Y-108815000D01*
X79495833Y-108815000D02*
X79400595Y-108719761D01*
X79400595Y-108719761D02*
X79352976Y-108529285D01*
X79352976Y-108529285D02*
X79352976Y-108195952D01*
X79352976Y-108195952D02*
X79400595Y-108005476D01*
X79400595Y-108005476D02*
X79495833Y-107910238D01*
X79495833Y-107910238D02*
X79591071Y-107862619D01*
X79591071Y-107862619D02*
X79781547Y-107862619D01*
X79781547Y-107862619D02*
X79876785Y-107910238D01*
X79876785Y-107910238D02*
X79972023Y-108005476D01*
X79972023Y-108005476D02*
X80019642Y-108195952D01*
X80019642Y-108195952D02*
X80019642Y-108529285D01*
X80019642Y-108529285D02*
X79972023Y-108719761D01*
X79972023Y-108719761D02*
X79876785Y-108815000D01*
X79876785Y-108815000D02*
X79781547Y-108862619D01*
X79781547Y-108862619D02*
X79591071Y-108862619D01*
X80972023Y-108862619D02*
X80400595Y-108862619D01*
X80686309Y-108862619D02*
X80686309Y-107862619D01*
X80686309Y-107862619D02*
X80591071Y-108005476D01*
X80591071Y-108005476D02*
X80495833Y-108100714D01*
X80495833Y-108100714D02*
X80400595Y-108148333D01*
D14*
X131474180Y-76112095D02*
X130664657Y-76112095D01*
X130664657Y-76112095D02*
X130569419Y-76159714D01*
X130569419Y-76159714D02*
X130521800Y-76207333D01*
X130521800Y-76207333D02*
X130474180Y-76302571D01*
X130474180Y-76302571D02*
X130474180Y-76493047D01*
X130474180Y-76493047D02*
X130521800Y-76588285D01*
X130521800Y-76588285D02*
X130569419Y-76635904D01*
X130569419Y-76635904D02*
X130664657Y-76683523D01*
X130664657Y-76683523D02*
X131474180Y-76683523D01*
X131140847Y-77588285D02*
X130474180Y-77588285D01*
X131521800Y-77350190D02*
X130807514Y-77112095D01*
X130807514Y-77112095D02*
X130807514Y-77731142D01*
D12*
X143938095Y-107012619D02*
X143938095Y-106012619D01*
X143938095Y-106488809D02*
X144509523Y-106488809D01*
X144509523Y-107012619D02*
X144509523Y-106012619D01*
X145461904Y-106012619D02*
X144985714Y-106012619D01*
X144985714Y-106012619D02*
X144938095Y-106488809D01*
X144938095Y-106488809D02*
X144985714Y-106441190D01*
X144985714Y-106441190D02*
X145080952Y-106393571D01*
X145080952Y-106393571D02*
X145319047Y-106393571D01*
X145319047Y-106393571D02*
X145414285Y-106441190D01*
X145414285Y-106441190D02*
X145461904Y-106488809D01*
X145461904Y-106488809D02*
X145509523Y-106584047D01*
X145509523Y-106584047D02*
X145509523Y-106822142D01*
X145509523Y-106822142D02*
X145461904Y-106917380D01*
X145461904Y-106917380D02*
X145414285Y-106965000D01*
X145414285Y-106965000D02*
X145319047Y-107012619D01*
X145319047Y-107012619D02*
X145080952Y-107012619D01*
X145080952Y-107012619D02*
X144985714Y-106965000D01*
X144985714Y-106965000D02*
X144938095Y-106917380D01*
X66266666Y-83562619D02*
X66266666Y-84276904D01*
X66266666Y-84276904D02*
X66219047Y-84419761D01*
X66219047Y-84419761D02*
X66123809Y-84515000D01*
X66123809Y-84515000D02*
X65980952Y-84562619D01*
X65980952Y-84562619D02*
X65885714Y-84562619D01*
X67266666Y-84562619D02*
X66695238Y-84562619D01*
X66980952Y-84562619D02*
X66980952Y-83562619D01*
X66980952Y-83562619D02*
X66885714Y-83705476D01*
X66885714Y-83705476D02*
X66790476Y-83800714D01*
X66790476Y-83800714D02*
X66695238Y-83848333D01*
X69833333Y-78817380D02*
X69785714Y-78865000D01*
X69785714Y-78865000D02*
X69642857Y-78912619D01*
X69642857Y-78912619D02*
X69547619Y-78912619D01*
X69547619Y-78912619D02*
X69404762Y-78865000D01*
X69404762Y-78865000D02*
X69309524Y-78769761D01*
X69309524Y-78769761D02*
X69261905Y-78674523D01*
X69261905Y-78674523D02*
X69214286Y-78484047D01*
X69214286Y-78484047D02*
X69214286Y-78341190D01*
X69214286Y-78341190D02*
X69261905Y-78150714D01*
X69261905Y-78150714D02*
X69309524Y-78055476D01*
X69309524Y-78055476D02*
X69404762Y-77960238D01*
X69404762Y-77960238D02*
X69547619Y-77912619D01*
X69547619Y-77912619D02*
X69642857Y-77912619D01*
X69642857Y-77912619D02*
X69785714Y-77960238D01*
X69785714Y-77960238D02*
X69833333Y-78007857D01*
X70690476Y-78245952D02*
X70690476Y-78912619D01*
X70452381Y-77865000D02*
X70214286Y-78579285D01*
X70214286Y-78579285D02*
X70833333Y-78579285D01*
X84762619Y-103316666D02*
X84286428Y-103649999D01*
X84762619Y-103888094D02*
X83762619Y-103888094D01*
X83762619Y-103888094D02*
X83762619Y-103507142D01*
X83762619Y-103507142D02*
X83810238Y-103411904D01*
X83810238Y-103411904D02*
X83857857Y-103364285D01*
X83857857Y-103364285D02*
X83953095Y-103316666D01*
X83953095Y-103316666D02*
X84095952Y-103316666D01*
X84095952Y-103316666D02*
X84191190Y-103364285D01*
X84191190Y-103364285D02*
X84238809Y-103411904D01*
X84238809Y-103411904D02*
X84286428Y-103507142D01*
X84286428Y-103507142D02*
X84286428Y-103888094D01*
X83762619Y-102983332D02*
X83762619Y-102316666D01*
X83762619Y-102316666D02*
X84762619Y-102745237D01*
X140088095Y-157262619D02*
X140088095Y-156262619D01*
X140088095Y-156738809D02*
X140659523Y-156738809D01*
X140659523Y-157262619D02*
X140659523Y-156262619D01*
X141564285Y-156262619D02*
X141373809Y-156262619D01*
X141373809Y-156262619D02*
X141278571Y-156310238D01*
X141278571Y-156310238D02*
X141230952Y-156357857D01*
X141230952Y-156357857D02*
X141135714Y-156500714D01*
X141135714Y-156500714D02*
X141088095Y-156691190D01*
X141088095Y-156691190D02*
X141088095Y-157072142D01*
X141088095Y-157072142D02*
X141135714Y-157167380D01*
X141135714Y-157167380D02*
X141183333Y-157215000D01*
X141183333Y-157215000D02*
X141278571Y-157262619D01*
X141278571Y-157262619D02*
X141469047Y-157262619D01*
X141469047Y-157262619D02*
X141564285Y-157215000D01*
X141564285Y-157215000D02*
X141611904Y-157167380D01*
X141611904Y-157167380D02*
X141659523Y-157072142D01*
X141659523Y-157072142D02*
X141659523Y-156834047D01*
X141659523Y-156834047D02*
X141611904Y-156738809D01*
X141611904Y-156738809D02*
X141564285Y-156691190D01*
X141564285Y-156691190D02*
X141469047Y-156643571D01*
X141469047Y-156643571D02*
X141278571Y-156643571D01*
X141278571Y-156643571D02*
X141183333Y-156691190D01*
X141183333Y-156691190D02*
X141135714Y-156738809D01*
X141135714Y-156738809D02*
X141088095Y-156834047D01*
D15*
X86130000Y-112700000D02*
X86130000Y-120380000D01*
X83470000Y-111430000D02*
X83470000Y-110100000D01*
X83470000Y-120380000D02*
X86130000Y-120380000D01*
X83470000Y-112700000D02*
X86130000Y-112700000D01*
X83470000Y-110100000D02*
X84800000Y-110100000D01*
X83470000Y-112700000D02*
X83470000Y-120380000D01*
X72976267Y-81550000D02*
X72683733Y-81550000D01*
X72976267Y-80530000D02*
X72683733Y-80530000D01*
X80053733Y-102390000D02*
X80346267Y-102390000D01*
X80053733Y-103410000D02*
X80346267Y-103410000D01*
X87312500Y-105757776D02*
X87312500Y-106267224D01*
X86267500Y-105757776D02*
X86267500Y-106267224D01*
X73915000Y-108405000D02*
X75915000Y-108405000D01*
X73915000Y-108405000D02*
X73915000Y-104395000D01*
X75915000Y-108405000D02*
X75915000Y-104395000D01*
D14*
X52800000Y-82100000D02*
X52800000Y-74700000D01*
X60200000Y-82100000D02*
X52800000Y-82100000D01*
X52800000Y-74700000D02*
X60200000Y-74700000D01*
X60200000Y-74700000D02*
X60200000Y-82100000D01*
D15*
X72552800Y-110210600D02*
X72552800Y-108877100D01*
X72285000Y-109955000D02*
X72285000Y-102135000D01*
X72285000Y-102135000D02*
X59765000Y-102135000D01*
X71409800Y-110210600D02*
X72552800Y-110210600D01*
X67803000Y-107315000D02*
X66279000Y-107315000D01*
X67803000Y-106553000D02*
X66279000Y-105537000D01*
X67803000Y-104775000D02*
X67803000Y-107315000D01*
X67549000Y-108585000D02*
X67041000Y-108585000D01*
X67041000Y-108585000D02*
X67041000Y-107315000D01*
X67041000Y-104775000D02*
X67041000Y-103505000D01*
X67041000Y-103505000D02*
X67549000Y-103505000D01*
X66279000Y-107315000D02*
X66279000Y-104775000D01*
X66279000Y-104775000D02*
X67803000Y-104775000D01*
X59765000Y-109955000D02*
X72285000Y-109955000D01*
X59765000Y-102135000D02*
X59765000Y-109955000D01*
X61540000Y-113590000D02*
X70360000Y-113590000D01*
X61540000Y-113900000D02*
X61540000Y-113590000D01*
X61540000Y-118110000D02*
X61540000Y-117800000D01*
X63450000Y-112890000D02*
X63950000Y-113390000D01*
X63950000Y-113390000D02*
X64450000Y-112890000D01*
X64450000Y-112890000D02*
X63450000Y-112890000D01*
X70360000Y-113590000D02*
X70360000Y-113900000D01*
X70360000Y-118110000D02*
X61540000Y-118110000D01*
X70360000Y-118110000D02*
X70360000Y-117800000D01*
X76350000Y-75090000D02*
X82360000Y-75090000D01*
X78600000Y-81910000D02*
X82360000Y-81910000D01*
X82360000Y-75090000D02*
X82360000Y-76350000D01*
X82360000Y-81910000D02*
X82360000Y-80650000D01*
X84100000Y-91950000D02*
G75*
G03*
X84100000Y-88950001I-6400000J1500000D01*
G01*
X83930000Y-90450000D02*
G75*
G03*
X83930000Y-90450000I-6230000J0D01*
G01*
X80162500Y-107560000D02*
X81837500Y-107560000D01*
X80162500Y-107560000D02*
X79512500Y-107560000D01*
X80162500Y-104440000D02*
X80812500Y-104440000D01*
X80162500Y-104440000D02*
X79512500Y-104440000D01*
X52580000Y-85480000D02*
X52580000Y-94720000D01*
X52580000Y-94720000D02*
X60700000Y-94720000D01*
X66100000Y-94720000D02*
X67320000Y-94720000D01*
X67320000Y-85480000D02*
X52580000Y-85480000D01*
X67320000Y-87150000D02*
X67320000Y-85480000D01*
X67320000Y-94720000D02*
X67320000Y-93050000D01*
X72976267Y-79010000D02*
X72683733Y-79010000D01*
X72976267Y-77990000D02*
X72683733Y-77990000D01*
X83727500Y-106267224D02*
X83727500Y-105757776D01*
X84772500Y-106267224D02*
X84772500Y-105757776D01*
%LPC*%
D16*
X59850000Y-126050000D03*
X59850000Y-151050000D03*
X139850000Y-126050000D03*
X139850000Y-151050000D03*
D17*
X84800000Y-111430000D03*
D18*
X84800000Y-113970000D03*
X84800000Y-116510000D03*
X84800000Y-119050000D03*
D19*
X73692500Y-81040000D03*
X71967500Y-81040000D03*
D20*
X55750000Y-62800000D03*
D21*
X79337500Y-102900000D03*
X81062500Y-102900000D03*
D22*
X86790000Y-105100000D03*
X86790000Y-106925000D03*
D20*
X55700000Y-109800000D03*
D23*
X74915000Y-107695000D03*
X74915000Y-104395000D03*
D20*
X55750000Y-156750000D03*
X144700000Y-62800000D03*
D24*
X56800000Y-80150000D03*
X56800000Y-76650000D03*
D25*
X71105000Y-108585000D03*
D26*
X71105000Y-103505000D03*
X68565000Y-108585000D03*
X68565000Y-103505000D03*
X60945000Y-108585000D03*
X60945000Y-103505000D03*
D27*
X61850000Y-115850000D03*
X70050000Y-115850000D03*
D28*
X63950000Y-115850000D03*
D29*
X65950000Y-115850000D03*
X67950000Y-115850000D03*
D30*
X77300000Y-76200000D03*
X77300000Y-78500000D03*
D31*
X83600000Y-78500000D03*
D30*
X77300000Y-80800000D03*
D32*
X80200000Y-90450000D03*
D33*
X75200000Y-90450000D03*
D34*
X110993000Y-110922200D03*
X91943000Y-110922200D03*
D18*
X91290800Y-69000000D03*
X91290800Y-71540000D03*
X91290800Y-74080000D03*
X91290800Y-76620000D03*
X91290800Y-79160000D03*
X91290800Y-81700000D03*
X91290800Y-84240000D03*
X91290800Y-86780000D03*
X91290800Y-89320000D03*
X91290800Y-91860000D03*
X91290800Y-94400000D03*
X91290800Y-96940000D03*
X91290800Y-99480000D03*
X91290800Y-102020000D03*
X91290800Y-104560000D03*
X91265400Y-107100000D03*
X111610800Y-107100000D03*
X111610800Y-104560000D03*
X111610800Y-102020000D03*
X111610800Y-99480000D03*
X111610800Y-96940000D03*
X111610800Y-94400000D03*
X111610800Y-91860000D03*
X111610800Y-89320000D03*
X111610800Y-86780000D03*
X111610800Y-84240000D03*
X111610800Y-81700000D03*
X111610800Y-79160000D03*
D35*
X92543000Y-65172200D03*
X110343000Y-65172200D03*
D36*
X81100000Y-106950000D03*
X81100000Y-105050000D03*
X79225000Y-106000000D03*
D18*
X118490800Y-69000000D03*
X118490800Y-71540000D03*
X118490800Y-74080000D03*
X118490800Y-76620000D03*
X118490800Y-79160000D03*
X118490800Y-81700000D03*
X118490800Y-84240000D03*
X118490800Y-86780000D03*
X118490800Y-89320000D03*
X118490800Y-91860000D03*
X118490800Y-94400000D03*
X118490800Y-96940000D03*
X118490800Y-99480000D03*
X118490800Y-102020000D03*
X118490800Y-104560000D03*
X118465400Y-107100000D03*
X138810800Y-107100000D03*
X138810800Y-104560000D03*
X138810800Y-102020000D03*
X138810800Y-99480000D03*
X138810800Y-96940000D03*
X138810800Y-94400000D03*
X138810800Y-91860000D03*
X138810800Y-89320000D03*
X138810800Y-86780000D03*
X138810800Y-84240000D03*
X138810800Y-81700000D03*
X138810800Y-79160000D03*
X136795200Y-74847600D03*
X136795200Y-72307600D03*
X130105200Y-66767600D03*
X126605200Y-66767600D03*
X125145200Y-109497600D03*
X128645200Y-109497600D03*
X132145200Y-109497600D03*
D35*
X119760800Y-65190000D03*
X137540800Y-65190000D03*
D37*
X119125800Y-110910000D03*
X138175800Y-110910000D03*
D20*
X144700000Y-109800000D03*
D38*
X66600000Y-90100000D03*
D39*
X60400000Y-90100000D03*
D40*
X63400000Y-94800000D03*
D19*
X73692500Y-78500000D03*
X71967500Y-78500000D03*
D41*
X84250000Y-106925000D03*
X84250000Y-105100000D03*
D20*
X144700000Y-156700000D03*
M02*
