G04 #@! TF.GenerationSoftware,KiCad,Pcbnew,7.0.1*
G04 #@! TF.CreationDate,2023-05-15T21:33:36-05:00*
G04 #@! TF.ProjectId,MiniSSO-Tester,4d696e69-5353-44f2-9d54-65737465722e,1*
G04 #@! TF.SameCoordinates,Original*
G04 #@! TF.FileFunction,Copper,L1,Top*
G04 #@! TF.FilePolarity,Positive*
%FSLAX46Y46*%
G04 Gerber Fmt 4.6, Leading zero omitted, Abs format (unit mm)*
G04 Created by KiCad (PCBNEW 7.0.1) date 2023-05-15 21:33:36*
%MOMM*%
%LPD*%
G01*
G04 APERTURE LIST*
G04 Aperture macros list*
%AMRoundRect*
0 Rectangle with rounded corners*
0 $1 Rounding radius*
0 $2 $3 $4 $5 $6 $7 $8 $9 X,Y pos of 4 corners*
0 Add a 4 corners polygon primitive as box body*
4,1,4,$2,$3,$4,$5,$6,$7,$8,$9,$2,$3,0*
0 Add four circle primitives for the rounded corners*
1,1,$1+$1,$2,$3*
1,1,$1+$1,$4,$5*
1,1,$1+$1,$6,$7*
1,1,$1+$1,$8,$9*
0 Add four rect primitives between the rounded corners*
20,1,$1+$1,$2,$3,$4,$5,0*
20,1,$1+$1,$4,$5,$6,$7,0*
20,1,$1+$1,$6,$7,$8,$9,0*
20,1,$1+$1,$8,$9,$2,$3,0*%
G04 Aperture macros list end*
G04 #@! TA.AperFunction,ComponentPad*
%ADD10R,1.700000X1.700000*%
G04 #@! TD*
G04 #@! TA.AperFunction,ComponentPad*
%ADD11O,1.700000X1.700000*%
G04 #@! TD*
G04 #@! TA.AperFunction,SMDPad,CuDef*
%ADD12RoundRect,0.237500X0.300000X0.237500X-0.300000X0.237500X-0.300000X-0.237500X0.300000X-0.237500X0*%
G04 #@! TD*
G04 #@! TA.AperFunction,SMDPad,CuDef*
%ADD13RoundRect,0.237500X-0.300000X-0.237500X0.300000X-0.237500X0.300000X0.237500X-0.300000X0.237500X0*%
G04 #@! TD*
G04 #@! TA.AperFunction,SMDPad,CuDef*
%ADD14RoundRect,0.237500X-0.237500X0.250000X-0.237500X-0.250000X0.237500X-0.250000X0.237500X0.250000X0*%
G04 #@! TD*
G04 #@! TA.AperFunction,SMDPad,CuDef*
%ADD15RoundRect,0.225000X0.375000X-0.225000X0.375000X0.225000X-0.375000X0.225000X-0.375000X-0.225000X0*%
G04 #@! TD*
G04 #@! TA.AperFunction,ComponentPad*
%ADD16C,1.950000*%
G04 #@! TD*
G04 #@! TA.AperFunction,ComponentPad*
%ADD17R,1.524000X1.524000*%
G04 #@! TD*
G04 #@! TA.AperFunction,ComponentPad*
%ADD18C,1.524000*%
G04 #@! TD*
G04 #@! TA.AperFunction,ComponentPad*
%ADD19O,2.200000X3.500000*%
G04 #@! TD*
G04 #@! TA.AperFunction,ComponentPad*
%ADD20R,1.500000X2.500000*%
G04 #@! TD*
G04 #@! TA.AperFunction,ComponentPad*
%ADD21O,1.500000X2.500000*%
G04 #@! TD*
G04 #@! TA.AperFunction,SMDPad,CuDef*
%ADD22R,2.000000X1.500000*%
G04 #@! TD*
G04 #@! TA.AperFunction,SMDPad,CuDef*
%ADD23R,2.000000X3.800000*%
G04 #@! TD*
G04 #@! TA.AperFunction,ComponentPad*
%ADD24R,2.000000X2.000000*%
G04 #@! TD*
G04 #@! TA.AperFunction,ComponentPad*
%ADD25C,2.000000*%
G04 #@! TD*
G04 #@! TA.AperFunction,ComponentPad*
%ADD26C,4.500000*%
G04 #@! TD*
G04 #@! TA.AperFunction,SMDPad,CuDef*
%ADD27RoundRect,0.150000X0.587500X0.150000X-0.587500X0.150000X-0.587500X-0.150000X0.587500X-0.150000X0*%
G04 #@! TD*
G04 #@! TA.AperFunction,ComponentPad*
%ADD28C,3.810000*%
G04 #@! TD*
G04 #@! TA.AperFunction,ComponentPad*
%ADD29R,2.000000X4.500000*%
G04 #@! TD*
G04 #@! TA.AperFunction,ComponentPad*
%ADD30O,2.000000X4.000000*%
G04 #@! TD*
G04 #@! TA.AperFunction,ComponentPad*
%ADD31O,4.000000X2.000000*%
G04 #@! TD*
G04 #@! TA.AperFunction,SMDPad,CuDef*
%ADD32RoundRect,0.237500X0.237500X-0.250000X0.237500X0.250000X-0.237500X0.250000X-0.237500X-0.250000X0*%
G04 #@! TD*
G04 #@! TA.AperFunction,ViaPad*
%ADD33C,0.900000*%
G04 #@! TD*
G04 #@! TA.AperFunction,Conductor*
%ADD34C,0.350000*%
G04 #@! TD*
G04 #@! TA.AperFunction,Conductor*
%ADD35C,0.450000*%
G04 #@! TD*
G04 #@! TA.AperFunction,Conductor*
%ADD36C,1.000000*%
G04 #@! TD*
G04 #@! TA.AperFunction,Conductor*
%ADD37C,3.000000*%
G04 #@! TD*
G04 APERTURE END LIST*
D10*
X84800000Y-111430000D03*
D11*
X84800000Y-113970000D03*
X84800000Y-116510000D03*
X84800000Y-119050000D03*
D12*
X73692500Y-81040000D03*
X71967500Y-81040000D03*
D13*
X79337500Y-102900000D03*
X81062500Y-102900000D03*
D14*
X86790000Y-105100000D03*
X86790000Y-106925000D03*
D15*
X74915000Y-107695000D03*
X74915000Y-104395000D03*
D16*
X56800000Y-80150000D03*
X56800000Y-76650000D03*
D17*
X71105000Y-108585000D03*
D18*
X71105000Y-103505000D03*
X68565000Y-108585000D03*
X68565000Y-103505000D03*
X60945000Y-108585000D03*
X60945000Y-103505000D03*
D19*
X61850000Y-115850000D03*
X70050000Y-115850000D03*
D20*
X63950000Y-115850000D03*
D21*
X65950000Y-115850000D03*
X67950000Y-115850000D03*
D22*
X77300000Y-76200000D03*
X77300000Y-78500000D03*
D23*
X83600000Y-78500000D03*
D22*
X77300000Y-80800000D03*
D24*
X80200000Y-90450000D03*
D25*
X75200000Y-90450000D03*
D11*
X91290800Y-69000000D03*
X91290800Y-71540000D03*
X91290800Y-74080000D03*
X91290800Y-76620000D03*
X91290800Y-79160000D03*
X91290800Y-81700000D03*
X91290800Y-84240000D03*
X91290800Y-86780000D03*
X91290800Y-89320000D03*
X91290800Y-91860000D03*
X91290800Y-94400000D03*
X91290800Y-96940000D03*
X91290800Y-99480000D03*
X91290800Y-102020000D03*
X91290800Y-104560000D03*
X91265400Y-107100000D03*
X111610800Y-107100000D03*
X111610800Y-104560000D03*
X111610800Y-102020000D03*
X111610800Y-99480000D03*
X111610800Y-96940000D03*
X111610800Y-94400000D03*
X111610800Y-91860000D03*
X111610800Y-89320000D03*
X111610800Y-86780000D03*
X111610800Y-84240000D03*
X111610800Y-81700000D03*
X111610800Y-79160000D03*
D26*
X92543000Y-65172200D03*
X110343000Y-65172200D03*
D27*
X81100000Y-106950000D03*
X81100000Y-105050000D03*
X79225000Y-106000000D03*
D11*
X118490800Y-69000000D03*
X118490800Y-71540000D03*
X118490800Y-74080000D03*
X118490800Y-76620000D03*
X118490800Y-79160000D03*
X118490800Y-81700000D03*
X118490800Y-84240000D03*
X118490800Y-86780000D03*
X118490800Y-89320000D03*
X118490800Y-91860000D03*
X118490800Y-94400000D03*
X118490800Y-96940000D03*
X118490800Y-99480000D03*
X118490800Y-102020000D03*
X118490800Y-104560000D03*
X118465400Y-107100000D03*
X138810800Y-107100000D03*
X138810800Y-104560000D03*
X138810800Y-102020000D03*
X138810800Y-99480000D03*
X138810800Y-96940000D03*
X138810800Y-94400000D03*
X138810800Y-91860000D03*
X138810800Y-89320000D03*
X138810800Y-86780000D03*
X138810800Y-84240000D03*
X138810800Y-81700000D03*
X138810800Y-79160000D03*
X136795200Y-74847600D03*
X136795200Y-72307600D03*
X130105200Y-66767600D03*
X126605200Y-66767600D03*
X125145200Y-109497600D03*
X128645200Y-109497600D03*
X132145200Y-109497600D03*
D26*
X119760800Y-65190000D03*
X137540800Y-65190000D03*
D28*
X119125800Y-110910000D03*
X138175800Y-110910000D03*
D29*
X66600000Y-90100000D03*
D30*
X60400000Y-90100000D03*
D31*
X63400000Y-94800000D03*
D12*
X73692500Y-78500000D03*
X71967500Y-78500000D03*
D32*
X84250000Y-106925000D03*
X84250000Y-105100000D03*
D33*
X88150000Y-103700000D03*
X82900000Y-103550000D03*
X102250000Y-70200000D03*
X96850000Y-70200000D03*
X85150000Y-64300000D03*
X71550000Y-82700000D03*
D34*
X86790000Y-105060000D02*
X88150000Y-103700000D01*
X86790000Y-105100000D02*
X86790000Y-105060000D01*
X84250000Y-104900000D02*
X82900000Y-103550000D01*
X84250000Y-105100000D02*
X84250000Y-104900000D01*
D35*
X131400000Y-106742800D02*
X128645200Y-109497600D01*
X136795200Y-74847600D02*
X131400000Y-84700000D01*
X131400000Y-84700000D02*
X131400000Y-106742800D01*
D34*
X96850000Y-70200000D02*
X102250000Y-70200000D01*
X80200000Y-86600000D02*
X87640000Y-79160000D01*
X80200000Y-90450000D02*
X80200000Y-86600000D01*
X87640000Y-79160000D02*
X91290800Y-79160000D01*
X74668000Y-107448000D02*
X74915000Y-107695000D01*
X67950000Y-115850000D02*
X67950000Y-111740000D01*
X67950000Y-111740000D02*
X71105000Y-108585000D01*
X63950000Y-115850000D02*
X63950000Y-110660000D01*
X63950000Y-110660000D02*
X71105000Y-103505000D01*
D36*
X83600000Y-65850000D02*
X85150000Y-64300000D01*
X83600000Y-78500000D02*
X83600000Y-65850000D01*
X71967500Y-82282500D02*
X71550000Y-82700000D01*
X71967500Y-81040000D02*
X71967500Y-82282500D01*
X71967500Y-78500000D02*
X71967500Y-81040000D01*
X71967500Y-78361675D02*
X71967500Y-78500000D01*
X74129175Y-76200000D02*
X71967500Y-78361675D01*
X77300000Y-76200000D02*
X74129175Y-76200000D01*
X73692500Y-78500000D02*
X77300000Y-78500000D01*
X77300000Y-80800000D02*
X73932500Y-80800000D01*
X73932500Y-80800000D02*
X73692500Y-81040000D01*
X70300000Y-87800000D02*
X68900000Y-87800000D01*
X77300000Y-80800000D02*
X70300000Y-87800000D01*
D34*
X60945000Y-108585000D02*
X60945000Y-103505000D01*
X70470000Y-101600000D02*
X68565000Y-103505000D01*
X73200000Y-101600000D02*
X70470000Y-101600000D01*
X74915000Y-103315000D02*
X73200000Y-101600000D01*
X74915000Y-104395000D02*
X74915000Y-103315000D01*
X76520000Y-106000000D02*
X74915000Y-104395000D01*
X79225000Y-106000000D02*
X76520000Y-106000000D01*
X84250000Y-106925000D02*
X86790000Y-106925000D01*
X84225000Y-106950000D02*
X84250000Y-106925000D01*
X81100000Y-106950000D02*
X84225000Y-106950000D01*
X81100000Y-102937500D02*
X81062500Y-102900000D01*
X81100000Y-105050000D02*
X81100000Y-102937500D01*
X84200000Y-105050000D02*
X84250000Y-105100000D01*
X81100000Y-105050000D02*
X84200000Y-105050000D01*
X91290800Y-76620000D02*
X118490800Y-76620000D01*
D37*
X56800000Y-80300000D02*
X66600000Y-90100000D01*
D36*
X68900000Y-87800000D02*
X66600000Y-90100000D01*
X121287600Y-61450000D02*
X75500000Y-61450000D01*
X126605200Y-66767600D02*
X121287600Y-61450000D01*
D37*
X56800000Y-80150000D02*
X56800000Y-80300000D01*
D36*
X75500000Y-61450000D02*
X56800000Y-80150000D01*
D34*
X91290800Y-74080000D02*
X118490800Y-74080000D01*
X91290800Y-71540000D02*
X118490800Y-71540000D01*
X117265800Y-77935000D02*
X118490800Y-79160000D01*
X91290800Y-79160000D02*
X92515800Y-77935000D01*
X92515800Y-77935000D02*
X117265800Y-77935000D01*
X91290800Y-69000000D02*
X118490800Y-69000000D01*
X92515800Y-80475000D02*
X117265800Y-80475000D01*
X91290800Y-81700000D02*
X92515800Y-80475000D01*
X117265800Y-80475000D02*
X118490800Y-81700000D01*
X92515800Y-83015000D02*
X117265800Y-83015000D01*
X117265800Y-83015000D02*
X118490800Y-84240000D01*
X91290800Y-84240000D02*
X92515800Y-83015000D01*
X91290800Y-86780000D02*
X92515800Y-85555000D01*
X117265800Y-85555000D02*
X118490800Y-86780000D01*
X92515800Y-85555000D02*
X117265800Y-85555000D01*
X92515800Y-88095000D02*
X117265800Y-88095000D01*
X91290800Y-89320000D02*
X92515800Y-88095000D01*
X117265800Y-88095000D02*
X118490800Y-89320000D01*
X92515800Y-90635000D02*
X117265800Y-90635000D01*
X117265800Y-90635000D02*
X118490800Y-91860000D01*
X91290800Y-91860000D02*
X92515800Y-90635000D01*
X117265800Y-93175000D02*
X118490800Y-94400000D01*
X92515800Y-93175000D02*
X117265800Y-93175000D01*
X91290800Y-94400000D02*
X92515800Y-93175000D01*
X91290800Y-96940000D02*
X92605800Y-95625000D01*
X117175800Y-95625000D02*
X118490800Y-96940000D01*
X92605800Y-95625000D02*
X117175800Y-95625000D01*
X91290800Y-99480000D02*
X92605800Y-98165000D01*
X117175800Y-98165000D02*
X118490800Y-99480000D01*
X92605800Y-98165000D02*
X117175800Y-98165000D01*
X117265800Y-100795000D02*
X118490800Y-102020000D01*
X91290800Y-102020000D02*
X92515800Y-100795000D01*
X92515800Y-100795000D02*
X117265800Y-100795000D01*
X117265800Y-103335000D02*
X118490800Y-104560000D01*
X92515800Y-103335000D02*
X117265800Y-103335000D01*
X91290800Y-104560000D02*
X92515800Y-103335000D01*
X117240400Y-105875000D02*
X118465400Y-107100000D01*
X91265400Y-107100000D02*
X92490400Y-105875000D01*
X92490400Y-105875000D02*
X117240400Y-105875000D01*
G04 #@! TA.AperFunction,Conductor*
G36*
X144574278Y-60411739D02*
G01*
X146927941Y-61516520D01*
X146979900Y-61562249D01*
X146999253Y-61628704D01*
X147049194Y-156666693D01*
X147032561Y-156728792D01*
X145785037Y-158887968D01*
X145739623Y-158933348D01*
X145677601Y-158949934D01*
X55584449Y-158899993D01*
X55519250Y-158881426D01*
X53507832Y-157636262D01*
X53464823Y-157591261D01*
X53449100Y-157531030D01*
X53449015Y-157478860D01*
X53447833Y-156749999D01*
X54144551Y-156749999D01*
X54164317Y-157001149D01*
X54223126Y-157246110D01*
X54260065Y-157335288D01*
X54319534Y-157478859D01*
X54451164Y-157693659D01*
X54614776Y-157885224D01*
X54806341Y-158048836D01*
X55021141Y-158180466D01*
X55253889Y-158276873D01*
X55498852Y-158335683D01*
X55687118Y-158350500D01*
X55812879Y-158350500D01*
X55812882Y-158350500D01*
X56001148Y-158335683D01*
X56246111Y-158276873D01*
X56478859Y-158180466D01*
X56693659Y-158048836D01*
X56885224Y-157885224D01*
X57048836Y-157693659D01*
X57180466Y-157478859D01*
X57276873Y-157246111D01*
X57335683Y-157001148D01*
X57355449Y-156750000D01*
X57351514Y-156699999D01*
X143094551Y-156699999D01*
X143114317Y-156951149D01*
X143173126Y-157196110D01*
X143195241Y-157249500D01*
X143269534Y-157428859D01*
X143401164Y-157643659D01*
X143564776Y-157835224D01*
X143756341Y-157998836D01*
X143971141Y-158130466D01*
X144203889Y-158226873D01*
X144448852Y-158285683D01*
X144637118Y-158300500D01*
X144762879Y-158300500D01*
X144762882Y-158300500D01*
X144951148Y-158285683D01*
X145196111Y-158226873D01*
X145428859Y-158130466D01*
X145643659Y-157998836D01*
X145835224Y-157835224D01*
X145998836Y-157643659D01*
X146130466Y-157428859D01*
X146226873Y-157196111D01*
X146285683Y-156951148D01*
X146305449Y-156700000D01*
X146285683Y-156448852D01*
X146226873Y-156203889D01*
X146130466Y-155971141D01*
X145998836Y-155756341D01*
X145835224Y-155564776D01*
X145643659Y-155401164D01*
X145428859Y-155269534D01*
X145312485Y-155221330D01*
X145196110Y-155173126D01*
X144951149Y-155114317D01*
X144904081Y-155110612D01*
X144762882Y-155099500D01*
X144637118Y-155099500D01*
X144524158Y-155108390D01*
X144448850Y-155114317D01*
X144203889Y-155173126D01*
X143971139Y-155269535D01*
X143756342Y-155401163D01*
X143564776Y-155564776D01*
X143401163Y-155756342D01*
X143269535Y-155971139D01*
X143173126Y-156203889D01*
X143114317Y-156448850D01*
X143094551Y-156699999D01*
X57351514Y-156699999D01*
X57335683Y-156498852D01*
X57276873Y-156253889D01*
X57180466Y-156021141D01*
X57048836Y-155806341D01*
X56885224Y-155614776D01*
X56693659Y-155451164D01*
X56478859Y-155319534D01*
X56358148Y-155269534D01*
X56246110Y-155223126D01*
X56001149Y-155164317D01*
X55954081Y-155160612D01*
X55812882Y-155149500D01*
X55687118Y-155149500D01*
X55574158Y-155158390D01*
X55498850Y-155164317D01*
X55253889Y-155223126D01*
X55021139Y-155319535D01*
X54806342Y-155451163D01*
X54614776Y-155614776D01*
X54451163Y-155806342D01*
X54319535Y-156021139D01*
X54223126Y-156253889D01*
X54164317Y-156498850D01*
X54144551Y-156749999D01*
X53447833Y-156749999D01*
X53438700Y-151117764D01*
X57995787Y-151117764D01*
X58025413Y-151387016D01*
X58093928Y-151649087D01*
X58199871Y-151898392D01*
X58340982Y-152129611D01*
X58430253Y-152236881D01*
X58514255Y-152337820D01*
X58715998Y-152518582D01*
X58941910Y-152668044D01*
X59048211Y-152717876D01*
X59187177Y-152783021D01*
X59446562Y-152861058D01*
X59446569Y-152861060D01*
X59714561Y-152900500D01*
X59917631Y-152900500D01*
X59917634Y-152900500D01*
X60120156Y-152885677D01*
X60120156Y-152885676D01*
X60384553Y-152826780D01*
X60637558Y-152730014D01*
X60873777Y-152597441D01*
X61088177Y-152431888D01*
X61276186Y-152236881D01*
X61433799Y-152016579D01*
X61557656Y-151775675D01*
X61645118Y-151519305D01*
X61694319Y-151252933D01*
X61699259Y-151117764D01*
X137995787Y-151117764D01*
X138025413Y-151387016D01*
X138093928Y-151649087D01*
X138199871Y-151898392D01*
X138340982Y-152129611D01*
X138430253Y-152236881D01*
X138514255Y-152337820D01*
X138715998Y-152518582D01*
X138941910Y-152668044D01*
X139048211Y-152717876D01*
X139187177Y-152783021D01*
X139446562Y-152861058D01*
X139446569Y-152861060D01*
X139714561Y-152900500D01*
X139917631Y-152900500D01*
X139917634Y-152900500D01*
X140120156Y-152885677D01*
X140120156Y-152885676D01*
X140384553Y-152826780D01*
X140637558Y-152730014D01*
X140873777Y-152597441D01*
X141088177Y-152431888D01*
X141276186Y-152236881D01*
X141433799Y-152016579D01*
X141557656Y-151775675D01*
X141645118Y-151519305D01*
X141694319Y-151252933D01*
X141704212Y-150982235D01*
X141674586Y-150712982D01*
X141606072Y-150450912D01*
X141500130Y-150201610D01*
X141359018Y-149970390D01*
X141359017Y-149970388D01*
X141185746Y-149762181D01*
X141080758Y-149668112D01*
X140984002Y-149581418D01*
X140758090Y-149431956D01*
X140758086Y-149431954D01*
X140512822Y-149316978D01*
X140253437Y-149238941D01*
X140253431Y-149238940D01*
X139985439Y-149199500D01*
X139782369Y-149199500D01*
X139782366Y-149199500D01*
X139579843Y-149214322D01*
X139315449Y-149273219D01*
X139062441Y-149369986D01*
X138826223Y-149502559D01*
X138611825Y-149668109D01*
X138423813Y-149863120D01*
X138266201Y-150083420D01*
X138142342Y-150324329D01*
X138054881Y-150580695D01*
X138005680Y-150847066D01*
X137995787Y-151117764D01*
X61699259Y-151117764D01*
X61704212Y-150982235D01*
X61674586Y-150712982D01*
X61606072Y-150450912D01*
X61500130Y-150201610D01*
X61359018Y-149970390D01*
X61359017Y-149970388D01*
X61185746Y-149762181D01*
X61080758Y-149668112D01*
X60984002Y-149581418D01*
X60758090Y-149431956D01*
X60758086Y-149431954D01*
X60512822Y-149316978D01*
X60253437Y-149238941D01*
X60253431Y-149238940D01*
X59985439Y-149199500D01*
X59782369Y-149199500D01*
X59782366Y-149199500D01*
X59579843Y-149214322D01*
X59315449Y-149273219D01*
X59062441Y-149369986D01*
X58826223Y-149502559D01*
X58611825Y-149668109D01*
X58423813Y-149863120D01*
X58266201Y-150083420D01*
X58142342Y-150324329D01*
X58054881Y-150580695D01*
X58005680Y-150847066D01*
X57995787Y-151117764D01*
X53438700Y-151117764D01*
X53398159Y-126117764D01*
X57995787Y-126117764D01*
X58025413Y-126387016D01*
X58093928Y-126649087D01*
X58199871Y-126898392D01*
X58340982Y-127129611D01*
X58430253Y-127236881D01*
X58514255Y-127337820D01*
X58715998Y-127518582D01*
X58941910Y-127668044D01*
X59048211Y-127717876D01*
X59187177Y-127783021D01*
X59446562Y-127861058D01*
X59446569Y-127861060D01*
X59714561Y-127900500D01*
X59917631Y-127900500D01*
X59917634Y-127900500D01*
X60120156Y-127885677D01*
X60120155Y-127885677D01*
X60384553Y-127826780D01*
X60637558Y-127730014D01*
X60873777Y-127597441D01*
X61088177Y-127431888D01*
X61276186Y-127236881D01*
X61433799Y-127016579D01*
X61557656Y-126775675D01*
X61645118Y-126519305D01*
X61694319Y-126252933D01*
X61699259Y-126117764D01*
X137995787Y-126117764D01*
X138025413Y-126387016D01*
X138093928Y-126649087D01*
X138199871Y-126898392D01*
X138340982Y-127129611D01*
X138430253Y-127236881D01*
X138514255Y-127337820D01*
X138715998Y-127518582D01*
X138941910Y-127668044D01*
X139048211Y-127717876D01*
X139187177Y-127783021D01*
X139446562Y-127861058D01*
X139446569Y-127861060D01*
X139714561Y-127900500D01*
X139917631Y-127900500D01*
X139917634Y-127900500D01*
X140120156Y-127885677D01*
X140120155Y-127885677D01*
X140384553Y-127826780D01*
X140637558Y-127730014D01*
X140873777Y-127597441D01*
X141088177Y-127431888D01*
X141276186Y-127236881D01*
X141433799Y-127016579D01*
X141557656Y-126775675D01*
X141645118Y-126519305D01*
X141694319Y-126252933D01*
X141704212Y-125982235D01*
X141674586Y-125712982D01*
X141606072Y-125450912D01*
X141500130Y-125201610D01*
X141359018Y-124970390D01*
X141359017Y-124970388D01*
X141185746Y-124762181D01*
X141080758Y-124668112D01*
X140984002Y-124581418D01*
X140758090Y-124431956D01*
X140758086Y-124431954D01*
X140512822Y-124316978D01*
X140253437Y-124238941D01*
X140253431Y-124238940D01*
X139985439Y-124199500D01*
X139782369Y-124199500D01*
X139782366Y-124199500D01*
X139579843Y-124214322D01*
X139315449Y-124273219D01*
X139062441Y-124369986D01*
X138826223Y-124502559D01*
X138611825Y-124668109D01*
X138423813Y-124863120D01*
X138266201Y-125083420D01*
X138142342Y-125324329D01*
X138054881Y-125580695D01*
X138005680Y-125847066D01*
X137995787Y-126117764D01*
X61699259Y-126117764D01*
X61704212Y-125982235D01*
X61674586Y-125712982D01*
X61606072Y-125450912D01*
X61500130Y-125201610D01*
X61359018Y-124970390D01*
X61359017Y-124970388D01*
X61185746Y-124762181D01*
X61080758Y-124668112D01*
X60984002Y-124581418D01*
X60758090Y-124431956D01*
X60758086Y-124431954D01*
X60512822Y-124316978D01*
X60253437Y-124238941D01*
X60253431Y-124238940D01*
X59985439Y-124199500D01*
X59782369Y-124199500D01*
X59782366Y-124199500D01*
X59579843Y-124214322D01*
X59315449Y-124273219D01*
X59062441Y-124369986D01*
X58826223Y-124502559D01*
X58611825Y-124668109D01*
X58423813Y-124863120D01*
X58266201Y-125083420D01*
X58142342Y-125324329D01*
X58054881Y-125580695D01*
X58005680Y-125847066D01*
X57995787Y-126117764D01*
X53398159Y-126117764D01*
X53386698Y-119049999D01*
X83444340Y-119049999D01*
X83464936Y-119285407D01*
X83509709Y-119452502D01*
X83526097Y-119513663D01*
X83625965Y-119727830D01*
X83761505Y-119921401D01*
X83928599Y-120088495D01*
X84122170Y-120224035D01*
X84336337Y-120323903D01*
X84564592Y-120385063D01*
X84800000Y-120405659D01*
X85035408Y-120385063D01*
X85263663Y-120323903D01*
X85477830Y-120224035D01*
X85671401Y-120088495D01*
X85838495Y-119921401D01*
X85974035Y-119727830D01*
X86073903Y-119513663D01*
X86135063Y-119285408D01*
X86155659Y-119050000D01*
X86135063Y-118814592D01*
X86073903Y-118586337D01*
X85974035Y-118372171D01*
X85838495Y-118178599D01*
X85671401Y-118011505D01*
X85485839Y-117881573D01*
X85446975Y-117837257D01*
X85432964Y-117780000D01*
X85446975Y-117722743D01*
X85485839Y-117678426D01*
X85671401Y-117548495D01*
X85838495Y-117381401D01*
X85974035Y-117187830D01*
X86073903Y-116973663D01*
X86135063Y-116745408D01*
X86155659Y-116510000D01*
X86135063Y-116274592D01*
X86073903Y-116046337D01*
X85974035Y-115832171D01*
X85838495Y-115638599D01*
X85671401Y-115471505D01*
X85485839Y-115341573D01*
X85446975Y-115297257D01*
X85432964Y-115240000D01*
X85446975Y-115182743D01*
X85485839Y-115138426D01*
X85671401Y-115008495D01*
X85838495Y-114841401D01*
X85974035Y-114647830D01*
X86073903Y-114433663D01*
X86135063Y-114205408D01*
X86155659Y-113970000D01*
X86149636Y-113901164D01*
X86135063Y-113734592D01*
X86118593Y-113673126D01*
X86073903Y-113506337D01*
X85974035Y-113292171D01*
X85838495Y-113098599D01*
X85716181Y-112976285D01*
X85684885Y-112923539D01*
X85682696Y-112862246D01*
X85710149Y-112807401D01*
X85760528Y-112772422D01*
X85892089Y-112723352D01*
X86007188Y-112637188D01*
X86093352Y-112522089D01*
X86143597Y-112387375D01*
X86150000Y-112327824D01*
X86150000Y-111680000D01*
X83450000Y-111680000D01*
X83450000Y-112327824D01*
X83456402Y-112387375D01*
X83506647Y-112522089D01*
X83592811Y-112637188D01*
X83707911Y-112723352D01*
X83839471Y-112772422D01*
X83889850Y-112807401D01*
X83917303Y-112862246D01*
X83915114Y-112923539D01*
X83883819Y-112976285D01*
X83761503Y-113098601D01*
X83625965Y-113292170D01*
X83526097Y-113506336D01*
X83464936Y-113734592D01*
X83444340Y-113969999D01*
X83464936Y-114205407D01*
X83505735Y-114357669D01*
X83526097Y-114433663D01*
X83625965Y-114647830D01*
X83761505Y-114841401D01*
X83928599Y-115008495D01*
X84114160Y-115138426D01*
X84153024Y-115182743D01*
X84167035Y-115240000D01*
X84153024Y-115297257D01*
X84114159Y-115341575D01*
X83928595Y-115471508D01*
X83761505Y-115638598D01*
X83625965Y-115832170D01*
X83526097Y-116046336D01*
X83464936Y-116274592D01*
X83444340Y-116510000D01*
X83464936Y-116745407D01*
X83466475Y-116751149D01*
X83526097Y-116973663D01*
X83625965Y-117187830D01*
X83761505Y-117381401D01*
X83928599Y-117548495D01*
X84114160Y-117678426D01*
X84153024Y-117722743D01*
X84167035Y-117780000D01*
X84153024Y-117837257D01*
X84114159Y-117881575D01*
X83928595Y-118011508D01*
X83761505Y-118178598D01*
X83625965Y-118372170D01*
X83526097Y-118586336D01*
X83464936Y-118814592D01*
X83444340Y-119049999D01*
X53386698Y-119049999D01*
X53382665Y-116562879D01*
X60249500Y-116562879D01*
X60264317Y-116751149D01*
X60323126Y-116996110D01*
X60367731Y-117103795D01*
X60419534Y-117228859D01*
X60551164Y-117443659D01*
X60714776Y-117635224D01*
X60906341Y-117798836D01*
X61121141Y-117930466D01*
X61353889Y-118026873D01*
X61598852Y-118085683D01*
X61850000Y-118105449D01*
X62101148Y-118085683D01*
X62346111Y-118026873D01*
X62578859Y-117930466D01*
X62793659Y-117798836D01*
X62839029Y-117760085D01*
X62992646Y-117628886D01*
X62993502Y-117629889D01*
X63032403Y-117602044D01*
X63091476Y-117593979D01*
X63092516Y-117594090D01*
X63092517Y-117594091D01*
X63152127Y-117600500D01*
X64747872Y-117600499D01*
X64807483Y-117594091D01*
X64942331Y-117543796D01*
X65057546Y-117457546D01*
X65086850Y-117418400D01*
X65135063Y-117379710D01*
X65195969Y-117369105D01*
X65254426Y-117389226D01*
X65355032Y-117455635D01*
X65562012Y-117544103D01*
X65781463Y-117594191D01*
X65986998Y-117603421D01*
X66006328Y-117604290D01*
X66006328Y-117604289D01*
X66006330Y-117604290D01*
X66229387Y-117574075D01*
X66443464Y-117504517D01*
X66641681Y-117397852D01*
X66817666Y-117257508D01*
X66856125Y-117213487D01*
X66911185Y-117177142D01*
X66977096Y-117174182D01*
X67035195Y-117205446D01*
X67167175Y-117331632D01*
X67355032Y-117455635D01*
X67562012Y-117544103D01*
X67781463Y-117594191D01*
X67986998Y-117603421D01*
X68006328Y-117604290D01*
X68006328Y-117604289D01*
X68006330Y-117604290D01*
X68229387Y-117574075D01*
X68443464Y-117504517D01*
X68601804Y-117419310D01*
X68655459Y-117404611D01*
X68710145Y-117414852D01*
X68754849Y-117447974D01*
X68802169Y-117503379D01*
X68914776Y-117635224D01*
X69106341Y-117798836D01*
X69321141Y-117930466D01*
X69553889Y-118026873D01*
X69798852Y-118085683D01*
X70050000Y-118105449D01*
X70301148Y-118085683D01*
X70546111Y-118026873D01*
X70778859Y-117930466D01*
X70993659Y-117798836D01*
X71185224Y-117635224D01*
X71348836Y-117443659D01*
X71480466Y-117228859D01*
X71576873Y-116996111D01*
X71635683Y-116751148D01*
X71650500Y-116562882D01*
X71650500Y-115137118D01*
X71635683Y-114948852D01*
X71576873Y-114703889D01*
X71480466Y-114471141D01*
X71348836Y-114256341D01*
X71185224Y-114064776D01*
X70993659Y-113901164D01*
X70778859Y-113769534D01*
X70662484Y-113721330D01*
X70546110Y-113673126D01*
X70301149Y-113614317D01*
X70050000Y-113594551D01*
X69798850Y-113614317D01*
X69553889Y-113673126D01*
X69321139Y-113769535D01*
X69106342Y-113901163D01*
X68914776Y-114064776D01*
X68843790Y-114147890D01*
X68795147Y-114182650D01*
X68735893Y-114190609D01*
X68679801Y-114169916D01*
X68639913Y-114125381D01*
X68625500Y-114067358D01*
X68625500Y-112071163D01*
X68634939Y-112023710D01*
X68661819Y-111983482D01*
X69465301Y-111180000D01*
X83450000Y-111180000D01*
X84550000Y-111180000D01*
X84550000Y-110080000D01*
X85050000Y-110080000D01*
X85050000Y-111180000D01*
X86150000Y-111180000D01*
X86150000Y-110862847D01*
X90545722Y-110862847D01*
X90555789Y-111099836D01*
X90555790Y-111099839D01*
X90605764Y-111331724D01*
X90605765Y-111331726D01*
X90688476Y-111537562D01*
X90694209Y-111551827D01*
X90784773Y-111698912D01*
X90818580Y-111753818D01*
X90975298Y-111931884D01*
X91159850Y-112080900D01*
X91366940Y-112196588D01*
X91590601Y-112275612D01*
X91824394Y-112315700D01*
X91824396Y-112315700D01*
X92002191Y-112315700D01*
X92002195Y-112315700D01*
X92120299Y-112305647D01*
X92179354Y-112300621D01*
X92332390Y-112260773D01*
X92408910Y-112240850D01*
X92516984Y-112191996D01*
X92625060Y-112143143D01*
X92821590Y-112010313D01*
X92992844Y-111846179D01*
X93133896Y-111655464D01*
X93240688Y-111443654D01*
X93310148Y-111216843D01*
X93340278Y-110981556D01*
X93335235Y-110862847D01*
X109595722Y-110862847D01*
X109605789Y-111099836D01*
X109605790Y-111099839D01*
X109655764Y-111331724D01*
X109655765Y-111331726D01*
X109738476Y-111537562D01*
X109744209Y-111551827D01*
X109834773Y-111698912D01*
X109868580Y-111753818D01*
X110025298Y-111931884D01*
X110209850Y-112080900D01*
X110416940Y-112196588D01*
X110640601Y-112275612D01*
X110874394Y-112315700D01*
X110874396Y-112315700D01*
X111052191Y-112315700D01*
X111052195Y-112315700D01*
X111170299Y-112305647D01*
X111229354Y-112300621D01*
X111382390Y-112260773D01*
X111458910Y-112240850D01*
X111566984Y-112191996D01*
X111675060Y-112143143D01*
X111871590Y-112010313D01*
X112042844Y-111846179D01*
X112183896Y-111655464D01*
X112290688Y-111443654D01*
X112360148Y-111216843D01*
X112390278Y-110981556D01*
X112380210Y-110744561D01*
X112330236Y-110512676D01*
X112241791Y-110292573D01*
X112117421Y-110090583D01*
X111960703Y-109912517D01*
X111960701Y-109912515D01*
X111776149Y-109763499D01*
X111569059Y-109647811D01*
X111345398Y-109568787D01*
X111111606Y-109528700D01*
X111111604Y-109528700D01*
X110933809Y-109528700D01*
X110933805Y-109528700D01*
X110756647Y-109543778D01*
X110527089Y-109603549D01*
X110310940Y-109701256D01*
X110114410Y-109834086D01*
X109943155Y-109998220D01*
X109802104Y-110188935D01*
X109695312Y-110400745D01*
X109625852Y-110627556D01*
X109619564Y-110676664D01*
X109596950Y-110853259D01*
X109595722Y-110862847D01*
X93335235Y-110862847D01*
X93330210Y-110744561D01*
X93280236Y-110512676D01*
X93191791Y-110292573D01*
X93067421Y-110090583D01*
X92910703Y-109912517D01*
X92910701Y-109912515D01*
X92726149Y-109763499D01*
X92519059Y-109647811D01*
X92295398Y-109568787D01*
X92061606Y-109528700D01*
X92061604Y-109528700D01*
X91883809Y-109528700D01*
X91883805Y-109528700D01*
X91706647Y-109543778D01*
X91477089Y-109603549D01*
X91260940Y-109701256D01*
X91064410Y-109834086D01*
X90893155Y-109998220D01*
X90752104Y-110188935D01*
X90645312Y-110400745D01*
X90575852Y-110627556D01*
X90569564Y-110676664D01*
X90546950Y-110853259D01*
X90545722Y-110862847D01*
X86150000Y-110862847D01*
X86150000Y-110532176D01*
X86143597Y-110472624D01*
X86093352Y-110337910D01*
X86007188Y-110222811D01*
X85892089Y-110136647D01*
X85757375Y-110086402D01*
X85697824Y-110080000D01*
X85050000Y-110080000D01*
X84550000Y-110080000D01*
X83902176Y-110080000D01*
X83842624Y-110086402D01*
X83707910Y-110136647D01*
X83592811Y-110222811D01*
X83506647Y-110337910D01*
X83456402Y-110472624D01*
X83450000Y-110532176D01*
X83450000Y-111180000D01*
X69465301Y-111180000D01*
X70761482Y-109883818D01*
X70801710Y-109856938D01*
X70849163Y-109847499D01*
X71914870Y-109847499D01*
X71914872Y-109847499D01*
X71974483Y-109841091D01*
X72109331Y-109790796D01*
X72224546Y-109704546D01*
X72310796Y-109589331D01*
X72361091Y-109454483D01*
X72367500Y-109394873D01*
X72367499Y-107945000D01*
X73815001Y-107945000D01*
X73815001Y-107968315D01*
X73825143Y-108067605D01*
X73878453Y-108228486D01*
X73967426Y-108372732D01*
X74087267Y-108492573D01*
X74231513Y-108581546D01*
X74392393Y-108634856D01*
X74491685Y-108645000D01*
X74665000Y-108645000D01*
X74665000Y-107945000D01*
X75165000Y-107945000D01*
X75165000Y-108644999D01*
X75338315Y-108644999D01*
X75437605Y-108634856D01*
X75598486Y-108581546D01*
X75742732Y-108492573D01*
X75862573Y-108372732D01*
X75951546Y-108228486D01*
X76004856Y-108067606D01*
X76015000Y-107968315D01*
X76015000Y-107945000D01*
X75165000Y-107945000D01*
X74665000Y-107945000D01*
X73815001Y-107945000D01*
X72367499Y-107945000D01*
X72367499Y-107775128D01*
X72361091Y-107715517D01*
X72310796Y-107580669D01*
X72224546Y-107465454D01*
X72197223Y-107445000D01*
X73815000Y-107445000D01*
X74665000Y-107445000D01*
X74665000Y-106745001D01*
X74491685Y-106745001D01*
X74392394Y-106755143D01*
X74231513Y-106808453D01*
X74087267Y-106897426D01*
X73967426Y-107017267D01*
X73878453Y-107161513D01*
X73825143Y-107322393D01*
X73815000Y-107421685D01*
X73815000Y-107445000D01*
X72197223Y-107445000D01*
X72109331Y-107379204D01*
X71974483Y-107328909D01*
X71914873Y-107322500D01*
X71914869Y-107322500D01*
X70295130Y-107322500D01*
X70235515Y-107328909D01*
X70100669Y-107379204D01*
X69985454Y-107465454D01*
X69899204Y-107580668D01*
X69848909Y-107715515D01*
X69848909Y-107715517D01*
X69843011Y-107770380D01*
X69842500Y-107775131D01*
X69842500Y-107815952D01*
X69826953Y-107876068D01*
X69784210Y-107921110D01*
X69724989Y-107939782D01*
X69664142Y-107927402D01*
X69616925Y-107887075D01*
X69616740Y-107886811D01*
X68565000Y-108938553D01*
X67866812Y-109636740D01*
X67931593Y-109682101D01*
X68131718Y-109775420D01*
X68345021Y-109832575D01*
X68564997Y-109851821D01*
X68573959Y-109851037D01*
X68633218Y-109860422D01*
X68681134Y-109896528D01*
X68706491Y-109950904D01*
X68703351Y-110010819D01*
X68672450Y-110062246D01*
X67489424Y-111245273D01*
X67483972Y-111250406D01*
X67440668Y-111288770D01*
X67407800Y-111336387D01*
X67403363Y-111342417D01*
X67367673Y-111387973D01*
X67363824Y-111396524D01*
X67352807Y-111416058D01*
X67347481Y-111423775D01*
X67326965Y-111477868D01*
X67324102Y-111484782D01*
X67300349Y-111537562D01*
X67298661Y-111546776D01*
X67292638Y-111568383D01*
X67289310Y-111577157D01*
X67282333Y-111634612D01*
X67281207Y-111642011D01*
X67270780Y-111698912D01*
X67274274Y-111756664D01*
X67274500Y-111764151D01*
X67274500Y-114229529D01*
X67262220Y-114283330D01*
X67227813Y-114326476D01*
X67082334Y-114442491D01*
X67043875Y-114486511D01*
X66988812Y-114522856D01*
X66922902Y-114525816D01*
X66864803Y-114494552D01*
X66840315Y-114471139D01*
X66732825Y-114368368D01*
X66732822Y-114368366D01*
X66732821Y-114368365D01*
X66544968Y-114244365D01*
X66337987Y-114155896D01*
X66118537Y-114105809D01*
X65893671Y-114095709D01*
X65670611Y-114125925D01*
X65456535Y-114195483D01*
X65248491Y-114307436D01*
X65247672Y-114305914D01*
X65200445Y-114326227D01*
X65135574Y-114317906D01*
X65083960Y-114277739D01*
X65067942Y-114256342D01*
X65057546Y-114242454D01*
X65040280Y-114229529D01*
X64942331Y-114156204D01*
X64807483Y-114105909D01*
X64806553Y-114105809D01*
X64747873Y-114099500D01*
X64747869Y-114099500D01*
X64741265Y-114098790D01*
X64741421Y-114097335D01*
X64687500Y-114082887D01*
X64642113Y-114037500D01*
X64625500Y-113975500D01*
X64625500Y-110991163D01*
X64634939Y-110943710D01*
X64661819Y-110903482D01*
X65052628Y-110512673D01*
X67087759Y-108477541D01*
X67139179Y-108446645D01*
X67199092Y-108443504D01*
X67253467Y-108468858D01*
X67289575Y-108516771D01*
X67298963Y-108576027D01*
X67298178Y-108584999D01*
X67317424Y-108804978D01*
X67374579Y-109018281D01*
X67467898Y-109218406D01*
X67513258Y-109283187D01*
X68565000Y-108231447D01*
X69263187Y-107533258D01*
X69198406Y-107487898D01*
X68998281Y-107394579D01*
X68784978Y-107337424D01*
X68564999Y-107318178D01*
X68556033Y-107318963D01*
X68496775Y-107309578D01*
X68448860Y-107273471D01*
X68423504Y-107219095D01*
X68426644Y-107159181D01*
X68457542Y-107107757D01*
X68820299Y-106745000D01*
X75165000Y-106745000D01*
X75165000Y-107445000D01*
X76014999Y-107445000D01*
X76014999Y-107421685D01*
X76004856Y-107322394D01*
X75951546Y-107161513D01*
X75862573Y-107017267D01*
X75742732Y-106897426D01*
X75598486Y-106808453D01*
X75437606Y-106755143D01*
X75338315Y-106745000D01*
X75165000Y-106745000D01*
X68820299Y-106745000D01*
X70777193Y-104788106D01*
X70822461Y-104759267D01*
X70875679Y-104752261D01*
X71105000Y-104772323D01*
X71325068Y-104753070D01*
X71538450Y-104695894D01*
X71738662Y-104602534D01*
X71919620Y-104475826D01*
X72075826Y-104319620D01*
X72202534Y-104138662D01*
X72295894Y-103938450D01*
X72353070Y-103725068D01*
X72372323Y-103505000D01*
X72353070Y-103284932D01*
X72295894Y-103071550D01*
X72202534Y-102871339D01*
X72075826Y-102690380D01*
X71919620Y-102534174D01*
X71872348Y-102501073D01*
X71832022Y-102453858D01*
X71819642Y-102393011D01*
X71838314Y-102333790D01*
X71883356Y-102291047D01*
X71943472Y-102275500D01*
X72868837Y-102275500D01*
X72916290Y-102284939D01*
X72956518Y-102311819D01*
X74076661Y-103431963D01*
X74108755Y-103487550D01*
X74108755Y-103551737D01*
X74076662Y-103607325D01*
X73967029Y-103716958D01*
X73877997Y-103861300D01*
X73824650Y-104022292D01*
X73814500Y-104121655D01*
X73814500Y-104668344D01*
X73824650Y-104767707D01*
X73877997Y-104928699D01*
X73967031Y-105073044D01*
X74086955Y-105192968D01*
X74231300Y-105282002D01*
X74231302Y-105282002D01*
X74231303Y-105282003D01*
X74392292Y-105335349D01*
X74491655Y-105345500D01*
X74858836Y-105345499D01*
X74906289Y-105354938D01*
X74946517Y-105381818D01*
X76025271Y-106460572D01*
X76030406Y-106466027D01*
X76068770Y-106509332D01*
X76116389Y-106542200D01*
X76122422Y-106546639D01*
X76167972Y-106582326D01*
X76176523Y-106586174D01*
X76196059Y-106597193D01*
X76203774Y-106602518D01*
X76257883Y-106623039D01*
X76264798Y-106625903D01*
X76317561Y-106649650D01*
X76326768Y-106651337D01*
X76348388Y-106657364D01*
X76357151Y-106660687D01*
X76357153Y-106660687D01*
X76357155Y-106660688D01*
X76414617Y-106667665D01*
X76421982Y-106668785D01*
X76478915Y-106679219D01*
X76536664Y-106675726D01*
X76544151Y-106675500D01*
X78214258Y-106675500D01*
X78277378Y-106692767D01*
X78365700Y-106745001D01*
X78377102Y-106751744D01*
X78534927Y-106797597D01*
X78534931Y-106797598D01*
X78571806Y-106800500D01*
X79738000Y-106800500D01*
X79800000Y-106817113D01*
X79845387Y-106862500D01*
X79862000Y-106924500D01*
X79862000Y-107165692D01*
X79864902Y-107202572D01*
X79910755Y-107360397D01*
X79947001Y-107421685D01*
X79994419Y-107501865D01*
X80110635Y-107618081D01*
X80252102Y-107701744D01*
X80409927Y-107747597D01*
X80409931Y-107747598D01*
X80446806Y-107750500D01*
X81753192Y-107750500D01*
X81753194Y-107750500D01*
X81790069Y-107747598D01*
X81947898Y-107701744D01*
X82047621Y-107642767D01*
X82110742Y-107625500D01*
X83367947Y-107625500D01*
X83415400Y-107634939D01*
X83455628Y-107661819D01*
X83551647Y-107757838D01*
X83551649Y-107757839D01*
X83551650Y-107757840D01*
X83698483Y-107848407D01*
X83698484Y-107848408D01*
X83862246Y-107902674D01*
X83871614Y-107903631D01*
X83963323Y-107913000D01*
X84536676Y-107912999D01*
X84637753Y-107902674D01*
X84801516Y-107848408D01*
X84948350Y-107757840D01*
X85004446Y-107701744D01*
X85069372Y-107636819D01*
X85109600Y-107609939D01*
X85157053Y-107600500D01*
X85882947Y-107600500D01*
X85930400Y-107609939D01*
X85970628Y-107636819D01*
X86091647Y-107757838D01*
X86091649Y-107757839D01*
X86091650Y-107757840D01*
X86238483Y-107848407D01*
X86238484Y-107848408D01*
X86402246Y-107902674D01*
X86411614Y-107903631D01*
X86503323Y-107913000D01*
X87076676Y-107912999D01*
X87177753Y-107902674D01*
X87341516Y-107848408D01*
X87488350Y-107757840D01*
X87610340Y-107635850D01*
X87700908Y-107489016D01*
X87755174Y-107325253D01*
X87765500Y-107224177D01*
X87765499Y-106625824D01*
X87755174Y-106524747D01*
X87700908Y-106360984D01*
X87610340Y-106214150D01*
X87610339Y-106214149D01*
X87610338Y-106214147D01*
X87496371Y-106100180D01*
X87464277Y-106044592D01*
X87464277Y-105980405D01*
X87496368Y-105924821D01*
X87610340Y-105810850D01*
X87700908Y-105664016D01*
X87755174Y-105500253D01*
X87765500Y-105399177D01*
X87765499Y-105091161D01*
X87774938Y-105043709D01*
X87801815Y-105003484D01*
X88118853Y-104686446D01*
X88153515Y-104662035D01*
X88194375Y-104650727D01*
X88336331Y-104636747D01*
X88515501Y-104582396D01*
X88680625Y-104494136D01*
X88825357Y-104375357D01*
X88944136Y-104230625D01*
X89032396Y-104065501D01*
X89086747Y-103886331D01*
X89105099Y-103700000D01*
X89086747Y-103513669D01*
X89032396Y-103334499D01*
X88944136Y-103169375D01*
X88825357Y-103024643D01*
X88706576Y-102927162D01*
X88680624Y-102905863D01*
X88515500Y-102817603D01*
X88336332Y-102763253D01*
X88150000Y-102744901D01*
X87963667Y-102763253D01*
X87784499Y-102817603D01*
X87619375Y-102905863D01*
X87474643Y-103024643D01*
X87355863Y-103169375D01*
X87267603Y-103334499D01*
X87213253Y-103513667D01*
X87199271Y-103655622D01*
X87187963Y-103696484D01*
X87163549Y-103731148D01*
X86819016Y-104075681D01*
X86778788Y-104102561D01*
X86731336Y-104112000D01*
X86503323Y-104112000D01*
X86402247Y-104122325D01*
X86238484Y-104176591D01*
X86091647Y-104267161D01*
X85969661Y-104389147D01*
X85879091Y-104535984D01*
X85824825Y-104699746D01*
X85814500Y-104800823D01*
X85814500Y-105399176D01*
X85824825Y-105500252D01*
X85879091Y-105664015D01*
X85940670Y-105763850D01*
X85969660Y-105810850D01*
X86083629Y-105924819D01*
X86115722Y-105980405D01*
X86115722Y-106044592D01*
X86083629Y-106100180D01*
X85970629Y-106213181D01*
X85930400Y-106240061D01*
X85882947Y-106249500D01*
X85157053Y-106249500D01*
X85109600Y-106240061D01*
X85069372Y-106213181D01*
X84956371Y-106100180D01*
X84924277Y-106044592D01*
X84924277Y-105980405D01*
X84956368Y-105924821D01*
X85070340Y-105810850D01*
X85160908Y-105664016D01*
X85215174Y-105500253D01*
X85225500Y-105399177D01*
X85225499Y-104800824D01*
X85225152Y-104797431D01*
X85215174Y-104699747D01*
X85160908Y-104535984D01*
X85070340Y-104389150D01*
X85070339Y-104389149D01*
X85070338Y-104389147D01*
X84948352Y-104267161D01*
X84801515Y-104176591D01*
X84637753Y-104122325D01*
X84536677Y-104112000D01*
X84468663Y-104112000D01*
X84421210Y-104102561D01*
X84380982Y-104075681D01*
X83886449Y-103581148D01*
X83862035Y-103546483D01*
X83850727Y-103505620D01*
X83849599Y-103494165D01*
X83836747Y-103363669D01*
X83782396Y-103184499D01*
X83694136Y-103019375D01*
X83575357Y-102874643D01*
X83456577Y-102777162D01*
X83430624Y-102755863D01*
X83265500Y-102667603D01*
X83086332Y-102613253D01*
X82973367Y-102602127D01*
X82900000Y-102594901D01*
X82899999Y-102594901D01*
X82713667Y-102613253D01*
X82534499Y-102667603D01*
X82369378Y-102755861D01*
X82352876Y-102769403D01*
X82303160Y-102810204D01*
X82239679Y-102837417D01*
X82171483Y-102826445D01*
X82119737Y-102780690D01*
X82100499Y-102714350D01*
X82100499Y-102613323D01*
X82090174Y-102512247D01*
X82035908Y-102348484D01*
X82005752Y-102299594D01*
X81945340Y-102201650D01*
X81945339Y-102201649D01*
X81945338Y-102201647D01*
X81823352Y-102079661D01*
X81676515Y-101989091D01*
X81512753Y-101934825D01*
X81416571Y-101925000D01*
X81411676Y-101924500D01*
X80713323Y-101924500D01*
X80612247Y-101934825D01*
X80448485Y-101989091D01*
X80301648Y-102079661D01*
X80287324Y-102093985D01*
X80231736Y-102126076D01*
X80167551Y-102126074D01*
X80111965Y-102093981D01*
X80098040Y-102080056D01*
X79951301Y-101989546D01*
X79787651Y-101935318D01*
X79686647Y-101925000D01*
X79587500Y-101925000D01*
X79587500Y-103874999D01*
X79686647Y-103874999D01*
X79787650Y-103864681D01*
X79951304Y-103810452D01*
X80098036Y-103719945D01*
X80111963Y-103706019D01*
X80167552Y-103673923D01*
X80231740Y-103673923D01*
X80287328Y-103706018D01*
X80301650Y-103720340D01*
X80365597Y-103759783D01*
X80408777Y-103804890D01*
X80424500Y-103865322D01*
X80424500Y-104155068D01*
X80413245Y-104206687D01*
X80381524Y-104248935D01*
X80335095Y-104274144D01*
X80252102Y-104298255D01*
X80110634Y-104381919D01*
X79994419Y-104498134D01*
X79910755Y-104639602D01*
X79864902Y-104797427D01*
X79862000Y-104834308D01*
X79862000Y-105075500D01*
X79845387Y-105137500D01*
X79800000Y-105182887D01*
X79738000Y-105199500D01*
X78571806Y-105199500D01*
X78559514Y-105200467D01*
X78534927Y-105202402D01*
X78377102Y-105248255D01*
X78277379Y-105307232D01*
X78214258Y-105324500D01*
X76851163Y-105324500D01*
X76803710Y-105315061D01*
X76763482Y-105288181D01*
X76051818Y-104576517D01*
X76024938Y-104536289D01*
X76015499Y-104488836D01*
X76015499Y-104121655D01*
X76005349Y-104022292D01*
X75952002Y-103861300D01*
X75862968Y-103716955D01*
X75743043Y-103597030D01*
X75649403Y-103539272D01*
X75606222Y-103494165D01*
X75590500Y-103433734D01*
X75590500Y-103339151D01*
X75590726Y-103331665D01*
X75590823Y-103330059D01*
X75594219Y-103273915D01*
X75583785Y-103216982D01*
X75582663Y-103209603D01*
X75580092Y-103188425D01*
X75575688Y-103152155D01*
X75575687Y-103152153D01*
X75575687Y-103152151D01*
X75574871Y-103150000D01*
X78300001Y-103150000D01*
X78300001Y-103186647D01*
X78310318Y-103287650D01*
X78364546Y-103451301D01*
X78455056Y-103598040D01*
X78576959Y-103719943D01*
X78723698Y-103810453D01*
X78887348Y-103864681D01*
X78988353Y-103875000D01*
X79087500Y-103875000D01*
X79087500Y-103150000D01*
X78300001Y-103150000D01*
X75574871Y-103150000D01*
X75572364Y-103143388D01*
X75566337Y-103121768D01*
X75564650Y-103112561D01*
X75540903Y-103059798D01*
X75538039Y-103052883D01*
X75517518Y-102998774D01*
X75512193Y-102991059D01*
X75501174Y-102971523D01*
X75497326Y-102962972D01*
X75461633Y-102917413D01*
X75457194Y-102911380D01*
X75424331Y-102863769D01*
X75381035Y-102825413D01*
X75375581Y-102820279D01*
X75205302Y-102650000D01*
X78300000Y-102650000D01*
X79087500Y-102650000D01*
X79087500Y-101925001D01*
X78988353Y-101925001D01*
X78887349Y-101935318D01*
X78723698Y-101989546D01*
X78576959Y-102080056D01*
X78455056Y-102201959D01*
X78364546Y-102348698D01*
X78310318Y-102512348D01*
X78300000Y-102613353D01*
X78300000Y-102650000D01*
X75205302Y-102650000D01*
X73694727Y-101139426D01*
X73689608Y-101133989D01*
X73651229Y-101090668D01*
X73603611Y-101057800D01*
X73597577Y-101053360D01*
X73552028Y-101017674D01*
X73552026Y-101017673D01*
X73543476Y-101013824D01*
X73523938Y-101002804D01*
X73516227Y-100997482D01*
X73462117Y-100976960D01*
X73455215Y-100974101D01*
X73429754Y-100962643D01*
X73402436Y-100950348D01*
X73393223Y-100948660D01*
X73371612Y-100942636D01*
X73362847Y-100939312D01*
X73305386Y-100932334D01*
X73297987Y-100931207D01*
X73241087Y-100920780D01*
X73185463Y-100924145D01*
X73183334Y-100924274D01*
X73175849Y-100924500D01*
X70494151Y-100924500D01*
X70486665Y-100924274D01*
X70484385Y-100924136D01*
X70428912Y-100920780D01*
X70372011Y-100931207D01*
X70364612Y-100932333D01*
X70307157Y-100939310D01*
X70298383Y-100942638D01*
X70276776Y-100948661D01*
X70267562Y-100950349D01*
X70214782Y-100974102D01*
X70207868Y-100976965D01*
X70153775Y-100997481D01*
X70146058Y-101002807D01*
X70126524Y-101013824D01*
X70117973Y-101017673D01*
X70072417Y-101053363D01*
X70066387Y-101057800D01*
X70018770Y-101090668D01*
X69980406Y-101133972D01*
X69975273Y-101139424D01*
X68892806Y-102221891D01*
X68847536Y-102250732D01*
X68794318Y-102257738D01*
X68565000Y-102237676D01*
X68344934Y-102256929D01*
X68131548Y-102314106D01*
X67931338Y-102407466D01*
X67750379Y-102534174D01*
X67594174Y-102690379D01*
X67467466Y-102871338D01*
X67374106Y-103071548D01*
X67316929Y-103284934D01*
X67297676Y-103505000D01*
X67316929Y-103725065D01*
X67374106Y-103938451D01*
X67459536Y-104121656D01*
X67467466Y-104138662D01*
X67594174Y-104319620D01*
X67750380Y-104475826D01*
X67931338Y-104602534D01*
X68131550Y-104695894D01*
X68344932Y-104753070D01*
X68415766Y-104759267D01*
X68564996Y-104772323D01*
X68564998Y-104772322D01*
X68565000Y-104772323D01*
X68573410Y-104771587D01*
X68632668Y-104780971D01*
X68680585Y-104817078D01*
X68705942Y-104871454D01*
X68702802Y-104931369D01*
X68671901Y-104982796D01*
X63489424Y-110165273D01*
X63483972Y-110170406D01*
X63440668Y-110208770D01*
X63407800Y-110256387D01*
X63403363Y-110262417D01*
X63367673Y-110307973D01*
X63363824Y-110316524D01*
X63352807Y-110336058D01*
X63347481Y-110343775D01*
X63326965Y-110397868D01*
X63324102Y-110404782D01*
X63300349Y-110457562D01*
X63298661Y-110466776D01*
X63292638Y-110488383D01*
X63289310Y-110497157D01*
X63282333Y-110554612D01*
X63281207Y-110562011D01*
X63270780Y-110618912D01*
X63274274Y-110676664D01*
X63274500Y-110684151D01*
X63274500Y-113975501D01*
X63257887Y-114037501D01*
X63212500Y-114082888D01*
X63158578Y-114097336D01*
X63158735Y-114098791D01*
X63152130Y-114099501D01*
X63152128Y-114099501D01*
X63094729Y-114105671D01*
X63091475Y-114106021D01*
X63032409Y-114097957D01*
X62993501Y-114070111D01*
X62992646Y-114071114D01*
X62793661Y-113901165D01*
X62714581Y-113852705D01*
X62578859Y-113769534D01*
X62462484Y-113721330D01*
X62346110Y-113673126D01*
X62101149Y-113614317D01*
X61850000Y-113594551D01*
X61598850Y-113614317D01*
X61353889Y-113673126D01*
X61121139Y-113769535D01*
X60906342Y-113901163D01*
X60714776Y-114064776D01*
X60551163Y-114256342D01*
X60419535Y-114471139D01*
X60323126Y-114703889D01*
X60264317Y-114948850D01*
X60249500Y-115137121D01*
X60249500Y-116562879D01*
X53382665Y-116562879D01*
X53371698Y-109799999D01*
X54094551Y-109799999D01*
X54114317Y-110051149D01*
X54173126Y-110296110D01*
X54192870Y-110343775D01*
X54269534Y-110528859D01*
X54401164Y-110743659D01*
X54564776Y-110935224D01*
X54756341Y-111098836D01*
X54971141Y-111230466D01*
X55203889Y-111326873D01*
X55448852Y-111385683D01*
X55637118Y-111400500D01*
X55762879Y-111400500D01*
X55762882Y-111400500D01*
X55951148Y-111385683D01*
X56196111Y-111326873D01*
X56428859Y-111230466D01*
X56643659Y-111098836D01*
X56835224Y-110935224D01*
X56998836Y-110743659D01*
X57130466Y-110528859D01*
X57226873Y-110296111D01*
X57285683Y-110051148D01*
X57305449Y-109800000D01*
X57285683Y-109548852D01*
X57226873Y-109303889D01*
X57130466Y-109071141D01*
X56998836Y-108856341D01*
X56835224Y-108664776D01*
X56741818Y-108585000D01*
X59677676Y-108585000D01*
X59696929Y-108805065D01*
X59754106Y-109018451D01*
X59770153Y-109052863D01*
X59847466Y-109218662D01*
X59974174Y-109399620D01*
X60130380Y-109555826D01*
X60311338Y-109682534D01*
X60511550Y-109775894D01*
X60724932Y-109833070D01*
X60945000Y-109852323D01*
X61165068Y-109833070D01*
X61378450Y-109775894D01*
X61578662Y-109682534D01*
X61759620Y-109555826D01*
X61915826Y-109399620D01*
X62042534Y-109218662D01*
X62135894Y-109018450D01*
X62193070Y-108805068D01*
X62212323Y-108585000D01*
X62193070Y-108364932D01*
X62135894Y-108151550D01*
X62042534Y-107951339D01*
X61915826Y-107770380D01*
X61759620Y-107614174D01*
X61673374Y-107553783D01*
X61634511Y-107509468D01*
X61620500Y-107452211D01*
X61620500Y-104637789D01*
X61634511Y-104580532D01*
X61673374Y-104536216D01*
X61759620Y-104475826D01*
X61915826Y-104319620D01*
X62042534Y-104138662D01*
X62135894Y-103938450D01*
X62193070Y-103725068D01*
X62212323Y-103505000D01*
X62193070Y-103284932D01*
X62135894Y-103071550D01*
X62042534Y-102871339D01*
X61915826Y-102690380D01*
X61759620Y-102534174D01*
X61578662Y-102407466D01*
X61547663Y-102393011D01*
X61378451Y-102314106D01*
X61165065Y-102256929D01*
X60945000Y-102237676D01*
X60724934Y-102256929D01*
X60511548Y-102314106D01*
X60311338Y-102407466D01*
X60130379Y-102534174D01*
X59974174Y-102690379D01*
X59847466Y-102871338D01*
X59754106Y-103071548D01*
X59696929Y-103284934D01*
X59677676Y-103505000D01*
X59696929Y-103725065D01*
X59754106Y-103938451D01*
X59839536Y-104121656D01*
X59847466Y-104138662D01*
X59974174Y-104319620D01*
X60130380Y-104475826D01*
X60216625Y-104536216D01*
X60255489Y-104580532D01*
X60269500Y-104637789D01*
X60269500Y-107452211D01*
X60255489Y-107509468D01*
X60216623Y-107553786D01*
X60130379Y-107614173D01*
X59974175Y-107770378D01*
X59847466Y-107951338D01*
X59754106Y-108151548D01*
X59696929Y-108364934D01*
X59677676Y-108585000D01*
X56741818Y-108585000D01*
X56643659Y-108501164D01*
X56428859Y-108369534D01*
X56312484Y-108321330D01*
X56196110Y-108273126D01*
X55951149Y-108214317D01*
X55904081Y-108210612D01*
X55762882Y-108199500D01*
X55637118Y-108199500D01*
X55524158Y-108208390D01*
X55448850Y-108214317D01*
X55203889Y-108273126D01*
X55005225Y-108355415D01*
X54982247Y-108364934D01*
X54971139Y-108369535D01*
X54756342Y-108501163D01*
X54564776Y-108664776D01*
X54401163Y-108856342D01*
X54269535Y-109071139D01*
X54173126Y-109303889D01*
X54114317Y-109548850D01*
X54094551Y-109799999D01*
X53371698Y-109799999D01*
X53347575Y-94924335D01*
X60899500Y-94924335D01*
X60940429Y-95169615D01*
X61021170Y-95404805D01*
X61021172Y-95404810D01*
X61109716Y-95568425D01*
X61139529Y-95623514D01*
X61275036Y-95797612D01*
X61292262Y-95819744D01*
X61475215Y-95988164D01*
X61683393Y-96124173D01*
X61911119Y-96224063D01*
X62152179Y-96285108D01*
X62226480Y-96291264D01*
X62337927Y-96300500D01*
X62337933Y-96300500D01*
X64462067Y-96300500D01*
X64462073Y-96300500D01*
X64563387Y-96292104D01*
X64647821Y-96285108D01*
X64888881Y-96224063D01*
X65116607Y-96124173D01*
X65324785Y-95988164D01*
X65507738Y-95819744D01*
X65660474Y-95623509D01*
X65778828Y-95404810D01*
X65859571Y-95169614D01*
X65900500Y-94924335D01*
X65900500Y-94675665D01*
X65859571Y-94430386D01*
X65778828Y-94195190D01*
X65660474Y-93976491D01*
X65660471Y-93976487D01*
X65660470Y-93976485D01*
X65507740Y-93780259D01*
X65507738Y-93780256D01*
X65324785Y-93611836D01*
X65116607Y-93475827D01*
X65116604Y-93475825D01*
X64991523Y-93420960D01*
X64888881Y-93375937D01*
X64647821Y-93314892D01*
X64647819Y-93314891D01*
X64647816Y-93314891D01*
X64462073Y-93299500D01*
X64462067Y-93299500D01*
X62337933Y-93299500D01*
X62337927Y-93299500D01*
X62152183Y-93314891D01*
X62152179Y-93314891D01*
X62152179Y-93314892D01*
X61911119Y-93375937D01*
X61911116Y-93375938D01*
X61911117Y-93375938D01*
X61683395Y-93475825D01*
X61602619Y-93528599D01*
X61475215Y-93611836D01*
X61475213Y-93611837D01*
X61475214Y-93611837D01*
X61292259Y-93780259D01*
X61139529Y-93976485D01*
X61021170Y-94195194D01*
X60940429Y-94430384D01*
X60899500Y-94675665D01*
X60899500Y-94924335D01*
X53347575Y-94924335D01*
X53299212Y-65099974D01*
X53299212Y-62800000D01*
X54144551Y-62800000D01*
X54164317Y-63051149D01*
X54223126Y-63296110D01*
X54250729Y-63362748D01*
X54319534Y-63528859D01*
X54451164Y-63743659D01*
X54614776Y-63935224D01*
X54806341Y-64098836D01*
X55021141Y-64230466D01*
X55253889Y-64326873D01*
X55498852Y-64385683D01*
X55687118Y-64400500D01*
X55812879Y-64400500D01*
X55812882Y-64400500D01*
X56001148Y-64385683D01*
X56246111Y-64326873D01*
X56478859Y-64230466D01*
X56693659Y-64098836D01*
X56885224Y-63935224D01*
X57048836Y-63743659D01*
X57180466Y-63528859D01*
X57276873Y-63296111D01*
X57335683Y-63051148D01*
X57355449Y-62800000D01*
X57335683Y-62548852D01*
X57276873Y-62303889D01*
X57180466Y-62071141D01*
X57048836Y-61856341D01*
X56885224Y-61664776D01*
X56693659Y-61501164D01*
X56478859Y-61369534D01*
X56362484Y-61321330D01*
X56246110Y-61273126D01*
X56001149Y-61214317D01*
X55954081Y-61210612D01*
X55812882Y-61199500D01*
X55687118Y-61199500D01*
X55574158Y-61208390D01*
X55498850Y-61214317D01*
X55253889Y-61273126D01*
X55021139Y-61369535D01*
X54806342Y-61501163D01*
X54614776Y-61664776D01*
X54451163Y-61856342D01*
X54319535Y-62071139D01*
X54223126Y-62303889D01*
X54164317Y-62548850D01*
X54144551Y-62800000D01*
X53299212Y-62800000D01*
X53299212Y-61953774D01*
X53309457Y-61904419D01*
X53338498Y-61863222D01*
X54813494Y-60483387D01*
X54852629Y-60458623D01*
X54898126Y-60449946D01*
X74802566Y-60438851D01*
X74863309Y-60454710D01*
X74908501Y-60498291D01*
X74926554Y-60558421D01*
X74912841Y-60619686D01*
X74870877Y-60666383D01*
X74864482Y-60670597D01*
X74822782Y-60712297D01*
X74815875Y-60718698D01*
X74771104Y-60757134D01*
X74752480Y-60781194D01*
X74742107Y-60792971D01*
X58449594Y-77085484D01*
X58394336Y-77117489D01*
X58330480Y-77117753D01*
X58274959Y-77086206D01*
X58242499Y-77031214D01*
X58241708Y-76967362D01*
X58260364Y-76893691D01*
X58280557Y-76650000D01*
X58272447Y-76552127D01*
X58260364Y-76406308D01*
X58200336Y-76169264D01*
X58102111Y-75945333D01*
X57968368Y-75740623D01*
X57802754Y-75560719D01*
X57733910Y-75507135D01*
X57609793Y-75410530D01*
X57609789Y-75410527D01*
X57609788Y-75410527D01*
X57394733Y-75294145D01*
X57394731Y-75294144D01*
X57394727Y-75294142D01*
X57163459Y-75214748D01*
X56970501Y-75182549D01*
X56922263Y-75174500D01*
X56677737Y-75174500D01*
X56637538Y-75181208D01*
X56436540Y-75214748D01*
X56205272Y-75294142D01*
X55990206Y-75410530D01*
X55797249Y-75560716D01*
X55797246Y-75560718D01*
X55797246Y-75560719D01*
X55651537Y-75719001D01*
X55631633Y-75740622D01*
X55497887Y-75945335D01*
X55405334Y-76156337D01*
X55399664Y-76169264D01*
X55389502Y-76209392D01*
X55339635Y-76406312D01*
X55319442Y-76650000D01*
X55339635Y-76893687D01*
X55339635Y-76893690D01*
X55339636Y-76893692D01*
X55396376Y-77117753D01*
X55399665Y-77130738D01*
X55497887Y-77354664D01*
X55497889Y-77354667D01*
X55631632Y-77559377D01*
X55797246Y-77739281D01*
X55797249Y-77739283D01*
X55990206Y-77889469D01*
X55990208Y-77889470D01*
X55990212Y-77889473D01*
X56205267Y-78005855D01*
X56205269Y-78005856D01*
X56214304Y-78010745D01*
X56213267Y-78012660D01*
X56250539Y-78036869D01*
X56279633Y-78089627D01*
X56280427Y-78149871D01*
X56252733Y-78203378D01*
X56203089Y-78237516D01*
X55966836Y-78325634D01*
X55715686Y-78462772D01*
X55486602Y-78634263D01*
X55284263Y-78836602D01*
X55112772Y-79065686D01*
X54975634Y-79316836D01*
X54875629Y-79584958D01*
X54814804Y-79864570D01*
X54799500Y-80078551D01*
X54799500Y-80443081D01*
X54809062Y-80509594D01*
X54810008Y-80518390D01*
X54814804Y-80585429D01*
X54829089Y-80651096D01*
X54830661Y-80659806D01*
X54840225Y-80726326D01*
X54859154Y-80790792D01*
X54861343Y-80799367D01*
X54875630Y-80865045D01*
X54899118Y-80928018D01*
X54901909Y-80936405D01*
X54920844Y-81000888D01*
X54930564Y-81022171D01*
X54948760Y-81062017D01*
X54952145Y-81070190D01*
X54975632Y-81133159D01*
X55007840Y-81192144D01*
X55011801Y-81200058D01*
X55039717Y-81261185D01*
X55076054Y-81317727D01*
X55080570Y-81325339D01*
X55112774Y-81384317D01*
X55153039Y-81438103D01*
X55158084Y-81445367D01*
X55194426Y-81501917D01*
X55218559Y-81529768D01*
X55238434Y-81552705D01*
X55243987Y-81559596D01*
X55284262Y-81613396D01*
X55334912Y-81664046D01*
X61246954Y-87576089D01*
X61280419Y-87637321D01*
X61275520Y-87706929D01*
X61233807Y-87762869D01*
X61168491Y-87787427D01*
X61100257Y-87772825D01*
X61004810Y-87721172D01*
X61004806Y-87721170D01*
X61004805Y-87721170D01*
X60769615Y-87640429D01*
X60524335Y-87599500D01*
X60275665Y-87599500D01*
X60030384Y-87640429D01*
X59795194Y-87721170D01*
X59576485Y-87839529D01*
X59380259Y-87992259D01*
X59380256Y-87992261D01*
X59380256Y-87992262D01*
X59211836Y-88175215D01*
X59175149Y-88231369D01*
X59075825Y-88383395D01*
X59009608Y-88534357D01*
X58975937Y-88611119D01*
X58926379Y-88806818D01*
X58914891Y-88852183D01*
X58899500Y-89037927D01*
X58899500Y-91162073D01*
X58914891Y-91347816D01*
X58914891Y-91347819D01*
X58914892Y-91347821D01*
X58975937Y-91588881D01*
X59020960Y-91691523D01*
X59075825Y-91816604D01*
X59075827Y-91816607D01*
X59211836Y-92024785D01*
X59380256Y-92207738D01*
X59380259Y-92207740D01*
X59576485Y-92360470D01*
X59576487Y-92360471D01*
X59576491Y-92360474D01*
X59795190Y-92478828D01*
X60030386Y-92559571D01*
X60275665Y-92600500D01*
X60524335Y-92600500D01*
X60769614Y-92559571D01*
X61004810Y-92478828D01*
X61223509Y-92360474D01*
X61419744Y-92207738D01*
X61588164Y-92024785D01*
X61724173Y-91816607D01*
X61824063Y-91588881D01*
X61885108Y-91347821D01*
X61892104Y-91263387D01*
X61900500Y-91162073D01*
X61900500Y-89037927D01*
X61886610Y-88870309D01*
X61885108Y-88852179D01*
X61824063Y-88611119D01*
X61758913Y-88462591D01*
X61730927Y-88398789D01*
X61721706Y-88331608D01*
X61749201Y-88269623D01*
X61805191Y-88231369D01*
X61872932Y-88228287D01*
X61932162Y-88261297D01*
X63514474Y-89843609D01*
X65063181Y-91392316D01*
X65090061Y-91432544D01*
X65099500Y-91479997D01*
X65099500Y-92397869D01*
X65105909Y-92457484D01*
X65121580Y-92499500D01*
X65156204Y-92592331D01*
X65242454Y-92707546D01*
X65357669Y-92793796D01*
X65492517Y-92844091D01*
X65552127Y-92850500D01*
X67647872Y-92850499D01*
X67707483Y-92844091D01*
X67842331Y-92793796D01*
X67957546Y-92707546D01*
X68043796Y-92592331D01*
X68094091Y-92457483D01*
X68100500Y-92397873D01*
X68100499Y-91469427D01*
X68108318Y-91426094D01*
X68130785Y-91388226D01*
X68205574Y-91301918D01*
X68360282Y-91061187D01*
X68479156Y-90800889D01*
X68512901Y-90685965D01*
X68559774Y-90526326D01*
X68559773Y-90526326D01*
X68559775Y-90526323D01*
X68570749Y-90450000D01*
X73694356Y-90450000D01*
X73714891Y-90697816D01*
X73714891Y-90697819D01*
X73714892Y-90697821D01*
X73775937Y-90938881D01*
X73820960Y-91041523D01*
X73875825Y-91166604D01*
X73875827Y-91166607D01*
X74011836Y-91374785D01*
X74180256Y-91557738D01*
X74220270Y-91588882D01*
X74376485Y-91710470D01*
X74376487Y-91710471D01*
X74376491Y-91710474D01*
X74595190Y-91828828D01*
X74830386Y-91909571D01*
X75075665Y-91950500D01*
X75324335Y-91950500D01*
X75569614Y-91909571D01*
X75804810Y-91828828D01*
X76023509Y-91710474D01*
X76219744Y-91557738D01*
X76274857Y-91497869D01*
X78699500Y-91497869D01*
X78705909Y-91557484D01*
X78717620Y-91588882D01*
X78756204Y-91692331D01*
X78842454Y-91807546D01*
X78957669Y-91893796D01*
X79092517Y-91944091D01*
X79152127Y-91950500D01*
X81247872Y-91950499D01*
X81307483Y-91944091D01*
X81442331Y-91893796D01*
X81557546Y-91807546D01*
X81643796Y-91692331D01*
X81694091Y-91557483D01*
X81700500Y-91497873D01*
X81700499Y-89402128D01*
X81694091Y-89342517D01*
X81643796Y-89207669D01*
X81557546Y-89092454D01*
X81442331Y-89006204D01*
X81307483Y-88955909D01*
X81247873Y-88949500D01*
X81247869Y-88949500D01*
X80999500Y-88949500D01*
X80937500Y-88932887D01*
X80892113Y-88887500D01*
X80875500Y-88825500D01*
X80875500Y-86931163D01*
X80884939Y-86883710D01*
X80911819Y-86843482D01*
X87883482Y-79871819D01*
X87923710Y-79844939D01*
X87971163Y-79835500D01*
X90050583Y-79835500D01*
X90107840Y-79849511D01*
X90152157Y-79888375D01*
X90252305Y-80031401D01*
X90419399Y-80198495D01*
X90604960Y-80328426D01*
X90643824Y-80372743D01*
X90657835Y-80430000D01*
X90643824Y-80487257D01*
X90604960Y-80531574D01*
X90421826Y-80659806D01*
X90419395Y-80661508D01*
X90252305Y-80828598D01*
X90116765Y-81022170D01*
X90016897Y-81236336D01*
X89955736Y-81464592D01*
X89935140Y-81700000D01*
X89955736Y-81935407D01*
X89984858Y-82044090D01*
X90016897Y-82163663D01*
X90116765Y-82377830D01*
X90252305Y-82571401D01*
X90419399Y-82738495D01*
X90604960Y-82868426D01*
X90643824Y-82912743D01*
X90657835Y-82970000D01*
X90643824Y-83027257D01*
X90604958Y-83071575D01*
X90535984Y-83119872D01*
X90419395Y-83201508D01*
X90252305Y-83368598D01*
X90116765Y-83562170D01*
X90016897Y-83776336D01*
X89955736Y-84004592D01*
X89935140Y-84239999D01*
X89955736Y-84475407D01*
X89978728Y-84561213D01*
X90016897Y-84703663D01*
X90116765Y-84917830D01*
X90252305Y-85111401D01*
X90419399Y-85278495D01*
X90604960Y-85408426D01*
X90643824Y-85452743D01*
X90657835Y-85510000D01*
X90643824Y-85567257D01*
X90604959Y-85611575D01*
X90419395Y-85741508D01*
X90252305Y-85908598D01*
X90116765Y-86102170D01*
X90016897Y-86316336D01*
X89955736Y-86544592D01*
X89935140Y-86780000D01*
X89955736Y-87015407D01*
X89980315Y-87107135D01*
X90016897Y-87243663D01*
X90116765Y-87457830D01*
X90252305Y-87651401D01*
X90419399Y-87818495D01*
X90604960Y-87948426D01*
X90643824Y-87992743D01*
X90657835Y-88050000D01*
X90643824Y-88107257D01*
X90604958Y-88151575D01*
X90436369Y-88269623D01*
X90419395Y-88281508D01*
X90252305Y-88448598D01*
X90116765Y-88642170D01*
X90016897Y-88856336D01*
X89955736Y-89084592D01*
X89935140Y-89320000D01*
X89955736Y-89555407D01*
X89962875Y-89582049D01*
X90016897Y-89783663D01*
X90116765Y-89997830D01*
X90252305Y-90191401D01*
X90419399Y-90358495D01*
X90604960Y-90488426D01*
X90643824Y-90532743D01*
X90657835Y-90590000D01*
X90643824Y-90647257D01*
X90604959Y-90691575D01*
X90419395Y-90821508D01*
X90252305Y-90988598D01*
X90116765Y-91182170D01*
X90016897Y-91396336D01*
X89955736Y-91624592D01*
X89935140Y-91859999D01*
X89955736Y-92095407D01*
X89985835Y-92207738D01*
X90016897Y-92323663D01*
X90116765Y-92537830D01*
X90252305Y-92731401D01*
X90419399Y-92898495D01*
X90604960Y-93028426D01*
X90643824Y-93072743D01*
X90657835Y-93130000D01*
X90643824Y-93187257D01*
X90604959Y-93231575D01*
X90419395Y-93361508D01*
X90252305Y-93528598D01*
X90116765Y-93722170D01*
X90016897Y-93936336D01*
X89955736Y-94164592D01*
X89935140Y-94400000D01*
X89955736Y-94635407D01*
X89998072Y-94793407D01*
X90016897Y-94863663D01*
X90116765Y-95077830D01*
X90252305Y-95271401D01*
X90419399Y-95438495D01*
X90604960Y-95568426D01*
X90643824Y-95612743D01*
X90657835Y-95670000D01*
X90643824Y-95727257D01*
X90604959Y-95771575D01*
X90419395Y-95901508D01*
X90252305Y-96068598D01*
X90116765Y-96262170D01*
X90016897Y-96476336D01*
X89955736Y-96704592D01*
X89935140Y-96939999D01*
X89955736Y-97175407D01*
X89998072Y-97333407D01*
X90016897Y-97403663D01*
X90116765Y-97617830D01*
X90252305Y-97811401D01*
X90419399Y-97978495D01*
X90604960Y-98108426D01*
X90643824Y-98152743D01*
X90657835Y-98210000D01*
X90643824Y-98267257D01*
X90604959Y-98311575D01*
X90419395Y-98441508D01*
X90252305Y-98608598D01*
X90116765Y-98802170D01*
X90016897Y-99016336D01*
X89955736Y-99244592D01*
X89935140Y-99480000D01*
X89955736Y-99715407D01*
X90000509Y-99882502D01*
X90016897Y-99943663D01*
X90116765Y-100157830D01*
X90252305Y-100351401D01*
X90419399Y-100518495D01*
X90604960Y-100648426D01*
X90643824Y-100692743D01*
X90657835Y-100750000D01*
X90643824Y-100807257D01*
X90604958Y-100851575D01*
X90490266Y-100931884D01*
X90419395Y-100981508D01*
X90252305Y-101148598D01*
X90116765Y-101342170D01*
X90016897Y-101556336D01*
X89955736Y-101784592D01*
X89935140Y-102019999D01*
X89955736Y-102255407D01*
X89992607Y-102393011D01*
X90016897Y-102483663D01*
X90116765Y-102697830D01*
X90252305Y-102891401D01*
X90419399Y-103058495D01*
X90604960Y-103188426D01*
X90643824Y-103232743D01*
X90657835Y-103290000D01*
X90643824Y-103347257D01*
X90604960Y-103391574D01*
X90442570Y-103505281D01*
X90419395Y-103521508D01*
X90252305Y-103688598D01*
X90116765Y-103882170D01*
X90016897Y-104096336D01*
X89955736Y-104324592D01*
X89935140Y-104560000D01*
X89955736Y-104795407D01*
X89966160Y-104834308D01*
X90016897Y-105023663D01*
X90116765Y-105237830D01*
X90252305Y-105431401D01*
X90419399Y-105598495D01*
X90592261Y-105719534D01*
X90631124Y-105763850D01*
X90645135Y-105821107D01*
X90631124Y-105878364D01*
X90592259Y-105922682D01*
X90509822Y-105980405D01*
X90418154Y-106044592D01*
X90393995Y-106061508D01*
X90226905Y-106228598D01*
X90091365Y-106422170D01*
X89991497Y-106636336D01*
X89930336Y-106864592D01*
X89909740Y-107100000D01*
X89930336Y-107335407D01*
X89961634Y-107452211D01*
X89991497Y-107563663D01*
X90091365Y-107777830D01*
X90226905Y-107971401D01*
X90393999Y-108138495D01*
X90587570Y-108274035D01*
X90801737Y-108373903D01*
X91029992Y-108435063D01*
X91265400Y-108455659D01*
X91500808Y-108435063D01*
X91729063Y-108373903D01*
X91943230Y-108274035D01*
X92136801Y-108138495D01*
X92303895Y-107971401D01*
X92439435Y-107777830D01*
X92539303Y-107563663D01*
X92600463Y-107335408D01*
X92621059Y-107100000D01*
X92600463Y-106864592D01*
X92588486Y-106819893D01*
X92588486Y-106755706D01*
X92620579Y-106700120D01*
X92733882Y-106586818D01*
X92774111Y-106559939D01*
X92821563Y-106550500D01*
X110198297Y-106550500D01*
X110253141Y-106563288D01*
X110296673Y-106599014D01*
X110319914Y-106650309D01*
X110318072Y-106706593D01*
X110275736Y-106864592D01*
X110255140Y-107100000D01*
X110275736Y-107335407D01*
X110307034Y-107452211D01*
X110336897Y-107563663D01*
X110436765Y-107777830D01*
X110572305Y-107971401D01*
X110739399Y-108138495D01*
X110932970Y-108274035D01*
X111147137Y-108373903D01*
X111375392Y-108435063D01*
X111610800Y-108455659D01*
X111846208Y-108435063D01*
X112074463Y-108373903D01*
X112288630Y-108274035D01*
X112482201Y-108138495D01*
X112649295Y-107971401D01*
X112784835Y-107777830D01*
X112884703Y-107563663D01*
X112945863Y-107335408D01*
X112966459Y-107100000D01*
X112945863Y-106864592D01*
X112916688Y-106755707D01*
X112903528Y-106706593D01*
X112901686Y-106650309D01*
X112924927Y-106599014D01*
X112968459Y-106563288D01*
X113023303Y-106550500D01*
X116909237Y-106550500D01*
X116956690Y-106559939D01*
X116996918Y-106586819D01*
X117110219Y-106700120D01*
X117142313Y-106755707D01*
X117142313Y-106819893D01*
X117130336Y-106864591D01*
X117109740Y-107100000D01*
X117130336Y-107335407D01*
X117161634Y-107452211D01*
X117191497Y-107563663D01*
X117291365Y-107777830D01*
X117426905Y-107971401D01*
X117593999Y-108138495D01*
X117787570Y-108274035D01*
X118001737Y-108373903D01*
X118228772Y-108434736D01*
X118233000Y-108435869D01*
X118286545Y-108465966D01*
X118319076Y-108518067D01*
X118322612Y-108579389D01*
X118296285Y-108634884D01*
X118246555Y-108670936D01*
X118099561Y-108729135D01*
X117834319Y-108874953D01*
X117589446Y-109052863D01*
X117368798Y-109260066D01*
X117207963Y-109454483D01*
X117175862Y-109493287D01*
X117127947Y-109568789D01*
X117013677Y-109748850D01*
X116884799Y-110022730D01*
X116791267Y-110310590D01*
X116734549Y-110607920D01*
X116715543Y-110910000D01*
X116734549Y-111212079D01*
X116791267Y-111509409D01*
X116884799Y-111797269D01*
X116884801Y-111797274D01*
X117013677Y-112071150D01*
X117175862Y-112326713D01*
X117226046Y-112387375D01*
X117368798Y-112559933D01*
X117589446Y-112767136D01*
X117834319Y-112945046D01*
X117891143Y-112976285D01*
X118099563Y-113090865D01*
X118380990Y-113202290D01*
X118674163Y-113277564D01*
X118898585Y-113305914D01*
X118974457Y-113315500D01*
X118974459Y-113315500D01*
X119277141Y-113315500D01*
X119277143Y-113315500D01*
X119344504Y-113306989D01*
X119577437Y-113277564D01*
X119870610Y-113202290D01*
X120152037Y-113090865D01*
X120417280Y-112945046D01*
X120446882Y-112923539D01*
X120662153Y-112767136D01*
X120737802Y-112696097D01*
X120882801Y-112559934D01*
X121075738Y-112326713D01*
X121237923Y-112071150D01*
X121366799Y-111797274D01*
X121460333Y-111509406D01*
X121517050Y-111212085D01*
X121536056Y-110910000D01*
X135765543Y-110910000D01*
X135784549Y-111212079D01*
X135841267Y-111509409D01*
X135934799Y-111797269D01*
X135934801Y-111797274D01*
X136063677Y-112071150D01*
X136225862Y-112326713D01*
X136276046Y-112387375D01*
X136418798Y-112559933D01*
X136639446Y-112767136D01*
X136884319Y-112945046D01*
X136941143Y-112976285D01*
X137149563Y-113090865D01*
X137430990Y-113202290D01*
X137724163Y-113277564D01*
X137948585Y-113305914D01*
X138024457Y-113315500D01*
X138024459Y-113315500D01*
X138327141Y-113315500D01*
X138327143Y-113315500D01*
X138394504Y-113306989D01*
X138627437Y-113277564D01*
X138920610Y-113202290D01*
X139202037Y-113090865D01*
X139467280Y-112945046D01*
X139496882Y-112923539D01*
X139712153Y-112767136D01*
X139787802Y-112696097D01*
X139932801Y-112559934D01*
X140125738Y-112326713D01*
X140287923Y-112071150D01*
X140416799Y-111797274D01*
X140510333Y-111509406D01*
X140567050Y-111212085D01*
X140586056Y-110910000D01*
X140567050Y-110607915D01*
X140510333Y-110310594D01*
X140509481Y-110307973D01*
X140438846Y-110090581D01*
X140416799Y-110022726D01*
X140311992Y-109800000D01*
X143094551Y-109800000D01*
X143114317Y-110051149D01*
X143173126Y-110296110D01*
X143192870Y-110343775D01*
X143269534Y-110528859D01*
X143401164Y-110743659D01*
X143564776Y-110935224D01*
X143756341Y-111098836D01*
X143971141Y-111230466D01*
X144203889Y-111326873D01*
X144448852Y-111385683D01*
X144637118Y-111400500D01*
X144762879Y-111400500D01*
X144762882Y-111400500D01*
X144951148Y-111385683D01*
X145196111Y-111326873D01*
X145428859Y-111230466D01*
X145643659Y-111098836D01*
X145835224Y-110935224D01*
X145998836Y-110743659D01*
X146130466Y-110528859D01*
X146226873Y-110296111D01*
X146285683Y-110051148D01*
X146305449Y-109800000D01*
X146285683Y-109548852D01*
X146226873Y-109303889D01*
X146130466Y-109071141D01*
X145998836Y-108856341D01*
X145835224Y-108664776D01*
X145643659Y-108501164D01*
X145428859Y-108369534D01*
X145312484Y-108321330D01*
X145196110Y-108273126D01*
X144951149Y-108214317D01*
X144904081Y-108210612D01*
X144762882Y-108199500D01*
X144637118Y-108199500D01*
X144524158Y-108208390D01*
X144448850Y-108214317D01*
X144203889Y-108273126D01*
X144005225Y-108355415D01*
X143982247Y-108364934D01*
X143971139Y-108369535D01*
X143756342Y-108501163D01*
X143564776Y-108664776D01*
X143401163Y-108856342D01*
X143269535Y-109071139D01*
X143173126Y-109303889D01*
X143114317Y-109548850D01*
X143094551Y-109800000D01*
X140311992Y-109800000D01*
X140287923Y-109748850D01*
X140125738Y-109493287D01*
X139932801Y-109260066D01*
X139867619Y-109198856D01*
X139712153Y-109052863D01*
X139467280Y-108874953D01*
X139202038Y-108729135D01*
X139044792Y-108666877D01*
X138995062Y-108630825D01*
X138968735Y-108575330D01*
X138972271Y-108514008D01*
X139004802Y-108461907D01*
X139058345Y-108431810D01*
X139274463Y-108373903D01*
X139488630Y-108274035D01*
X139682201Y-108138495D01*
X139849295Y-107971401D01*
X139984835Y-107777830D01*
X140084703Y-107563663D01*
X140145863Y-107335408D01*
X140166459Y-107100000D01*
X140145863Y-106864592D01*
X140084703Y-106636337D01*
X139984835Y-106422171D01*
X139849295Y-106228599D01*
X139682201Y-106061505D01*
X139496639Y-105931573D01*
X139457775Y-105887257D01*
X139443764Y-105830000D01*
X139457775Y-105772743D01*
X139496639Y-105728426D01*
X139682201Y-105598495D01*
X139849295Y-105431401D01*
X139984835Y-105237830D01*
X140084703Y-105023663D01*
X140145863Y-104795408D01*
X140166459Y-104560000D01*
X140145863Y-104324592D01*
X140084703Y-104096337D01*
X139984835Y-103882171D01*
X139849295Y-103688599D01*
X139682201Y-103521505D01*
X139496639Y-103391573D01*
X139457774Y-103347255D01*
X139443764Y-103289999D01*
X139457775Y-103232742D01*
X139496637Y-103188428D01*
X139682201Y-103058495D01*
X139849295Y-102891401D01*
X139984835Y-102697830D01*
X140084703Y-102483663D01*
X140145863Y-102255408D01*
X140166459Y-102020000D01*
X140158147Y-101925001D01*
X140145863Y-101784592D01*
X140133886Y-101739893D01*
X140084703Y-101556337D01*
X139984835Y-101342171D01*
X139849295Y-101148599D01*
X139682201Y-100981505D01*
X139496639Y-100851573D01*
X139457775Y-100807257D01*
X139443764Y-100750000D01*
X139457775Y-100692743D01*
X139496639Y-100648426D01*
X139682201Y-100518495D01*
X139849295Y-100351401D01*
X139984835Y-100157830D01*
X140084703Y-99943663D01*
X140145863Y-99715408D01*
X140166459Y-99480000D01*
X140145863Y-99244592D01*
X140084703Y-99016337D01*
X139984835Y-98802171D01*
X139849295Y-98608599D01*
X139682201Y-98441505D01*
X139496639Y-98311573D01*
X139457775Y-98267257D01*
X139443764Y-98210000D01*
X139457775Y-98152743D01*
X139496639Y-98108426D01*
X139682201Y-97978495D01*
X139849295Y-97811401D01*
X139984835Y-97617830D01*
X140084703Y-97403663D01*
X140145863Y-97175408D01*
X140166459Y-96940000D01*
X140145863Y-96704592D01*
X140084703Y-96476337D01*
X139984835Y-96262171D01*
X139849295Y-96068599D01*
X139682201Y-95901505D01*
X139496639Y-95771573D01*
X139457775Y-95727257D01*
X139443764Y-95670000D01*
X139457775Y-95612743D01*
X139496639Y-95568426D01*
X139682201Y-95438495D01*
X139849295Y-95271401D01*
X139984835Y-95077830D01*
X140084703Y-94863663D01*
X140145863Y-94635408D01*
X140166459Y-94400000D01*
X140145863Y-94164592D01*
X140084703Y-93936337D01*
X139984835Y-93722171D01*
X139849295Y-93528599D01*
X139682201Y-93361505D01*
X139496639Y-93231573D01*
X139457775Y-93187257D01*
X139443764Y-93130000D01*
X139457775Y-93072743D01*
X139496639Y-93028426D01*
X139682201Y-92898495D01*
X139849295Y-92731401D01*
X139984835Y-92537830D01*
X140084703Y-92323663D01*
X140145863Y-92095408D01*
X140166459Y-91860000D01*
X140145863Y-91624592D01*
X140084703Y-91396337D01*
X139984835Y-91182171D01*
X139849295Y-90988599D01*
X139682201Y-90821505D01*
X139496639Y-90691573D01*
X139457775Y-90647257D01*
X139443764Y-90590000D01*
X139457775Y-90532743D01*
X139496639Y-90488426D01*
X139682201Y-90358495D01*
X139849295Y-90191401D01*
X139984835Y-89997830D01*
X140084703Y-89783663D01*
X140145863Y-89555408D01*
X140166459Y-89320000D01*
X140145863Y-89084592D01*
X140084703Y-88856337D01*
X139984835Y-88642171D01*
X139849295Y-88448599D01*
X139682201Y-88281505D01*
X139496639Y-88151573D01*
X139457776Y-88107257D01*
X139443765Y-88050000D01*
X139457776Y-87992743D01*
X139496639Y-87948426D01*
X139682201Y-87818495D01*
X139849295Y-87651401D01*
X139984835Y-87457830D01*
X140084703Y-87243663D01*
X140145863Y-87015408D01*
X140166459Y-86780000D01*
X140164987Y-86763181D01*
X140145863Y-86544592D01*
X140145862Y-86544591D01*
X140084703Y-86316337D01*
X139984835Y-86102171D01*
X139849295Y-85908599D01*
X139682201Y-85741505D01*
X139496639Y-85611573D01*
X139457775Y-85567257D01*
X139443764Y-85510000D01*
X139457775Y-85452743D01*
X139496639Y-85408426D01*
X139682201Y-85278495D01*
X139849295Y-85111401D01*
X139984835Y-84917830D01*
X140084703Y-84703663D01*
X140145863Y-84475408D01*
X140166459Y-84240000D01*
X140145863Y-84004592D01*
X140084703Y-83776337D01*
X139984835Y-83562171D01*
X139849295Y-83368599D01*
X139682201Y-83201505D01*
X139496639Y-83071573D01*
X139457775Y-83027257D01*
X139443764Y-82970000D01*
X139457775Y-82912743D01*
X139496639Y-82868426D01*
X139682201Y-82738495D01*
X139849295Y-82571401D01*
X139984835Y-82377830D01*
X140084703Y-82163663D01*
X140145863Y-81935408D01*
X140166459Y-81700000D01*
X140145863Y-81464592D01*
X140084703Y-81236337D01*
X139984835Y-81022171D01*
X139849295Y-80828599D01*
X139682201Y-80661505D01*
X139496639Y-80531573D01*
X139457774Y-80487255D01*
X139443764Y-80429999D01*
X139457775Y-80372742D01*
X139496637Y-80328428D01*
X139682201Y-80198495D01*
X139849295Y-80031401D01*
X139984835Y-79837830D01*
X140084703Y-79623663D01*
X140145863Y-79395408D01*
X140166459Y-79160000D01*
X140145863Y-78924592D01*
X140084703Y-78696337D01*
X139984835Y-78482171D01*
X139849295Y-78288599D01*
X139682201Y-78121505D01*
X139488630Y-77985965D01*
X139274463Y-77886097D01*
X139213302Y-77869709D01*
X139046207Y-77824936D01*
X138810800Y-77804340D01*
X138575392Y-77824936D01*
X138347136Y-77886097D01*
X138132970Y-77985965D01*
X137939398Y-78121505D01*
X137772305Y-78288598D01*
X137636765Y-78482170D01*
X137536897Y-78696336D01*
X137475736Y-78924592D01*
X137455140Y-79159999D01*
X137475736Y-79395407D01*
X137517210Y-79550188D01*
X137536897Y-79623663D01*
X137636765Y-79837830D01*
X137772305Y-80031401D01*
X137939399Y-80198495D01*
X138124960Y-80328426D01*
X138163824Y-80372743D01*
X138177835Y-80430000D01*
X138163824Y-80487257D01*
X138124960Y-80531574D01*
X137941826Y-80659806D01*
X137939395Y-80661508D01*
X137772305Y-80828598D01*
X137636765Y-81022170D01*
X137536897Y-81236336D01*
X137475736Y-81464592D01*
X137455140Y-81699999D01*
X137475736Y-81935407D01*
X137504858Y-82044090D01*
X137536897Y-82163663D01*
X137636765Y-82377830D01*
X137772305Y-82571401D01*
X137939399Y-82738495D01*
X138124960Y-82868426D01*
X138163824Y-82912743D01*
X138177835Y-82970000D01*
X138163824Y-83027257D01*
X138124958Y-83071575D01*
X138055984Y-83119872D01*
X137939395Y-83201508D01*
X137772305Y-83368598D01*
X137636765Y-83562170D01*
X137536897Y-83776336D01*
X137475736Y-84004592D01*
X137455140Y-84240000D01*
X137475736Y-84475407D01*
X137498728Y-84561213D01*
X137536897Y-84703663D01*
X137636765Y-84917830D01*
X137772305Y-85111401D01*
X137939399Y-85278495D01*
X138124960Y-85408426D01*
X138163824Y-85452743D01*
X138177835Y-85510000D01*
X138163824Y-85567257D01*
X138124959Y-85611575D01*
X137939395Y-85741508D01*
X137772305Y-85908598D01*
X137636765Y-86102170D01*
X137536897Y-86316336D01*
X137475736Y-86544592D01*
X137455140Y-86780000D01*
X137475736Y-87015407D01*
X137500315Y-87107135D01*
X137536897Y-87243663D01*
X137636765Y-87457830D01*
X137772305Y-87651401D01*
X137939399Y-87818495D01*
X138124960Y-87948426D01*
X138163824Y-87992743D01*
X138177835Y-88050000D01*
X138163824Y-88107257D01*
X138124958Y-88151575D01*
X137956369Y-88269623D01*
X137939395Y-88281508D01*
X137772305Y-88448598D01*
X137636765Y-88642170D01*
X137536897Y-88856336D01*
X137475736Y-89084592D01*
X137455140Y-89320000D01*
X137475736Y-89555407D01*
X137482875Y-89582049D01*
X137536897Y-89783663D01*
X137636765Y-89997830D01*
X137772305Y-90191401D01*
X137939399Y-90358495D01*
X138124960Y-90488426D01*
X138163824Y-90532743D01*
X138177835Y-90590000D01*
X138163824Y-90647257D01*
X138124959Y-90691575D01*
X137939395Y-90821508D01*
X137772305Y-90988598D01*
X137636765Y-91182170D01*
X137536897Y-91396336D01*
X137475736Y-91624592D01*
X137455140Y-91859999D01*
X137475736Y-92095407D01*
X137505835Y-92207738D01*
X137536897Y-92323663D01*
X137636765Y-92537830D01*
X137772305Y-92731401D01*
X137939399Y-92898495D01*
X138124960Y-93028426D01*
X138163824Y-93072743D01*
X138177835Y-93130000D01*
X138163824Y-93187257D01*
X138124959Y-93231575D01*
X137939395Y-93361508D01*
X137772305Y-93528598D01*
X137636765Y-93722170D01*
X137536897Y-93936336D01*
X137475736Y-94164592D01*
X137455140Y-94400000D01*
X137475736Y-94635407D01*
X137518072Y-94793407D01*
X137536897Y-94863663D01*
X137636765Y-95077830D01*
X137772305Y-95271401D01*
X137939399Y-95438495D01*
X138124960Y-95568426D01*
X138163824Y-95612743D01*
X138177835Y-95670000D01*
X138163824Y-95727257D01*
X138124959Y-95771575D01*
X137939395Y-95901508D01*
X137772305Y-96068598D01*
X137636765Y-96262170D01*
X137536897Y-96476336D01*
X137475736Y-96704592D01*
X137455140Y-96939999D01*
X137475736Y-97175407D01*
X137518072Y-97333407D01*
X137536897Y-97403663D01*
X137636765Y-97617830D01*
X137772305Y-97811401D01*
X137939399Y-97978495D01*
X138124960Y-98108426D01*
X138163824Y-98152743D01*
X138177835Y-98210000D01*
X138163824Y-98267257D01*
X138124959Y-98311575D01*
X137939395Y-98441508D01*
X137772305Y-98608598D01*
X137636765Y-98802170D01*
X137536897Y-99016336D01*
X137475736Y-99244592D01*
X137455140Y-99479999D01*
X137475736Y-99715407D01*
X137520509Y-99882502D01*
X137536897Y-99943663D01*
X137636765Y-100157830D01*
X137772305Y-100351401D01*
X137939399Y-100518495D01*
X138124960Y-100648426D01*
X138163824Y-100692743D01*
X138177835Y-100750000D01*
X138163824Y-100807257D01*
X138124958Y-100851575D01*
X138010266Y-100931884D01*
X137939395Y-100981508D01*
X137772305Y-101148598D01*
X137636765Y-101342170D01*
X137536897Y-101556336D01*
X137475736Y-101784592D01*
X137455140Y-102020000D01*
X137475736Y-102255407D01*
X137512607Y-102393011D01*
X137536897Y-102483663D01*
X137636765Y-102697830D01*
X137772305Y-102891401D01*
X137939399Y-103058495D01*
X138124960Y-103188426D01*
X138163824Y-103232743D01*
X138177835Y-103290000D01*
X138163824Y-103347257D01*
X138124960Y-103391574D01*
X137962570Y-103505281D01*
X137939395Y-103521508D01*
X137772305Y-103688598D01*
X137636765Y-103882170D01*
X137536897Y-104096336D01*
X137475736Y-104324592D01*
X137455140Y-104560000D01*
X137475736Y-104795407D01*
X137486160Y-104834308D01*
X137536897Y-105023663D01*
X137636765Y-105237830D01*
X137772305Y-105431401D01*
X137939399Y-105598495D01*
X138124960Y-105728426D01*
X138163824Y-105772743D01*
X138177835Y-105830000D01*
X138163824Y-105887257D01*
X138124958Y-105931575D01*
X137963554Y-106044592D01*
X137939395Y-106061508D01*
X137772305Y-106228598D01*
X137636765Y-106422170D01*
X137536897Y-106636336D01*
X137475736Y-106864592D01*
X137455140Y-107100000D01*
X137475736Y-107335407D01*
X137507034Y-107452211D01*
X137536897Y-107563663D01*
X137636765Y-107777830D01*
X137772305Y-107971401D01*
X137939399Y-108138495D01*
X138132970Y-108274035D01*
X138132974Y-108274036D01*
X138139955Y-108278925D01*
X138180281Y-108326142D01*
X138192661Y-108386990D01*
X138173989Y-108446210D01*
X138128947Y-108488953D01*
X138068831Y-108504500D01*
X138024457Y-108504500D01*
X137724161Y-108542436D01*
X137430992Y-108617709D01*
X137149561Y-108729135D01*
X136884319Y-108874953D01*
X136639446Y-109052863D01*
X136418798Y-109260066D01*
X136257963Y-109454483D01*
X136225862Y-109493287D01*
X136177947Y-109568789D01*
X136063677Y-109748850D01*
X135934799Y-110022730D01*
X135841267Y-110310590D01*
X135784549Y-110607920D01*
X135765543Y-110910000D01*
X121536056Y-110910000D01*
X121517050Y-110607915D01*
X121460333Y-110310594D01*
X121459481Y-110307973D01*
X121388846Y-110090581D01*
X121366799Y-110022726D01*
X121237923Y-109748850D01*
X121078475Y-109497600D01*
X123789540Y-109497600D01*
X123810136Y-109733007D01*
X123844277Y-109860422D01*
X123871297Y-109961263D01*
X123971165Y-110175430D01*
X124106705Y-110369001D01*
X124273799Y-110536095D01*
X124467370Y-110671635D01*
X124681537Y-110771503D01*
X124909792Y-110832663D01*
X125145200Y-110853259D01*
X125380608Y-110832663D01*
X125608863Y-110771503D01*
X125823030Y-110671635D01*
X126016601Y-110536095D01*
X126183695Y-110369001D01*
X126319235Y-110175430D01*
X126419103Y-109961263D01*
X126480263Y-109733008D01*
X126500859Y-109497600D01*
X127289540Y-109497600D01*
X127310136Y-109733007D01*
X127344277Y-109860422D01*
X127371297Y-109961263D01*
X127471165Y-110175430D01*
X127606705Y-110369001D01*
X127773799Y-110536095D01*
X127967370Y-110671635D01*
X128181537Y-110771503D01*
X128409792Y-110832663D01*
X128645200Y-110853259D01*
X128880608Y-110832663D01*
X129108863Y-110771503D01*
X129323030Y-110671635D01*
X129516601Y-110536095D01*
X129683695Y-110369001D01*
X129819235Y-110175430D01*
X129919103Y-109961263D01*
X129980263Y-109733008D01*
X130000859Y-109497600D01*
X130789540Y-109497600D01*
X130810136Y-109733007D01*
X130844277Y-109860422D01*
X130871297Y-109961263D01*
X130971165Y-110175430D01*
X131106705Y-110369001D01*
X131273799Y-110536095D01*
X131467370Y-110671635D01*
X131681537Y-110771503D01*
X131909792Y-110832663D01*
X132145200Y-110853259D01*
X132380608Y-110832663D01*
X132608863Y-110771503D01*
X132823030Y-110671635D01*
X133016601Y-110536095D01*
X133183695Y-110369001D01*
X133319235Y-110175430D01*
X133419103Y-109961263D01*
X133480263Y-109733008D01*
X133500859Y-109497600D01*
X133480263Y-109262192D01*
X133419103Y-109033937D01*
X133319235Y-108819771D01*
X133183695Y-108626199D01*
X133016601Y-108459105D01*
X132823030Y-108323565D01*
X132608863Y-108223697D01*
X132547701Y-108207309D01*
X132380607Y-108162536D01*
X132145200Y-108141940D01*
X131909792Y-108162536D01*
X131681536Y-108223697D01*
X131467370Y-108323565D01*
X131273798Y-108459105D01*
X131106705Y-108626198D01*
X130971165Y-108819770D01*
X130871297Y-109033936D01*
X130810136Y-109262192D01*
X130789540Y-109497600D01*
X130000859Y-109497600D01*
X129980263Y-109262192D01*
X129979378Y-109252074D01*
X129986384Y-109198856D01*
X130015223Y-109153587D01*
X131869247Y-107299563D01*
X131882872Y-107287788D01*
X131901258Y-107274102D01*
X131931943Y-107237531D01*
X131939231Y-107229580D01*
X131942886Y-107225926D01*
X131961451Y-107202444D01*
X131963660Y-107199732D01*
X132010273Y-107144183D01*
X132010274Y-107144179D01*
X132011272Y-107142991D01*
X132021030Y-107127676D01*
X132052311Y-107060592D01*
X132053867Y-107057377D01*
X132086388Y-106992625D01*
X132086388Y-106992620D01*
X132087084Y-106991237D01*
X132093049Y-106974076D01*
X132093361Y-106972560D01*
X132093364Y-106972556D01*
X132108027Y-106901535D01*
X132108782Y-106898131D01*
X132125500Y-106827599D01*
X132125500Y-106827593D01*
X132125857Y-106826087D01*
X132127704Y-106808013D01*
X132127659Y-106806466D01*
X132127660Y-106806462D01*
X132125552Y-106734018D01*
X132125500Y-106730412D01*
X132125500Y-84917366D01*
X132140739Y-84857808D01*
X132192321Y-84763613D01*
X136852396Y-76253654D01*
X136893355Y-76209392D01*
X136950350Y-76189685D01*
X137007785Y-76184659D01*
X137030608Y-76182663D01*
X137258863Y-76121503D01*
X137473030Y-76021635D01*
X137666601Y-75886095D01*
X137833695Y-75719001D01*
X137969235Y-75525430D01*
X138069103Y-75311263D01*
X138130263Y-75083008D01*
X138150859Y-74847600D01*
X138130263Y-74612192D01*
X138069103Y-74383937D01*
X137969235Y-74169771D01*
X137833695Y-73976199D01*
X137666601Y-73809105D01*
X137481039Y-73679173D01*
X137442175Y-73634857D01*
X137428164Y-73577600D01*
X137442175Y-73520343D01*
X137481039Y-73476026D01*
X137666601Y-73346095D01*
X137833695Y-73179001D01*
X137969235Y-72985430D01*
X138069103Y-72771263D01*
X138130263Y-72543008D01*
X138150859Y-72307600D01*
X138130263Y-72072192D01*
X138069103Y-71843937D01*
X137969235Y-71629771D01*
X137833695Y-71436199D01*
X137666601Y-71269105D01*
X137473030Y-71133565D01*
X137258863Y-71033697D01*
X137197701Y-71017309D01*
X137030607Y-70972536D01*
X136795200Y-70951940D01*
X136559792Y-70972536D01*
X136331536Y-71033697D01*
X136117370Y-71133565D01*
X135923798Y-71269105D01*
X135756705Y-71436198D01*
X135621165Y-71629770D01*
X135521297Y-71843936D01*
X135460136Y-72072192D01*
X135439540Y-72307600D01*
X135460136Y-72543007D01*
X135469541Y-72578106D01*
X135521297Y-72771263D01*
X135621165Y-72985430D01*
X135756705Y-73179001D01*
X135923799Y-73346095D01*
X136109360Y-73476026D01*
X136148224Y-73520343D01*
X136162235Y-73577600D01*
X136148224Y-73634857D01*
X136109359Y-73679175D01*
X135923795Y-73809108D01*
X135756705Y-73976198D01*
X135621165Y-74169770D01*
X135521297Y-74383936D01*
X135460136Y-74612192D01*
X135439540Y-74847600D01*
X135460136Y-75083007D01*
X135521297Y-75311265D01*
X135583455Y-75444563D01*
X135595008Y-75500976D01*
X135579834Y-75556525D01*
X130804008Y-84277862D01*
X130790242Y-84298003D01*
X130789728Y-84298615D01*
X130758445Y-84360903D01*
X130756399Y-84364802D01*
X130743365Y-84388606D01*
X130740390Y-84395954D01*
X130736267Y-84405061D01*
X130713612Y-84450171D01*
X130708965Y-84469779D01*
X130703248Y-84487705D01*
X130695691Y-84506372D01*
X130688054Y-84556252D01*
X130686141Y-84566076D01*
X130674500Y-84615198D01*
X130674500Y-84635342D01*
X130673072Y-84654107D01*
X130670024Y-84674014D01*
X130674096Y-84724320D01*
X130674500Y-84734324D01*
X130674500Y-106390926D01*
X130665061Y-106438379D01*
X130638181Y-106478607D01*
X128989213Y-108127574D01*
X128943943Y-108156415D01*
X128890725Y-108163421D01*
X128645200Y-108141940D01*
X128409792Y-108162536D01*
X128181536Y-108223697D01*
X127967370Y-108323565D01*
X127773798Y-108459105D01*
X127606705Y-108626198D01*
X127471165Y-108819770D01*
X127371297Y-109033936D01*
X127310136Y-109262192D01*
X127289540Y-109497600D01*
X126500859Y-109497600D01*
X126480263Y-109262192D01*
X126419103Y-109033937D01*
X126319235Y-108819771D01*
X126183695Y-108626199D01*
X126016601Y-108459105D01*
X125823030Y-108323565D01*
X125608863Y-108223697D01*
X125547701Y-108207309D01*
X125380607Y-108162536D01*
X125145200Y-108141940D01*
X124909792Y-108162536D01*
X124681536Y-108223697D01*
X124467370Y-108323565D01*
X124273798Y-108459105D01*
X124106705Y-108626198D01*
X123971165Y-108819770D01*
X123871297Y-109033936D01*
X123810136Y-109262192D01*
X123789540Y-109497600D01*
X121078475Y-109497600D01*
X121075738Y-109493287D01*
X120882801Y-109260066D01*
X120817619Y-109198856D01*
X120662153Y-109052863D01*
X120417280Y-108874953D01*
X120152038Y-108729135D01*
X119961145Y-108653555D01*
X119870610Y-108617710D01*
X119870608Y-108617709D01*
X119870607Y-108617709D01*
X119577438Y-108542436D01*
X119277143Y-108504500D01*
X119277141Y-108504500D01*
X119207369Y-108504500D01*
X119147253Y-108488953D01*
X119102211Y-108446210D01*
X119083539Y-108386990D01*
X119095919Y-108326142D01*
X119136245Y-108278925D01*
X119143225Y-108274036D01*
X119143230Y-108274035D01*
X119336801Y-108138495D01*
X119503895Y-107971401D01*
X119639435Y-107777830D01*
X119739303Y-107563663D01*
X119800463Y-107335408D01*
X119821059Y-107100000D01*
X119800463Y-106864592D01*
X119739303Y-106636337D01*
X119639435Y-106422171D01*
X119503895Y-106228599D01*
X119336801Y-106061505D01*
X119163938Y-105940465D01*
X119125075Y-105896149D01*
X119111064Y-105838892D01*
X119125075Y-105781635D01*
X119163941Y-105737317D01*
X119168624Y-105734037D01*
X119168630Y-105734035D01*
X119362201Y-105598495D01*
X119529295Y-105431401D01*
X119664835Y-105237830D01*
X119764703Y-105023663D01*
X119825863Y-104795408D01*
X119846459Y-104560000D01*
X119825863Y-104324592D01*
X119764703Y-104096337D01*
X119664835Y-103882171D01*
X119529295Y-103688599D01*
X119362201Y-103521505D01*
X119176639Y-103391573D01*
X119137774Y-103347255D01*
X119123764Y-103289999D01*
X119137775Y-103232742D01*
X119176637Y-103188428D01*
X119362201Y-103058495D01*
X119529295Y-102891401D01*
X119664835Y-102697830D01*
X119764703Y-102483663D01*
X119825863Y-102255408D01*
X119846459Y-102020000D01*
X119838147Y-101925001D01*
X119825863Y-101784592D01*
X119813886Y-101739893D01*
X119764703Y-101556337D01*
X119664835Y-101342171D01*
X119529295Y-101148599D01*
X119362201Y-100981505D01*
X119176639Y-100851573D01*
X119137775Y-100807257D01*
X119123764Y-100750000D01*
X119137775Y-100692743D01*
X119176639Y-100648426D01*
X119362201Y-100518495D01*
X119529295Y-100351401D01*
X119664835Y-100157830D01*
X119764703Y-99943663D01*
X119825863Y-99715408D01*
X119846459Y-99480000D01*
X119825863Y-99244592D01*
X119764703Y-99016337D01*
X119664835Y-98802171D01*
X119529295Y-98608599D01*
X119362201Y-98441505D01*
X119176639Y-98311573D01*
X119137775Y-98267257D01*
X119123764Y-98210000D01*
X119137775Y-98152743D01*
X119176639Y-98108426D01*
X119362201Y-97978495D01*
X119529295Y-97811401D01*
X119664835Y-97617830D01*
X119764703Y-97403663D01*
X119825863Y-97175408D01*
X119846459Y-96940000D01*
X119825863Y-96704592D01*
X119764703Y-96476337D01*
X119664835Y-96262171D01*
X119529295Y-96068599D01*
X119362201Y-95901505D01*
X119176639Y-95771573D01*
X119137775Y-95727257D01*
X119123764Y-95670000D01*
X119137775Y-95612743D01*
X119176639Y-95568426D01*
X119362201Y-95438495D01*
X119529295Y-95271401D01*
X119664835Y-95077830D01*
X119764703Y-94863663D01*
X119825863Y-94635408D01*
X119846459Y-94400000D01*
X119825863Y-94164592D01*
X119764703Y-93936337D01*
X119664835Y-93722171D01*
X119529295Y-93528599D01*
X119362201Y-93361505D01*
X119176639Y-93231573D01*
X119137775Y-93187257D01*
X119123764Y-93130000D01*
X119137775Y-93072743D01*
X119176639Y-93028426D01*
X119362201Y-92898495D01*
X119529295Y-92731401D01*
X119664835Y-92537830D01*
X119764703Y-92323663D01*
X119825863Y-92095408D01*
X119846459Y-91860000D01*
X119825863Y-91624592D01*
X119764703Y-91396337D01*
X119664835Y-91182171D01*
X119529295Y-90988599D01*
X119362201Y-90821505D01*
X119176639Y-90691573D01*
X119137775Y-90647257D01*
X119123764Y-90590000D01*
X119137775Y-90532743D01*
X119176639Y-90488426D01*
X119362201Y-90358495D01*
X119529295Y-90191401D01*
X119664835Y-89997830D01*
X119764703Y-89783663D01*
X119825863Y-89555408D01*
X119846459Y-89320000D01*
X119825863Y-89084592D01*
X119764703Y-88856337D01*
X119664835Y-88642171D01*
X119529295Y-88448599D01*
X119362201Y-88281505D01*
X119176639Y-88151573D01*
X119137776Y-88107257D01*
X119123765Y-88050000D01*
X119137776Y-87992743D01*
X119176639Y-87948426D01*
X119362201Y-87818495D01*
X119529295Y-87651401D01*
X119664835Y-87457830D01*
X119764703Y-87243663D01*
X119825863Y-87015408D01*
X119846459Y-86780000D01*
X119825863Y-86544592D01*
X119764703Y-86316337D01*
X119664835Y-86102171D01*
X119529295Y-85908599D01*
X119362201Y-85741505D01*
X119176639Y-85611573D01*
X119137775Y-85567257D01*
X119123764Y-85510000D01*
X119137775Y-85452743D01*
X119176639Y-85408426D01*
X119362201Y-85278495D01*
X119529295Y-85111401D01*
X119664835Y-84917830D01*
X119764703Y-84703663D01*
X119825863Y-84475408D01*
X119846459Y-84240000D01*
X119825863Y-84004592D01*
X119764703Y-83776337D01*
X119664835Y-83562171D01*
X119529295Y-83368599D01*
X119362201Y-83201505D01*
X119176639Y-83071573D01*
X119137775Y-83027257D01*
X119123764Y-82970000D01*
X119137775Y-82912743D01*
X119176639Y-82868426D01*
X119362201Y-82738495D01*
X119529295Y-82571401D01*
X119664835Y-82377830D01*
X119764703Y-82163663D01*
X119825863Y-81935408D01*
X119846459Y-81700000D01*
X119825863Y-81464592D01*
X119764703Y-81236337D01*
X119664835Y-81022171D01*
X119529295Y-80828599D01*
X119362201Y-80661505D01*
X119176639Y-80531573D01*
X119137774Y-80487255D01*
X119123764Y-80429999D01*
X119137775Y-80372742D01*
X119176637Y-80328428D01*
X119362201Y-80198495D01*
X119529295Y-80031401D01*
X119664835Y-79837830D01*
X119764703Y-79623663D01*
X119825863Y-79395408D01*
X119846459Y-79160000D01*
X119825863Y-78924592D01*
X119764703Y-78696337D01*
X119664835Y-78482171D01*
X119529295Y-78288599D01*
X119362201Y-78121505D01*
X119176639Y-77991573D01*
X119137775Y-77947257D01*
X119123764Y-77890000D01*
X119137775Y-77832743D01*
X119176639Y-77788426D01*
X119362201Y-77658495D01*
X119529295Y-77491401D01*
X119664835Y-77297830D01*
X119764703Y-77083663D01*
X119825863Y-76855408D01*
X119846459Y-76620000D01*
X119825863Y-76384592D01*
X119764703Y-76156337D01*
X119664835Y-75942171D01*
X119529295Y-75748599D01*
X119362201Y-75581505D01*
X119176202Y-75451267D01*
X119137339Y-75406951D01*
X119123328Y-75349694D01*
X119137339Y-75292437D01*
X119176205Y-75248119D01*
X119361878Y-75118109D01*
X119528906Y-74951081D01*
X119664400Y-74757576D01*
X119764230Y-74543492D01*
X119821436Y-74330000D01*
X117160164Y-74330000D01*
X117217369Y-74543492D01*
X117317199Y-74757576D01*
X117452693Y-74951081D01*
X117619718Y-75118106D01*
X117805395Y-75248119D01*
X117844260Y-75292437D01*
X117858271Y-75349694D01*
X117844260Y-75406951D01*
X117805395Y-75451269D01*
X117619395Y-75581508D01*
X117452305Y-75748598D01*
X117359958Y-75880483D01*
X117356033Y-75886091D01*
X117352159Y-75891623D01*
X117307841Y-75930489D01*
X117250584Y-75944500D01*
X92531016Y-75944500D01*
X92473759Y-75930489D01*
X92429441Y-75891623D01*
X92425570Y-75886095D01*
X92329295Y-75748599D01*
X92162201Y-75581505D01*
X91976202Y-75451267D01*
X91937339Y-75406951D01*
X91923328Y-75349694D01*
X91937339Y-75292437D01*
X91976205Y-75248119D01*
X92161878Y-75118109D01*
X92328906Y-74951081D01*
X92464400Y-74757576D01*
X92564230Y-74543492D01*
X92621436Y-74330000D01*
X89960164Y-74330000D01*
X90017369Y-74543492D01*
X90117199Y-74757576D01*
X90252693Y-74951081D01*
X90419718Y-75118106D01*
X90605395Y-75248119D01*
X90644260Y-75292437D01*
X90658271Y-75349694D01*
X90644260Y-75406951D01*
X90605395Y-75451269D01*
X90419395Y-75581508D01*
X90252305Y-75748598D01*
X90116765Y-75942170D01*
X90016897Y-76156336D01*
X89955736Y-76384592D01*
X89935140Y-76620000D01*
X89955736Y-76855407D01*
X89993909Y-76997869D01*
X90016897Y-77083663D01*
X90116765Y-77297830D01*
X90252305Y-77491401D01*
X90419399Y-77658495D01*
X90604960Y-77788426D01*
X90643824Y-77832743D01*
X90657835Y-77890000D01*
X90643824Y-77947257D01*
X90604958Y-77991575D01*
X90432623Y-78112246D01*
X90419395Y-78121508D01*
X90252305Y-78288598D01*
X90152159Y-78431623D01*
X90107841Y-78470489D01*
X90050584Y-78484500D01*
X87664151Y-78484500D01*
X87656665Y-78484274D01*
X87654385Y-78484136D01*
X87598912Y-78480780D01*
X87542011Y-78491207D01*
X87534612Y-78492333D01*
X87477157Y-78499310D01*
X87468383Y-78502638D01*
X87446776Y-78508661D01*
X87437562Y-78510349D01*
X87384782Y-78534102D01*
X87377868Y-78536965D01*
X87323775Y-78557481D01*
X87316058Y-78562807D01*
X87296524Y-78573824D01*
X87287973Y-78577673D01*
X87242417Y-78613363D01*
X87236387Y-78617800D01*
X87188770Y-78650668D01*
X87150406Y-78693972D01*
X87145273Y-78699424D01*
X85312180Y-80532517D01*
X85262817Y-80562767D01*
X85205101Y-80567309D01*
X85151614Y-80545154D01*
X85114014Y-80501131D01*
X85100499Y-80444840D01*
X85100499Y-76552128D01*
X85094091Y-76492517D01*
X85043796Y-76357669D01*
X84957546Y-76242454D01*
X84842331Y-76156204D01*
X84707483Y-76105909D01*
X84692890Y-76100466D01*
X84693177Y-76099695D01*
X84655000Y-76085716D01*
X84614969Y-76041153D01*
X84600500Y-75983024D01*
X84600500Y-71790000D01*
X89960164Y-71790000D01*
X90017369Y-72003492D01*
X90117199Y-72217576D01*
X90252693Y-72411081D01*
X90419718Y-72578106D01*
X90605831Y-72708425D01*
X90644696Y-72752743D01*
X90658707Y-72810000D01*
X90644696Y-72867257D01*
X90605831Y-72911575D01*
X90419718Y-73041893D01*
X90252690Y-73208921D01*
X90117200Y-73402421D01*
X90017369Y-73616507D01*
X89960164Y-73829999D01*
X89960164Y-73830000D01*
X91040800Y-73830000D01*
X91040800Y-71790000D01*
X91540800Y-71790000D01*
X91540800Y-73830000D01*
X92621436Y-73830000D01*
X92621435Y-73829999D01*
X92564230Y-73616507D01*
X92464399Y-73402421D01*
X92328909Y-73208921D01*
X92161881Y-73041893D01*
X91975768Y-72911575D01*
X91936903Y-72867257D01*
X91922892Y-72810000D01*
X91936903Y-72752743D01*
X91975768Y-72708425D01*
X92161881Y-72578106D01*
X92328906Y-72411081D01*
X92464400Y-72217576D01*
X92564230Y-72003492D01*
X92621436Y-71790000D01*
X117160164Y-71790000D01*
X117217369Y-72003492D01*
X117317199Y-72217576D01*
X117452693Y-72411081D01*
X117619718Y-72578106D01*
X117805831Y-72708425D01*
X117844696Y-72752743D01*
X117858707Y-72810000D01*
X117844696Y-72867257D01*
X117805831Y-72911575D01*
X117619718Y-73041893D01*
X117452690Y-73208921D01*
X117317200Y-73402421D01*
X117217369Y-73616507D01*
X117160164Y-73829999D01*
X117160164Y-73830000D01*
X118240800Y-73830000D01*
X118240800Y-71790000D01*
X118740800Y-71790000D01*
X118740800Y-73830000D01*
X119821436Y-73830000D01*
X119821435Y-73829999D01*
X119764230Y-73616507D01*
X119664399Y-73402421D01*
X119528909Y-73208921D01*
X119361881Y-73041893D01*
X119175768Y-72911575D01*
X119136903Y-72867257D01*
X119122892Y-72810000D01*
X119136903Y-72752743D01*
X119175768Y-72708425D01*
X119361881Y-72578106D01*
X119528906Y-72411081D01*
X119664400Y-72217576D01*
X119764230Y-72003492D01*
X119821436Y-71790000D01*
X118740800Y-71790000D01*
X118240800Y-71790000D01*
X117160164Y-71790000D01*
X92621436Y-71790000D01*
X91540800Y-71790000D01*
X91040800Y-71790000D01*
X89960164Y-71790000D01*
X84600500Y-71790000D01*
X84600500Y-66315783D01*
X84609939Y-66268330D01*
X84636819Y-66228102D01*
X85893336Y-64971584D01*
X85893335Y-64971584D01*
X85893340Y-64971580D01*
X85989698Y-64853407D01*
X86083909Y-64673049D01*
X86124683Y-64530553D01*
X86139887Y-64477419D01*
X86146872Y-64385683D01*
X86155337Y-64274524D01*
X86129630Y-64072672D01*
X86063816Y-63880128D01*
X85960590Y-63704773D01*
X85824179Y-63553787D01*
X85824178Y-63553786D01*
X85824176Y-63553784D01*
X85660166Y-63433350D01*
X85475268Y-63348394D01*
X85277054Y-63302397D01*
X85073639Y-63297242D01*
X84873345Y-63333142D01*
X84684380Y-63408623D01*
X84514481Y-63520596D01*
X82902645Y-65132433D01*
X82900398Y-65134624D01*
X82836948Y-65194940D01*
X82803244Y-65243362D01*
X82797573Y-65250882D01*
X82760301Y-65296593D01*
X82746210Y-65323566D01*
X82738082Y-65336983D01*
X82720705Y-65361950D01*
X82697439Y-65416165D01*
X82693399Y-65424671D01*
X82666090Y-65476952D01*
X82657720Y-65506201D01*
X82652459Y-65520978D01*
X82640460Y-65548942D01*
X82628587Y-65606713D01*
X82626342Y-65615860D01*
X82610113Y-65672580D01*
X82607802Y-65702925D01*
X82605622Y-65718466D01*
X82599500Y-65748259D01*
X82599500Y-65807242D01*
X82599142Y-65816656D01*
X82594663Y-65875477D01*
X82598506Y-65905651D01*
X82599500Y-65921317D01*
X82599500Y-75983024D01*
X82585031Y-76041153D01*
X82545001Y-76085716D01*
X82506822Y-76099696D01*
X82507110Y-76100466D01*
X82357669Y-76156204D01*
X82242454Y-76242454D01*
X82156204Y-76357668D01*
X82105909Y-76492516D01*
X82099500Y-76552130D01*
X82099500Y-80447869D01*
X82105909Y-80507484D01*
X82115246Y-80532517D01*
X82156204Y-80642331D01*
X82242454Y-80757546D01*
X82357669Y-80843796D01*
X82492517Y-80894091D01*
X82552127Y-80900500D01*
X84644836Y-80900499D01*
X84701131Y-80914014D01*
X84745154Y-80951614D01*
X84767309Y-81005101D01*
X84762767Y-81062817D01*
X84732517Y-81112180D01*
X79739424Y-86105273D01*
X79733972Y-86110406D01*
X79690668Y-86148770D01*
X79657800Y-86196387D01*
X79653363Y-86202417D01*
X79617673Y-86247973D01*
X79613824Y-86256524D01*
X79602807Y-86276058D01*
X79597481Y-86283775D01*
X79576965Y-86337868D01*
X79574102Y-86344782D01*
X79550349Y-86397562D01*
X79548661Y-86406776D01*
X79542638Y-86428383D01*
X79539310Y-86437157D01*
X79532333Y-86494612D01*
X79531207Y-86502011D01*
X79520780Y-86558912D01*
X79524274Y-86616664D01*
X79524500Y-86624151D01*
X79524500Y-88825501D01*
X79507887Y-88887501D01*
X79462500Y-88932888D01*
X79400500Y-88949501D01*
X79152128Y-88949501D01*
X79122322Y-88952704D01*
X79092515Y-88955909D01*
X78957669Y-89006204D01*
X78842454Y-89092454D01*
X78756204Y-89207668D01*
X78705909Y-89342516D01*
X78699500Y-89402130D01*
X78699500Y-91497869D01*
X76274857Y-91497869D01*
X76388164Y-91374785D01*
X76524173Y-91166607D01*
X76624063Y-90938881D01*
X76685108Y-90697821D01*
X76705643Y-90450000D01*
X76685108Y-90202179D01*
X76624063Y-89961119D01*
X76524173Y-89733393D01*
X76388164Y-89525215D01*
X76219744Y-89342262D01*
X76191142Y-89320000D01*
X76023514Y-89189529D01*
X76023510Y-89189526D01*
X76023509Y-89189526D01*
X75804810Y-89071172D01*
X75804806Y-89071170D01*
X75804805Y-89071170D01*
X75569615Y-88990429D01*
X75324335Y-88949500D01*
X75075665Y-88949500D01*
X74830384Y-88990429D01*
X74595194Y-89071170D01*
X74595190Y-89071171D01*
X74595190Y-89071172D01*
X74555864Y-89092454D01*
X74376485Y-89189529D01*
X74180259Y-89342259D01*
X74180256Y-89342261D01*
X74180256Y-89342262D01*
X74125144Y-89402130D01*
X74011837Y-89525214D01*
X73875825Y-89733395D01*
X73801814Y-89902125D01*
X73775937Y-89961119D01*
X73717621Y-90191401D01*
X73714891Y-90202183D01*
X73694356Y-90450000D01*
X68570749Y-90450000D01*
X68600500Y-90243079D01*
X68600500Y-89956921D01*
X68559775Y-89673678D01*
X68553598Y-89652641D01*
X68552427Y-89587039D01*
X68584892Y-89530026D01*
X69278100Y-88836819D01*
X69318329Y-88809939D01*
X69365782Y-88800500D01*
X70285721Y-88800500D01*
X70288862Y-88800539D01*
X70376363Y-88802757D01*
X70434432Y-88792348D01*
X70443736Y-88791043D01*
X70502438Y-88785074D01*
X70531467Y-88775965D01*
X70546700Y-88772226D01*
X70576653Y-88766858D01*
X70631426Y-88744978D01*
X70640301Y-88741819D01*
X70657675Y-88736367D01*
X70696588Y-88724159D01*
X70723194Y-88709390D01*
X70737362Y-88702662D01*
X70765617Y-88691377D01*
X70814879Y-88658909D01*
X70822910Y-88654043D01*
X70874502Y-88625409D01*
X70897587Y-88605589D01*
X70910114Y-88596144D01*
X70935519Y-88579402D01*
X70977251Y-88537668D01*
X70984123Y-88531300D01*
X71028895Y-88492866D01*
X71047524Y-88468798D01*
X71057883Y-88457036D01*
X77428101Y-82086817D01*
X77468329Y-82059938D01*
X77515782Y-82050499D01*
X78347870Y-82050499D01*
X78347872Y-82050499D01*
X78407483Y-82044091D01*
X78542331Y-81993796D01*
X78657546Y-81907546D01*
X78743796Y-81792331D01*
X78794091Y-81657483D01*
X78800500Y-81597873D01*
X78800499Y-80002128D01*
X78794091Y-79942517D01*
X78743796Y-79807669D01*
X78735991Y-79797243D01*
X78681394Y-79724311D01*
X78659494Y-79676358D01*
X78659494Y-79623642D01*
X78681394Y-79575689D01*
X78743796Y-79492331D01*
X78794091Y-79357483D01*
X78800500Y-79297873D01*
X78800499Y-77702128D01*
X78794091Y-77642517D01*
X78743796Y-77507669D01*
X78681392Y-77424308D01*
X78659494Y-77376357D01*
X78659494Y-77323640D01*
X78681393Y-77275690D01*
X78743796Y-77192331D01*
X78794091Y-77057483D01*
X78800500Y-76997873D01*
X78800499Y-75402128D01*
X78794091Y-75342517D01*
X78743796Y-75207669D01*
X78657546Y-75092454D01*
X78542331Y-75006204D01*
X78407483Y-74955909D01*
X78347873Y-74949500D01*
X78347869Y-74949500D01*
X76252130Y-74949500D01*
X76192515Y-74955909D01*
X76057669Y-75006204D01*
X75942451Y-75092456D01*
X75899515Y-75149811D01*
X75855753Y-75186384D01*
X75800249Y-75199500D01*
X74143437Y-75199500D01*
X74140296Y-75199460D01*
X74139014Y-75199427D01*
X74052812Y-75197242D01*
X73994755Y-75207648D01*
X73985426Y-75208957D01*
X73926737Y-75214926D01*
X73897702Y-75224035D01*
X73882465Y-75227774D01*
X73852525Y-75233141D01*
X73797742Y-75255022D01*
X73788873Y-75258179D01*
X73732585Y-75275841D01*
X73705984Y-75290605D01*
X73691814Y-75297335D01*
X73663560Y-75308622D01*
X73614296Y-75341087D01*
X73606245Y-75345964D01*
X73554673Y-75374590D01*
X73531589Y-75394407D01*
X73519062Y-75403853D01*
X73493656Y-75420598D01*
X73451950Y-75462303D01*
X73445043Y-75468704D01*
X73400278Y-75507135D01*
X73381655Y-75531193D01*
X73371283Y-75542969D01*
X71289825Y-77624428D01*
X71267243Y-77642284D01*
X71206652Y-77679658D01*
X71084660Y-77801649D01*
X70994091Y-77948484D01*
X70939825Y-78112246D01*
X70929500Y-78213323D01*
X70929500Y-78786676D01*
X70939825Y-78887752D01*
X70960706Y-78950764D01*
X70967000Y-78989768D01*
X70967000Y-80550232D01*
X70960706Y-80589237D01*
X70939825Y-80652248D01*
X70929500Y-80753323D01*
X70929500Y-81326676D01*
X70939825Y-81427752D01*
X70960706Y-81490764D01*
X70967000Y-81529768D01*
X70967000Y-81816718D01*
X70957561Y-81864171D01*
X70930683Y-81904396D01*
X70899673Y-81935407D01*
X70806658Y-82028421D01*
X70710303Y-82146591D01*
X70616089Y-82326955D01*
X70560112Y-82522580D01*
X70544663Y-82725477D01*
X70568512Y-82912743D01*
X70570370Y-82927328D01*
X70636184Y-83119872D01*
X70739410Y-83295227D01*
X70875821Y-83446213D01*
X70875823Y-83446215D01*
X71039833Y-83566650D01*
X71224730Y-83651605D01*
X71422946Y-83697603D01*
X71626361Y-83702757D01*
X71626361Y-83702756D01*
X71626363Y-83702757D01*
X71826653Y-83666858D01*
X71921134Y-83629117D01*
X72015616Y-83591378D01*
X72059933Y-83562170D01*
X72185519Y-83479402D01*
X72664929Y-82999989D01*
X72667060Y-82997912D01*
X72730553Y-82937559D01*
X72764259Y-82889130D01*
X72769928Y-82881613D01*
X72807198Y-82835907D01*
X72821283Y-82808939D01*
X72829418Y-82795515D01*
X72835873Y-82786240D01*
X72846795Y-82770549D01*
X72870068Y-82716315D01*
X72874088Y-82707850D01*
X72901409Y-82655549D01*
X72909775Y-82626308D01*
X72915039Y-82611519D01*
X72927040Y-82583558D01*
X72938917Y-82525756D01*
X72941152Y-82516648D01*
X72957386Y-82459918D01*
X72959696Y-82429578D01*
X72961876Y-82414040D01*
X72968000Y-82384242D01*
X72968000Y-82325256D01*
X72968358Y-82315841D01*
X72970925Y-82282125D01*
X72972837Y-82257024D01*
X72968994Y-82226848D01*
X72968000Y-82211183D01*
X72968000Y-82086017D01*
X72981597Y-82029561D01*
X73019407Y-81985487D01*
X73073138Y-81963460D01*
X73131001Y-81968310D01*
X73242247Y-82005174D01*
X73343323Y-82015500D01*
X73455998Y-82015499D01*
X73484031Y-82018709D01*
X73565446Y-82037603D01*
X73633251Y-82039321D01*
X73768861Y-82042757D01*
X73768861Y-82042756D01*
X73768863Y-82042757D01*
X73903032Y-82018709D01*
X73910090Y-82017444D01*
X73931967Y-82015499D01*
X74041677Y-82015499D01*
X74092214Y-82010336D01*
X74142753Y-82005174D01*
X74306516Y-81950908D01*
X74453350Y-81860340D01*
X74462075Y-81851615D01*
X74476872Y-81836819D01*
X74517100Y-81809939D01*
X74564553Y-81800500D01*
X74585217Y-81800500D01*
X74641512Y-81814015D01*
X74685535Y-81851615D01*
X74707690Y-81905102D01*
X74703148Y-81962818D01*
X74672898Y-82012181D01*
X69921899Y-86763181D01*
X69881671Y-86790061D01*
X69834218Y-86799500D01*
X68914239Y-86799500D01*
X68911097Y-86799460D01*
X68823635Y-86797243D01*
X68765589Y-86807646D01*
X68756264Y-86808954D01*
X68697562Y-86814925D01*
X68668528Y-86824034D01*
X68653288Y-86827775D01*
X68623345Y-86833142D01*
X68568568Y-86855021D01*
X68559698Y-86858179D01*
X68503410Y-86875841D01*
X68476809Y-86890605D01*
X68462639Y-86897335D01*
X68434385Y-86908622D01*
X68385121Y-86941087D01*
X68377070Y-86945964D01*
X68325498Y-86974590D01*
X68302414Y-86994407D01*
X68289887Y-87003853D01*
X68264481Y-87020598D01*
X68222775Y-87062303D01*
X68215868Y-87068704D01*
X68171103Y-87107135D01*
X68152479Y-87131194D01*
X68142107Y-87142970D01*
X67925296Y-87359782D01*
X67886428Y-87386089D01*
X67840566Y-87396066D01*
X67794283Y-87388283D01*
X67707483Y-87355909D01*
X67647873Y-87349500D01*
X67647869Y-87349500D01*
X66729997Y-87349500D01*
X66682544Y-87340061D01*
X66642316Y-87313181D01*
X58934708Y-79605573D01*
X58902614Y-79549986D01*
X58902614Y-79485798D01*
X58934706Y-79430213D01*
X75878101Y-62486819D01*
X75918330Y-62459939D01*
X75965783Y-62450500D01*
X91310930Y-62450500D01*
X91375080Y-62468383D01*
X91420727Y-62516874D01*
X91434704Y-62581987D01*
X91412980Y-62644940D01*
X91361822Y-62687574D01*
X91262443Y-62732302D01*
X91232997Y-62750103D01*
X90977681Y-62904445D01*
X90715745Y-63109660D01*
X90480460Y-63344945D01*
X90275245Y-63606881D01*
X90103102Y-63891642D01*
X89966534Y-64195083D01*
X89867545Y-64512753D01*
X89807564Y-64840057D01*
X89787472Y-65172200D01*
X89807564Y-65504342D01*
X89867545Y-65831646D01*
X89966534Y-66149316D01*
X90103102Y-66452757D01*
X90275245Y-66737518D01*
X90324690Y-66800629D01*
X90480458Y-66999452D01*
X90715748Y-67234742D01*
X90834485Y-67327766D01*
X90977681Y-67439954D01*
X90986735Y-67445427D01*
X91007123Y-67457752D01*
X91010348Y-67459701D01*
X91051269Y-67499966D01*
X91069668Y-67554347D01*
X91061603Y-67611187D01*
X91028801Y-67658302D01*
X90978294Y-67685594D01*
X90827135Y-67726097D01*
X90612970Y-67825965D01*
X90419398Y-67961505D01*
X90252305Y-68128598D01*
X90116765Y-68322170D01*
X90016897Y-68536336D01*
X89955736Y-68764592D01*
X89935140Y-69000000D01*
X89955736Y-69235407D01*
X90000509Y-69402502D01*
X90016897Y-69463663D01*
X90116765Y-69677830D01*
X90252305Y-69871401D01*
X90419399Y-70038495D01*
X90605397Y-70168732D01*
X90644260Y-70213048D01*
X90658271Y-70270305D01*
X90644261Y-70327561D01*
X90605395Y-70371880D01*
X90419719Y-70501892D01*
X90252690Y-70668921D01*
X90117200Y-70862421D01*
X90017369Y-71076507D01*
X89960164Y-71289999D01*
X89960164Y-71290000D01*
X92621436Y-71290000D01*
X92621435Y-71289999D01*
X92564230Y-71076507D01*
X92464399Y-70862421D01*
X92328909Y-70668921D01*
X92161881Y-70501893D01*
X91976204Y-70371880D01*
X91937339Y-70327562D01*
X91923328Y-70270305D01*
X91937339Y-70213048D01*
X91976202Y-70168732D01*
X92162201Y-70038495D01*
X92329295Y-69871401D01*
X92429442Y-69728375D01*
X92473760Y-69689511D01*
X92531017Y-69675500D01*
X95848642Y-69675500D01*
X95904394Y-69688740D01*
X95948240Y-69725634D01*
X95970817Y-69778301D01*
X95967302Y-69835496D01*
X95913253Y-70013667D01*
X95894901Y-70199999D01*
X95913253Y-70386332D01*
X95967603Y-70565500D01*
X96022882Y-70668921D01*
X96055864Y-70730625D01*
X96174643Y-70875357D01*
X96319375Y-70994136D01*
X96484499Y-71082396D01*
X96663669Y-71136747D01*
X96850000Y-71155099D01*
X97036331Y-71136747D01*
X97215501Y-71082396D01*
X97380625Y-70994136D01*
X97490885Y-70903647D01*
X97527777Y-70882749D01*
X97569551Y-70875500D01*
X101530449Y-70875500D01*
X101572223Y-70882749D01*
X101609114Y-70903647D01*
X101719375Y-70994136D01*
X101884499Y-71082396D01*
X102063669Y-71136747D01*
X102250000Y-71155099D01*
X102436331Y-71136747D01*
X102615501Y-71082396D01*
X102780625Y-70994136D01*
X102925357Y-70875357D01*
X103044136Y-70730625D01*
X103132396Y-70565501D01*
X103186747Y-70386331D01*
X103205099Y-70200000D01*
X103186747Y-70013669D01*
X103132697Y-69835494D01*
X103129183Y-69778301D01*
X103151760Y-69725634D01*
X103195606Y-69688740D01*
X103251358Y-69675500D01*
X117250583Y-69675500D01*
X117307840Y-69689511D01*
X117352157Y-69728375D01*
X117452305Y-69871401D01*
X117619399Y-70038495D01*
X117805397Y-70168732D01*
X117844260Y-70213048D01*
X117858271Y-70270305D01*
X117844261Y-70327561D01*
X117805395Y-70371880D01*
X117619719Y-70501892D01*
X117452690Y-70668921D01*
X117317200Y-70862421D01*
X117217369Y-71076507D01*
X117160164Y-71289999D01*
X117160164Y-71290000D01*
X119821436Y-71290000D01*
X119821435Y-71289999D01*
X119764230Y-71076507D01*
X119664399Y-70862421D01*
X119528909Y-70668921D01*
X119361881Y-70501893D01*
X119176204Y-70371880D01*
X119137339Y-70327562D01*
X119123328Y-70270305D01*
X119137339Y-70213048D01*
X119176202Y-70168732D01*
X119362201Y-70038495D01*
X119529295Y-69871401D01*
X119664835Y-69677830D01*
X119764703Y-69463663D01*
X119825863Y-69235408D01*
X119846459Y-69000000D01*
X119825863Y-68764592D01*
X119764703Y-68536337D01*
X119664835Y-68322171D01*
X119532524Y-68133211D01*
X119510257Y-68068329D01*
X119525890Y-68001536D01*
X119574641Y-67953275D01*
X119641584Y-67938315D01*
X119760800Y-67945527D01*
X120092942Y-67925436D01*
X120420241Y-67865456D01*
X120737923Y-67766463D01*
X121041357Y-67629898D01*
X121326118Y-67457754D01*
X121588052Y-67252542D01*
X121823342Y-67017252D01*
X122028554Y-66755318D01*
X122200698Y-66470557D01*
X122337263Y-66167123D01*
X122436256Y-65849441D01*
X122496236Y-65522142D01*
X122516327Y-65190000D01*
X122496236Y-64857858D01*
X122436256Y-64530559D01*
X122391111Y-64385682D01*
X122351904Y-64259861D01*
X122349542Y-64194753D01*
X122380515Y-64137434D01*
X122436270Y-64103729D01*
X122501417Y-64102942D01*
X122557969Y-64135289D01*
X123899630Y-65476951D01*
X125223308Y-66800629D01*
X125248009Y-66835905D01*
X125259155Y-66877502D01*
X125270136Y-67003007D01*
X125314909Y-67170102D01*
X125331297Y-67231263D01*
X125431165Y-67445430D01*
X125566705Y-67639001D01*
X125733799Y-67806095D01*
X125927370Y-67941635D01*
X126141537Y-68041503D01*
X126369792Y-68102663D01*
X126605200Y-68123259D01*
X126840608Y-68102663D01*
X127068863Y-68041503D01*
X127283030Y-67941635D01*
X127476601Y-67806095D01*
X127643695Y-67639001D01*
X127779235Y-67445430D01*
X127879103Y-67231263D01*
X127940263Y-67003008D01*
X127960859Y-66767600D01*
X127960859Y-66767599D01*
X128749540Y-66767599D01*
X128770136Y-67003007D01*
X128814909Y-67170102D01*
X128831297Y-67231263D01*
X128931165Y-67445430D01*
X129066705Y-67639001D01*
X129233799Y-67806095D01*
X129427370Y-67941635D01*
X129641537Y-68041503D01*
X129869792Y-68102663D01*
X130105200Y-68123259D01*
X130340608Y-68102663D01*
X130568863Y-68041503D01*
X130783030Y-67941635D01*
X130976601Y-67806095D01*
X131143695Y-67639001D01*
X131279235Y-67445430D01*
X131379103Y-67231263D01*
X131440263Y-67003008D01*
X131460859Y-66767600D01*
X131440263Y-66532192D01*
X131379103Y-66303937D01*
X131279235Y-66089771D01*
X131143695Y-65896199D01*
X130976601Y-65729105D01*
X130783030Y-65593565D01*
X130568863Y-65493697D01*
X130506365Y-65476951D01*
X130340607Y-65432536D01*
X130105200Y-65411940D01*
X129869792Y-65432536D01*
X129641536Y-65493697D01*
X129427370Y-65593565D01*
X129233798Y-65729105D01*
X129066705Y-65896198D01*
X128931165Y-66089770D01*
X128831297Y-66303936D01*
X128770136Y-66532192D01*
X128749540Y-66767599D01*
X127960859Y-66767599D01*
X127940263Y-66532192D01*
X127879103Y-66303937D01*
X127779235Y-66089771D01*
X127643695Y-65896199D01*
X127476601Y-65729105D01*
X127283030Y-65593565D01*
X127068863Y-65493697D01*
X127006365Y-65476951D01*
X126840607Y-65432536D01*
X126715102Y-65421555D01*
X126673505Y-65410409D01*
X126638229Y-65385708D01*
X126442521Y-65190000D01*
X134785272Y-65190000D01*
X134805364Y-65522142D01*
X134865345Y-65849446D01*
X134964334Y-66167116D01*
X134964336Y-66167121D01*
X134964337Y-66167123D01*
X135009887Y-66268330D01*
X135100902Y-66470557D01*
X135273045Y-66755318D01*
X135368771Y-66877502D01*
X135478258Y-67017252D01*
X135713548Y-67252542D01*
X135832285Y-67345566D01*
X135975481Y-67457754D01*
X136135266Y-67554347D01*
X136260243Y-67629898D01*
X136563677Y-67766463D01*
X136881359Y-67865456D01*
X137208658Y-67925436D01*
X137540800Y-67945527D01*
X137872942Y-67925436D01*
X138200241Y-67865456D01*
X138517923Y-67766463D01*
X138821357Y-67629898D01*
X139106118Y-67457754D01*
X139368052Y-67252542D01*
X139603342Y-67017252D01*
X139808554Y-66755318D01*
X139980698Y-66470557D01*
X140117263Y-66167123D01*
X140216256Y-65849441D01*
X140276236Y-65522142D01*
X140296327Y-65190000D01*
X140276236Y-64857858D01*
X140216256Y-64530559D01*
X140117263Y-64212877D01*
X139980698Y-63909443D01*
X139856971Y-63704773D01*
X139808554Y-63624681D01*
X139658655Y-63433350D01*
X139603342Y-63362748D01*
X139368052Y-63127458D01*
X139270651Y-63051149D01*
X139106118Y-62922245D01*
X138903897Y-62799999D01*
X143094551Y-62799999D01*
X143114317Y-63051149D01*
X143173126Y-63296110D01*
X143200729Y-63362748D01*
X143269534Y-63528859D01*
X143401164Y-63743659D01*
X143564776Y-63935224D01*
X143756341Y-64098836D01*
X143971141Y-64230466D01*
X144203889Y-64326873D01*
X144448852Y-64385683D01*
X144637118Y-64400500D01*
X144762879Y-64400500D01*
X144762882Y-64400500D01*
X144951148Y-64385683D01*
X145196111Y-64326873D01*
X145428859Y-64230466D01*
X145643659Y-64098836D01*
X145835224Y-63935224D01*
X145998836Y-63743659D01*
X146130466Y-63528859D01*
X146226873Y-63296111D01*
X146285683Y-63051148D01*
X146305449Y-62800000D01*
X146285683Y-62548852D01*
X146226873Y-62303889D01*
X146130466Y-62071141D01*
X145998836Y-61856341D01*
X145835224Y-61664776D01*
X145643659Y-61501164D01*
X145428859Y-61369534D01*
X145312484Y-61321330D01*
X145196110Y-61273126D01*
X144951149Y-61214317D01*
X144904081Y-61210612D01*
X144762882Y-61199500D01*
X144637118Y-61199500D01*
X144524158Y-61208390D01*
X144448850Y-61214317D01*
X144203889Y-61273126D01*
X143971139Y-61369535D01*
X143756342Y-61501163D01*
X143564776Y-61664776D01*
X143401163Y-61856342D01*
X143269535Y-62071139D01*
X143173126Y-62303889D01*
X143114317Y-62548850D01*
X143094551Y-62799999D01*
X138903897Y-62799999D01*
X138821357Y-62750102D01*
X138517916Y-62613534D01*
X138200246Y-62514545D01*
X137948349Y-62468383D01*
X137872942Y-62454564D01*
X137540799Y-62434472D01*
X137208657Y-62454564D01*
X136881353Y-62514545D01*
X136563683Y-62613534D01*
X136260242Y-62750102D01*
X135975481Y-62922245D01*
X135713545Y-63127460D01*
X135478260Y-63362745D01*
X135273045Y-63624681D01*
X135100902Y-63909442D01*
X134964334Y-64212883D01*
X134865345Y-64530553D01*
X134805364Y-64857857D01*
X134785272Y-65190000D01*
X126442521Y-65190000D01*
X122005167Y-60752647D01*
X122003012Y-60750438D01*
X121942659Y-60686947D01*
X121894240Y-60653246D01*
X121886717Y-60647574D01*
X121868442Y-60632672D01*
X121832369Y-60584325D01*
X121823377Y-60524678D01*
X121843593Y-60467846D01*
X121888234Y-60427277D01*
X121946732Y-60412572D01*
X144521523Y-60399989D01*
X144574278Y-60411739D01*
G37*
G04 #@! TD.AperFunction*
M02*
