M48
; DRILL file {KiCad 7.0.1} date Mon May 15 21:34:45 2023
; FORMAT={-:-/ absolute / metric / decimal}
; #@! TF.CreationDate,2023-05-15T21:34:45-05:00
; #@! TF.GenerationSoftware,Kicad,Pcbnew,7.0.1
; #@! TF.FileFunction,Plated,1,2,PTH
FMAT,2
METRIC
; #@! TA.AperFunction,Plated,PTH,ViaDrill
T1C0.400
; #@! TA.AperFunction,Plated,PTH,ComponentDrill
T2C0.762
; #@! TA.AperFunction,Plated,PTH,ComponentDrill
T3C0.800
; #@! TA.AperFunction,Plated,PTH,ComponentDrill
T4C1.000
; #@! TA.AperFunction,Plated,PTH,ComponentDrill
T5C1.300
; #@! TA.AperFunction,Plated,PTH,ComponentDrill
T6C1.500
; #@! TA.AperFunction,Plated,PTH,ComponentDrill
T7C2.286
; #@! TA.AperFunction,Plated,PTH,ComponentDrill
T8C2.700
%
G90
G05
T1
X71.55Y-82.7
X82.9Y-103.55
X85.15Y-64.3
X88.15Y-103.7
X96.85Y-70.2
X102.25Y-70.2
T2
X60.945Y-103.505
X60.945Y-108.585
X68.565Y-103.505
X68.565Y-108.585
X71.105Y-103.505
X71.105Y-108.585
T3
X63.95Y-115.85
X65.95Y-115.85
X67.95Y-115.85
T4
X75.2Y-90.45
X80.2Y-90.45
X84.8Y-111.43
X84.8Y-113.97
X84.8Y-116.51
X84.8Y-119.05
X91.265Y-107.1
X91.291Y-69.0
X91.291Y-71.54
X91.291Y-74.08
X91.291Y-76.62
X91.291Y-79.16
X91.291Y-81.7
X91.291Y-84.24
X91.291Y-86.78
X91.291Y-89.32
X91.291Y-91.86
X91.291Y-94.4
X91.291Y-96.94
X91.291Y-99.48
X91.291Y-102.02
X91.291Y-104.56
X111.611Y-79.16
X111.611Y-81.7
X111.611Y-84.24
X111.611Y-86.78
X111.611Y-89.32
X111.611Y-91.86
X111.611Y-94.4
X111.611Y-96.94
X111.611Y-99.48
X111.611Y-102.02
X111.611Y-104.56
X111.611Y-107.1
X118.465Y-107.1
X118.491Y-69.0
X118.491Y-71.54
X118.491Y-74.08
X118.491Y-76.62
X118.491Y-79.16
X118.491Y-81.7
X118.491Y-84.24
X118.491Y-86.78
X118.491Y-89.32
X118.491Y-91.86
X118.491Y-94.4
X118.491Y-96.94
X118.491Y-99.48
X118.491Y-102.02
X118.491Y-104.56
X125.145Y-109.498
X126.605Y-66.768
X128.645Y-109.498
X130.105Y-66.768
X132.145Y-109.498
X136.795Y-72.308
X136.795Y-74.848
X138.811Y-79.16
X138.811Y-81.7
X138.811Y-84.24
X138.811Y-86.78
X138.811Y-89.32
X138.811Y-91.86
X138.811Y-94.4
X138.811Y-96.94
X138.811Y-99.48
X138.811Y-102.02
X138.811Y-104.56
X138.811Y-107.1
T5
X56.8Y-76.65
X56.8Y-80.15
T6
X61.85Y-115.85
X70.05Y-115.85
T7
X119.126Y-110.91
X138.176Y-110.91
T8
X92.543Y-65.172
X110.343Y-65.172
X119.761Y-65.19
X137.541Y-65.19
T4
X60.4Y-89.1G85X60.4Y-91.1
G05
X62.4Y-94.8G85X64.4Y-94.8
G05
X66.6Y-88.85G85X66.6Y-91.35
G05
T0
M30
